<svg xmlns="http://www.w3.org/2000/svg" width="597.008" height="126.428" viewBox="0 -94.821 447.756 94.821"><path d="M33.394-90.956h-.86l-1.319 3.093-1.318-3.093h-.896l1.775 3.81v2.367h.842v-2.376l1.776-3.8zM36.935-87.28c0-1.497-.628-2.33-1.766-2.33-1.148 0-1.829.994-1.829 2.518 0 1.533.717 2.43 1.927 2.43.62 0 1.103-.224 1.507-.592l-.35-.475c-.358.278-.672.421-1.112.421-.636 0-1.076-.394-1.138-1.55h2.743c.01-.117.018-.27.018-.422zm-.789-.152h-1.972c.054-1.148.439-1.56 1.004-1.56.663 0 .968.501.968 1.47v.09zM40.912-85.855v-2.223c0-.977-.475-1.533-1.532-1.533-.476 0-.969.116-1.47.323l.196.565c.422-.162.79-.252 1.148-.252.6 0 .86.27.86.933v.394h-.61c-1.218 0-1.9.547-1.9 1.551 0 .86.512 1.435 1.363 1.435.52 0 .968-.224 1.273-.718.117.458.395.637.834.709l.17-.547c-.215-.099-.332-.233-.332-.637zm-1.765.583c-.449 0-.718-.296-.718-.87 0-.654.395-.977 1.175-.977h.51v1.112c-.223.484-.528.735-.967.735zm5.146-4.33c-.547 0-.932.35-1.165 1.04l-.072-.941h-.7v4.724h.807v-2.725c.18-.87.485-1.318 1.032-1.318.143 0 .25.018.367.054l.143-.78a1.491 1.491 0 0 0-.412-.054zM74.623-90.956h-3.066v6.177h3.102v-.654h-2.268v-2.179h1.856v-.645h-1.856v-2.044h2.143l.09-.655zM77.59-89.602c-.546 0-.931.35-1.164 1.04l-.072-.941h-.7v4.724h.808v-2.725c.179-.87.484-1.318 1.03-1.318.144 0 .251.018.368.054l.143-.78a1.491 1.491 0 0 0-.412-.054zM81.518-85.855v-2.223c0-.977-.475-1.533-1.533-1.533-.475 0-.968.116-1.47.323l.197.565c.421-.162.789-.252 1.147-.252.6 0 .86.27.86.933v.394h-.609c-1.219 0-1.9.547-1.9 1.551 0 .86.51 1.435 1.362 1.435.52 0 .968-.224 1.273-.718.117.458.395.637.834.709l.17-.547c-.215-.099-.331-.233-.331-.637zm-1.766.583c-.448 0-.717-.296-.717-.87 0-.654.394-.977 1.174-.977h.51v1.112c-.223.484-.528.735-.967.735zM89.03-90.956h-.763v3.371c0 .816.072 1.676.108 1.936l-2.197-5.307h-1.075v6.177h.762v-2.976c0-1.13-.072-1.82-.117-2.322l2.197 5.298h1.084v-6.177zm4.393 5.101v-2.223c0-.977-.475-1.533-1.533-1.533-.475 0-.968.116-1.47.323l.197.565c.421-.162.789-.252 1.147-.252.601 0 .861.27.861.933v.394h-.61c-1.219 0-1.9.547-1.9 1.551 0 .86.51 1.435 1.363 1.435.52 0 .968-.224 1.273-.718.116.458.394.637.833.709l.17-.547c-.215-.099-.331-.233-.331-.637zm-1.766.583c-.448 0-.717-.296-.717-.87 0-.654.394-.977 1.174-.977h.511v1.112c-.224.484-.529.735-.968.735zm7.558-4.339c-.556 0-.968.359-1.282.86-.161-.546-.538-.86-1.049-.86-.547 0-.95.332-1.255.807l-.063-.7h-.699v4.725h.798v-3.38c.269-.493.583-.824.986-.824.34 0 .565.233.565.869v3.335h.789v-3.38c.278-.493.582-.824.986-.824.34 0 .564.233.564.869v3.335h.79v-3.433c0-.852-.44-1.399-1.13-1.399zm5.846 2.33c0-1.496-.627-2.33-1.766-2.33-1.147 0-1.829.995-1.829 2.52 0 1.532.718 2.429 1.928 2.429.618 0 1.102-.224 1.506-.592l-.35-.475c-.358.278-.672.421-1.111.421-.637 0-1.076-.394-1.139-1.55h2.743c.01-.117.018-.27.018-.422zm-.789-.151H102.3c.054-1.148.44-1.56 1.004-1.56.663 0 .968.501.968 1.47v.09zM119.003-90.956h-.834v6.177h.834v-6.177zm4.017-.538v2.457c-.251-.323-.61-.574-1.12-.574-1.023 0-1.695.995-1.695 2.492 0 1.515.591 2.457 1.622 2.457.556 0 .96-.305 1.228-.744l.054.627h.717v-6.625l-.806-.09zm-1.004 6.195c-.592 0-.96-.547-.96-1.838 0-1.273.413-1.838 1.022-1.838.413 0 .709.252.942.61v2.358c-.26.44-.556.708-1.004.708zm6.563-1.981c0-1.497-.628-2.33-1.766-2.33-1.148 0-1.83.994-1.83 2.518 0 1.533.718 2.43 1.928 2.43.619 0 1.103-.224 1.506-.592l-.35-.475c-.358.278-.672.421-1.11.421-.637 0-1.077-.394-1.14-1.55h2.744c.009-.117.018-.27.018-.422zm-.79-.152h-1.971c.053-1.148.439-1.56 1.004-1.56.663 0 .968.501.968 1.47v.09zm3.551-2.179c-1.201 0-1.927.915-1.927 2.474 0 1.551.717 2.475 1.919 2.475 1.201 0 1.918-.95 1.918-2.484 0-1.604-.708-2.465-1.91-2.465zm0 .645c.682 0 1.067.538 1.067 1.82 0 1.291-.385 1.838-1.075 1.838-.691 0-1.067-.547-1.067-1.829 0-1.29.385-1.829 1.075-1.829zm6.313-1.04c-.458.225-.843.413-1.883.404-1.022 0-1.703.646-1.703 1.631 0 .628.233 1.05.735 1.336-.296.215-.493.502-.493.816 0 .493.358.879 1.237.879h.52c.564 0 .879.233.879.69 0 .466-.315.762-1.202.762-.905 0-1.148-.251-1.148-.816h-.725c0 .915.457 1.426 1.873 1.426 1.336 0 2.008-.565 2.008-1.426 0-.717-.574-1.273-1.524-1.273h-.618c-.458 0-.583-.17-.583-.412 0-.188.089-.35.242-.457.161.062.332.09.52.09 1.031 0 1.649-.646 1.649-1.579 0-.6-.268-.995-.752-1.237.51 0 .896-.027 1.201-.143l-.233-.69zm-1.892.969c.592 0 .879.376.879 1.066 0 .745-.314 1.067-.879 1.067-.556 0-.896-.403-.896-1.067 0-.69.304-1.066.896-1.066zm4.806-.565c-.547 0-.932.35-1.166 1.04l-.071-.941h-.7v4.724h.807v-2.725c.18-.87.484-1.318 1.031-1.318.144 0 .251.018.368.054l.143-.78a1.487 1.487 0 0 0-.412-.054zM144.484-85.855v-2.223c0-.977-.475-1.533-1.533-1.533-.476 0-.968.116-1.471.323l.198.565c.421-.162.789-.252 1.147-.252.601 0 .861.27.861.933v.394h-.61c-1.219 0-1.9.547-1.9 1.551 0 .86.511 1.435 1.362 1.435.52 0 .968-.224 1.273-.718.117.458.395.637.834.709l.17-.547c-.215-.099-.331-.233-.331-.637zm-1.766.583c-.448 0-.718-.296-.718-.87 0-.654.395-.977 1.175-.977h.511v1.112c-.224.484-.529.735-.968.735zm5.254-4.339c-.538 0-.969.269-1.282.735l-.054-.627h-.708v6.625l.807-.1v-2.258a1.37 1.37 0 0 0 1.129.574c1.067 0 1.65-.978 1.65-2.493 0-1.55-.502-2.456-1.542-2.456zm-.296 4.303c-.394 0-.708-.224-.941-.583v-2.375c.242-.386.564-.709 1.022-.709.6 0 .914.52.914 1.83 0 1.29-.368 1.837-.995 1.837zm5.111-4.303c-.574 0-.977.305-1.3.789v-2.663l-.807.09v6.616h.807v-3.353c.304-.51.636-.843 1.075-.843.395 0 .619.234.619.861v3.335h.807v-3.433c0-.852-.439-1.399-1.201-1.399zm3.819 0c-.914 0-1.55.565-1.55 1.309 0 .645.358 1.04 1.263 1.336.825.26 1.032.448 1.032.932 0 .475-.35.744-.879.744-.475 0-.852-.18-1.192-.457l-.413.448a2.28 2.28 0 0 0 1.623.637c.923 0 1.694-.503 1.694-1.426 0-.789-.466-1.156-1.362-1.443-.735-.233-.96-.413-.96-.807 0-.403.305-.645.78-.645.404 0 .717.134 1.076.385l.341-.475a2.15 2.15 0 0 0-1.453-.538zM174.46-84.779h.834v-6.177h-.834v2.6h-2.25v-2.6h-.834v6.177h.834v-2.896h2.25v2.896zm3.964-4.832c-1.202 0-1.928.915-1.928 2.474 0 1.551.718 2.475 1.919 2.475s1.918-.95 1.918-2.484c0-1.604-.708-2.465-1.909-2.465zm0 .645c.681 0 1.067.538 1.067 1.82 0 1.291-.386 1.838-1.076 1.838s-1.067-.547-1.067-1.829c0-1.29.386-1.829 1.076-1.829zm5.003-.636c-.547 0-.932.35-1.166 1.04l-.071-.941h-.699v4.724h.806v-2.725c.18-.87.484-1.318 1.031-1.318.144 0 .251.018.368.054l.143-.78a1.487 1.487 0 0 0-.412-.054zm1.596-2.125c-.323 0-.529.233-.529.538 0 .296.206.52.529.52s.529-.224.529-.52c0-.305-.206-.538-.529-.538zm.404 2.224h-.807v4.724h.807v-4.724zm4.025 0h-2.931v.672h2.044l-2.233 3.451v.601h3.048l.081-.663h-2.241l2.232-3.452v-.61zM191.984-89.61c-1.201 0-1.927.914-1.927 2.473 0 1.551.717 2.475 1.919 2.475 1.201 0 1.918-.95 1.918-2.484 0-1.604-.708-2.465-1.91-2.465zm0 .644c.682 0 1.067.538 1.067 1.82 0 1.291-.385 1.838-1.075 1.838-.691 0-1.067-.547-1.067-1.829 0-1.29.385-1.829 1.075-1.829zm5.174-.645c-.601 0-1.022.332-1.336.825l-.071-.717h-.7v4.724h.807v-3.353c.305-.51.637-.843 1.085-.843.394 0 .609.234.609.861v3.335h.807v-3.433c0-.861-.439-1.399-1.201-1.399zm4.546 4.106c-.197.116-.359.17-.565.17-.359 0-.511-.206-.511-.6v-2.95h.941l.09-.618h-1.031v-1.175l-.807.099v1.076h-.681v.618h.681v2.959c0 .789.422 1.264 1.193 1.264.367 0 .699-.117.986-.323l-.296-.52zM205.599-85.855v-2.223c0-.977-.475-1.533-1.533-1.533-.475 0-.968.116-1.47.323l.197.565c.421-.162.789-.252 1.147-.252.601 0 .861.27.861.933v.394h-.61c-1.219 0-1.9.547-1.9 1.551 0 .86.511 1.435 1.363 1.435.52 0 .968-.224 1.273-.718.116.458.394.637.833.709l.171-.547c-.216-.099-.332-.233-.332-.637zm-1.766.583c-.448 0-.717-.296-.717-.87 0-.654.394-.977 1.174-.977h.511v1.112c-.224.484-.529.735-.968.735zM207.884-84.662c.233 0 .457-.072.609-.153l-.188-.565a.662.662 0 0 1-.251.045c-.197 0-.287-.125-.287-.34v-5.819l-.807.09v5.755c0 .628.368.987.924.987zM230.765-90.956h-.834l-1.353 5.361-1.39-5.36h-.86l1.739 6.176h.986l1.712-6.177zM234.646-87.28c0-1.497-.627-2.33-1.766-2.33-1.147 0-1.829.994-1.829 2.518 0 1.533.718 2.43 1.928 2.43.618 0 1.102-.224 1.506-.592l-.35-.475c-.358.278-.672.421-1.111.421-.637 0-1.076-.394-1.139-1.55h2.743c.009-.117.018-.27.018-.422zm-.789-.152h-1.972c.054-1.148.439-1.56 1.004-1.56.663 0 .968.501.968 1.47v.09zm3.838-2.17c-.547 0-.932.35-1.166 1.04l-.071-.941h-.699v4.724h.806v-2.725c.18-.87.484-1.318 1.031-1.318.144 0 .251.018.368.054l.143-.78a1.487 1.487 0 0 0-.412-.054zm3.138 4.097c-.197.116-.358.17-.565.17-.358 0-.511-.206-.511-.6v-2.95h.942l.089-.618h-1.031v-1.175l-.806.099v1.076h-.682v.618h.682v2.959c0 .789.421 1.264 1.192 1.264.367 0 .699-.117.986-.323l-.296-.52zm1.399-6.222c-.323 0-.529.233-.529.538 0 .296.206.52.529.52s.529-.224.529-.52c0-.305-.206-.538-.529-.538zm.404 2.224h-.807v4.724h.807v-4.724zm3.084-.108c-1.166 0-1.919.95-1.919 2.51 0 1.596.744 2.439 1.928 2.439.511 0 .941-.198 1.3-.53l-.368-.492c-.296.224-.547.35-.905.35-.655 0-1.094-.485-1.094-1.776 0-1.309.43-1.846 1.103-1.846.349 0 .609.116.887.34l.368-.484a1.784 1.784 0 0 0-1.3-.51zM250.784-85.855v-2.223c0-.977-.475-1.533-1.533-1.533-.475 0-.968.116-1.47.323l.197.565c.421-.162.789-.252 1.147-.252.601 0 .861.27.861.933v.394h-.61c-1.219 0-1.9.547-1.9 1.551 0 .86.511 1.435 1.362 1.435.52 0 .968-.224 1.273-.718.117.458.395.637.834.709l.171-.547c-.216-.099-.332-.233-.332-.637zm-1.766.583c-.448 0-.717-.296-.717-.87 0-.654.394-.977 1.174-.977h.511v1.112c-.224.484-.529.735-.968.735zM253.068-84.662c.234 0 .458-.072.61-.153l-.188-.565a.666.666 0 0 1-.251.045c-.197 0-.287-.125-.287-.34v-5.819l-.807.09v5.755c0 .628.368.987.923.987zM275.869-90.956h-.834v4.312c0 .825-.349 1.291-1.129 1.291-.789 0-1.139-.457-1.139-1.29v-4.313h-.833v4.375c0 1.094.645 1.91 1.972 1.91 1.3 0 1.963-.825 1.963-1.91v-4.375zm3.498 1.345c-.601 0-1.023.332-1.336.825l-.072-.717h-.699v4.724h.807v-3.353c.304-.51.636-.843 1.084-.843.395 0 .61.234.61.861v3.335h.807v-3.433c0-.861-.44-1.399-1.201-1.399zm3.003-2.116c-.322 0-.529.233-.529.538 0 .296.207.52.529.52.323 0 .529-.224.529-.52 0-.305-.206-.538-.529-.538zm.404 2.224h-.807v4.724h.807v-4.724zm3.084-.108c-1.165 0-1.918.95-1.918 2.51 0 1.596.744 2.439 1.927 2.439.511 0 .942-.198 1.3-.53l-.368-.492c-.295.224-.546.35-.905.35-.655 0-1.094-.485-1.094-1.776 0-1.309.431-1.846 1.103-1.846.35 0 .61.116.887.34l.368-.484a1.783 1.783 0 0 0-1.3-.51zM289.589-89.61c-1.201 0-1.927.914-1.927 2.473 0 1.551.717 2.475 1.919 2.475 1.201 0 1.918-.95 1.918-2.484 0-1.604-.708-2.465-1.91-2.465zm0 .644c.682 0 1.067.538 1.067 1.82 0 1.291-.385 1.838-1.075 1.838-.691 0-1.067-.547-1.067-1.829 0-1.29.385-1.829 1.075-1.829zm5.605-2.528v2.457c-.252-.323-.61-.574-1.121-.574-1.022 0-1.694.995-1.694 2.492 0 1.515.591 2.457 1.622 2.457.556 0 .959-.305 1.228-.744l.054.627H296v-6.625l-.806-.09zm-1.005 6.195c-.591 0-.959-.547-.959-1.838 0-1.273.413-1.838 1.022-1.838.412 0 .708.252.942.61v2.358c-.26.44-.556.708-1.005.708zm6.563-1.981c0-1.497-.627-2.33-1.766-2.33-1.147 0-1.828.994-1.828 2.518 0 1.533.717 2.43 1.927 2.43a2.15 2.15 0 0 0 1.506-.592l-.35-.475c-.358.278-.672.421-1.111.421-.637 0-1.076-.394-1.139-1.55h2.743c.01-.117.018-.27.018-.422zm-.788-.152h-1.973c.054-1.148.439-1.56 1.004-1.56.664 0 .969.501.969 1.47v.09zM367.115-91.063c-1.425 0-2.367 1.102-2.367 3.209 0 2.134.942 3.192 2.367 3.192 1.443 0 2.367-1.094 2.367-3.2 0-2.152-.933-3.201-2.367-3.201zm0 .672c.932 0 1.488.708 1.488 2.528 0 1.829-.556 2.528-1.488 2.528-.897 0-1.488-.699-1.488-2.519 0-1.82.574-2.537 1.488-2.537zm5.469.789c-.546 0-.932.35-1.165 1.04l-.072-.941h-.699v4.724h.807v-2.725c.179-.87.484-1.318 1.031-1.318.143 0 .251.018.367.054l.144-.78a1.494 1.494 0 0 0-.413-.054zm1.597-2.125c-.323 0-.529.233-.529.538 0 .296.206.52.529.52s.528-.224.528-.52c0-.305-.205-.538-.528-.538zm.403 2.224h-.807v4.724h.807v-4.724zm4.689-.503c-.457.225-.843.413-1.883.404-1.022 0-1.703.646-1.703 1.631 0 .628.233 1.05.735 1.336-.295.215-.493.502-.493.816 0 .493.359.879 1.237.879h.52c.565 0 .879.233.879.69 0 .466-.314.762-1.202.762-.905 0-1.147-.251-1.147-.816h-.726c0 .915.457 1.426 1.873 1.426 1.336 0 2.009-.565 2.009-1.426 0-.717-.574-1.273-1.524-1.273h-.619c-.457 0-.583-.17-.583-.412 0-.188.09-.35.242-.457.162.062.332.09.52.09 1.031 0 1.65-.646 1.65-1.579 0-.6-.269-.995-.753-1.237.511 0 .896-.027 1.201-.143l-.233-.69zm-1.891.969c.591 0 .878.376.878 1.066 0 .745-.314 1.067-.878 1.067-.556 0-.897-.403-.897-1.067 0-.69.305-1.066.897-1.066zm3.272-2.69c-.322 0-.529.233-.529.538 0 .296.207.52.529.52.323 0 .529-.224.529-.52 0-.305-.206-.538-.529-.538zm.404 2.224h-.807v4.724h.807v-4.724zm3.55-.108c-.601 0-1.022.332-1.336.825l-.071-.717h-.7v4.724h.807v-3.353c.305-.51.637-.843 1.085-.843.394 0 .61.234.61.861v3.335h.807v-3.433c0-.861-.44-1.399-1.202-1.399zM17.504-75.308h-.478l-1.793 1.225.258.398 1.455-1.006v6.007h.558v-6.624zm4.114 3.118c.767-.419 1.106-.877 1.106-1.584 0-1.126-.827-1.644-1.693-1.644-.887 0-1.694.568-1.694 1.654 0 .737.319 1.165 1.056 1.524-.857.359-1.315.956-1.315 1.853 0 1.086.747 1.813 1.933 1.813 1.165 0 1.962-.698 1.962-1.833 0-.887-.428-1.385-1.355-1.783zm-1.733-1.564c0-.837.488-1.226 1.146-1.226.677 0 1.145.399 1.145 1.226 0 .617-.279 1.016-.926 1.404l-.28-.12c-.806-.338-1.085-.637-1.085-1.284zm1.136 4.711c-.817 0-1.375-.438-1.375-1.344 0-.807.339-1.315 1.146-1.674l.308.13c.947.388 1.305.717 1.305 1.534 0 .916-.558 1.354-1.384 1.354zm5.14-3.954c-.647 0-1.155.368-1.524.966.05-1.773.628-2.919 1.614-2.919.339 0 .608.1.876.3l.25-.38a1.79 1.79 0 0 0-1.126-.388c-1.345 0-2.172 1.385-2.172 3.756 0 1.793.518 3.088 1.913 3.088 1.016 0 1.763-.827 1.763-2.341 0-1.425-.727-2.082-1.594-2.082zm-.17 3.954c-.945 0-1.324-.856-1.354-2.39.349-.668.847-1.106 1.444-1.106.648 0 1.116.468 1.116 1.644 0 1.135-.408 1.852-1.205 1.852zm5.26-3.147c.768-.419 1.107-.877 1.107-1.584 0-1.126-.827-1.644-1.694-1.644-.886 0-1.693.568-1.693 1.654 0 .737.319 1.165 1.056 1.524-.857.359-1.315.956-1.315 1.853 0 1.086.747 1.813 1.932 1.813 1.166 0 1.963-.698 1.963-1.833 0-.887-.428-1.385-1.355-1.783zm-1.732-1.564c0-.837.488-1.226 1.145-1.226.678 0 1.146.399 1.146 1.226 0 .617-.279 1.016-.926 1.404l-.28-.12c-.806-.338-1.085-.637-1.085-1.284zm1.135 4.711c-.816 0-1.374-.438-1.374-1.344 0-.807.338-1.315 1.145-1.674l.31.13c.945.388 1.304.717 1.304 1.534 0 .916-.558 1.354-1.385 1.354zM35.105-71.563h3.955v-.478h-3.955v.478zM44.499-75.308h-.478l-1.793 1.225.259.398 1.454-1.006v6.007h.558v-6.624zm3.387-.11c-1.036 0-1.823.767-1.823 2.172 0 1.305.718 2.082 1.644 2.082.618 0 1.096-.34 1.434-.877-.1 1.773-1.045 2.59-2.59 3.118l.14.428c2.002-.667 3.028-1.633 3.028-4.243 0-1.703-.578-2.68-1.833-2.68zm-.09 3.796c-.697 0-1.165-.549-1.165-1.614 0-1.156.488-1.724 1.275-1.724.887 0 1.255.718 1.255 2.341-.368.628-.787.997-1.364.997zM52.714-75.308h-.478l-1.793 1.225.259.398 1.454-1.006v6.007h.558v-6.624zm3.059-.11c-.708 0-1.255.309-1.724.947l.379.279c.369-.479.757-.748 1.325-.748.677 0 1.116.459 1.116 1.245 0 1.166-.519 1.903-2.73 4.543v.468h3.377l.08-.498h-2.83c2.013-2.38 2.67-3.237 2.67-4.532 0-.987-.617-1.704-1.663-1.704zM85.015-75.507h-.826l-2.172 5.339-.767-5.34h-.747l-1.544 6.824h.558l.717-3.277c.23-1.046.498-2.311.598-2.979l.806 5.45h.568l2.261-5.46c-.06.668-.139 1.873-.199 2.999l-.179 3.267h.558l.368-6.823zm5.032 2.729c0-.697-.498-1.225-1.395-1.225-1.753 0-2.5 1.902-2.5 3.456 0 1.256.618 1.973 1.663 1.973.618 0 1.126-.23 1.624-.618l-.249-.379c-.448.33-.827.509-1.335.509-.667 0-1.125-.429-1.125-1.495v-.179c1.932-.17 3.317-.687 3.317-2.042zm-1.425-.757c.598 0 .847.339.847.777 0 .976-.936 1.424-2.7 1.574.15-1.146.708-2.351 1.853-2.351zm3.468-1.823c.249 0 .438-.19.438-.448 0-.21-.14-.369-.369-.369a.44.44 0 0 0-.448.449c0 .219.15.368.379.368zm.07 1.464H91.6l-.737 5.21h.558l.737-5.21zm2.37-1.464c.25 0 .439-.19.439-.448 0-.21-.14-.369-.369-.369a.44.44 0 0 0-.448.449c0 .219.149.368.378.368zM92.3-66.662c.906-.438 1.374-.777 1.564-2.142l.717-5.09h-.558l-.707 5.06c-.17 1.136-.508 1.425-1.176 1.754l.16.418zm4.642-8.696c.25 0 .438-.19.438-.448 0-.21-.139-.369-.368-.369a.44.44 0 0 0-.448.449c0 .219.15.368.378.368zm.07 1.464h-.558l-.737 5.21h.558l.737-5.21zM131.347-80.12l-.288-.026c0 .077-.01.187-.02.255-.014.08-.034.16-.054.245-.292.003-.577.07-.863.238-.03-.094-.06-.185-.08-.262a4.882 4.882 0 0 1-.068-.299l-.278.091c.04.087.08.198.11.302.031.1.064.205.101.309-.305.248-.516.654-.516 1.04 0 .393.211.604.466.604.252 0 .457-.167.665-.42.05.071.104.135.157.195l.212-.174a2.106 2.106 0 0 1-.208-.235c.19-.275.362-.715.49-1.141.433.074.704.403.704.84 0 .516-.389.885-1.09.945l.157.239c.719-.101 1.199-.507 1.199-1.175 0-.577-.37-.99-.907-1.077.02-.08.037-.158.054-.232.014-.064.034-.178.057-.262zm-1.715 1.873c0-.262.141-.57.363-.778.097.255.204.493.302.644.027.043.05.087.077.127-.148.198-.325.366-.49.366-.151 0-.252-.137-.252-.359zm.829-.346a3.793 3.793 0 0 1-.262-.59c.222-.138.46-.218.722-.232a4.337 4.337 0 0 1-.393.933c-.023-.037-.047-.074-.067-.11zM134.638-79.865l-.326-.006c.02.08.024.221.024.298 0 .195.007.604.037.897.09.869.396 1.184.715 1.184.225 0 .43-.194.63-.765l-.21-.238c-.088.335-.246.684-.417.684-.238 0-.403-.372-.456-.933a8.451 8.451 0 0 1-.024-.795c0-.087.014-.245.027-.326zm1.748.095l-.261.09c.322.393.523 1.08.584 1.688l.268-.11c-.05-.568-.292-1.28-.59-1.668zM131.796-75.605v2.09h-2.129v-2.09h2.129zm-2.129 4.736v-2.215h2.129v2.215h-2.129zm2.57.43v-5.597h-3.01v6.528h.44v-.93h2.57zm1.39-1.072c.057-.47.076-.93.076-1.352v-.604h3.029v1.956h-3.106zm3.105-4.295v1.908h-3.03v-1.908h3.03zm.45-.44h-3.93v3.373c0 1.524-.172 3.346-1.792 4.62.086.067.259.22.326.326 1.093-.872 1.572-2.022 1.773-3.153h3.173v2.367c0 .182-.058.23-.24.24-.172.01-.776.019-1.457 0 .077.134.154.335.182.46.834 0 1.342-.01 1.61-.077.27-.086.355-.258.355-.623v-7.534zM143.112-79.838l-.191.081c.11.154.228.366.315.543l.198-.09a5.5 5.5 0 0 0-.322-.534zm.433-.17l-.188.086c.114.148.238.356.326.53l.194-.093a4.545 4.545 0 0 0-.332-.524zm-1.362-.105l-.34-.003c.02.097.03.218.03.342 0 .35-.036 1.202-.036 1.698 0 .547.336.749.819.749.735 0 1.167-.423 1.399-.742l-.191-.228c-.238.349-.587.694-1.201.694-.32 0-.551-.13-.551-.5 0-.5.027-1.295.04-1.67.004-.112.014-.229.03-.34zM140.998-75.566c-.393-.336-1.189-.767-1.84-1.016l-.26.345c.662.268 1.439.71 1.822 1.073l.278-.402zm-.45 2.454c-.413-.298-1.237-.662-1.889-.873l-.25.355c.672.23 1.477.623 1.89.93l.248-.412zm-1.438 4.994c.565-.873 1.255-2.128 1.763-3.135l-.335-.297c-.537 1.074-1.304 2.377-1.812 3.115l.384.317zm6.71-3.192v2.463h-3.681v-2.463h3.68zm-4.122 3.345h.44v-.45h3.681v.421h.46v-3.748h-4.581v3.777zm2.99-6.988c.432.46.882 1.016 1.285 1.553l-3.69.163c.479-.94 1.044-2.262 1.437-3.297l-.498-.144c-.336 1.035-.94 2.502-1.438 3.45-.336.01-.642.02-.91.03l.057.469c1.351-.057 3.374-.153 5.33-.259.19.278.364.547.488.777l.403-.24c-.403-.738-1.285-1.87-2.07-2.703l-.394.201zM176.955-75.183c-.192-.326-.642-.814-1.035-1.17l-.268.26c.383.373.824.882 1.016 1.227l.287-.317zm-4.572-.652v2.445h-.891v-2.445h.891zm-.891 5.215v-2.349h.891v2.349h-.891zm1.255.431v-6.077h-1.62v7.055h.365v-.978h1.255zm.853-1.4c.02-.392.03-.776.03-1.12v-.825h1.063v1.946H173.6zm1.093-4.274v1.897h-1.064v-1.897h1.064zm.393-.441h-1.84v3.594c0 1.41-.077 3.269-.892 4.601a.993.993 0 0 1 .317.24c.565-.93.805-2.147.9-3.288h1.122v2.598c0 .105-.029.134-.134.134a9.98 9.98 0 0 1-.786 0c.057.124.125.335.144.45.44 0 .757-.01.93-.086.181-.086.239-.23.239-.508v-7.735zm1.486 3.45c-.202-.277-.642-.7-1.026-.987l-.259.288c.384.297.815.728 1.026 1.035l.259-.336zm-.882 4.755c.364-.863.776-2.08 1.054-3.03l-.326-.287a27.777 27.777 0 0 1-1.083 3.03l.355.287zm3.23-3.499v2.588h-1.332v-2.588h1.332zm-1.725 3.69h.393v-.69h1.332v.652h.403V-72h-2.128v4.094zm1.208-6.93c.172.422.373.93.537 1.41-.47.086-.93.172-1.352.248.249-.958.508-2.28.7-3.297l-.403-.163a33.273 33.273 0 0 1-.71 3.528c-.181.028-.354.057-.507.076l.048.441c.67-.134 1.504-.287 2.357-.46.106.326.202.623.26.882l.364-.23c-.183-.71-.595-1.812-.959-2.655l-.335.22zM186.787-68.628l2.207-5.116v-.414h-3.115v.438h2.613l-2.16 4.964.455.128zm5.587-3.586c-.582 0-1.02.231-1.37.805.015-1.434.51-2.39 1.426-2.39.326 0 .613.087.876.238l.2-.358a1.823 1.823 0 0 0-1.052-.32c-1.228.001-1.937 1.125-1.937 2.933 0 1.698.462 2.702 1.753 2.702.877 0 1.658-.67 1.658-1.92 0-1.172-.718-1.69-1.554-1.69zm-.112 3.172c-.844 0-1.219-.566-1.25-1.833.278-.518.724-.893 1.322-.893.638 0 1.076.303 1.076 1.251 0 .933-.39 1.475-1.148 1.475zm4.464-5.196c-.694 0-1.172.231-1.61.741l.366.295c.367-.414.67-.59 1.244-.59.653 0 1.052.407 1.052 1.068 0 .964-.407 1.546-2.55 3.602v.438h3.14l.07-.454h-2.653c1.849-1.698 2.526-2.542 2.526-3.578 0-.885-.613-1.522-1.585-1.522zm5.523 5.132v-5.052h-.43l-1.594.988.223.359 1.29-.774v4.479h-1.354v.422h3.036v-.422h-1.171zM224.292-76.026v.958h-2.032v-.958h2.032zm-2.032 2.3v-.968h2.032v.968h-2.032zm0 .384h2.463v-3.068h-2.894v3.671h.431v-.603zm-.278 1.274c.546.192 1.198.537 1.534.796l.249-.326c-.335-.268-.997-.585-1.534-.757l-.249.287zm1.045 1.592c-.336-.23-.997-.499-1.524-.643l-.23.326c.527.163 1.17.45 1.505.68l.249-.363zm-1.265 2.51a30.91 30.91 0 0 0 2.051-2.002l-.23-.317c-.69.71-1.543 1.505-2.118 1.956l.297.364zm7.342-8.099v.71h-2.962v-.71h2.962zm-2.972 1.812c.01-.086.01-.163.01-.25v-.488h2.962v.738h-2.972zm2.972.364v.988c0 .115-.038.143-.153.153-.125.01-.518.01-.988-.01.068.125.144.278.173.403.565 0 .94 0 1.15-.077.211-.067.278-.201.278-.47v-3.527h-3.853v1.917c0 .767-.24 1.476-1.898 1.965.086.067.24.22.307.316 1.322-.393 1.802-.996 1.955-1.658h3.029zm-.163 4.294v1.007h-3.834v-1.007h3.834zm-4.275 1.716h.44v-.335h3.835v.316h.45v-2.07h-4.725v2.09zm2.904-3.834c.355.172.729.393 1.083.623-1.083.048-2.175.096-3.115.125.413-.431.863-.978 1.218-1.467l-.49-.124c-.296.47-.814 1.15-1.265 1.61l-1.13.038.105.393a706.62 706.62 0 0 0 5.166-.249c.288.201.537.393.729.546l.364-.316c-.499-.412-1.467-1.007-2.31-1.438l-.355.259zM238.336-69.106v-5.052h-.43l-1.594.988.223.359 1.29-.774v4.479h-1.354v.422h3.036v-.422h-1.171zm4.04-5.132c-.693 0-1.17.231-1.61.741l.367.295c.367-.414.67-.59 1.244-.59.653 0 1.051.407 1.051 1.068 0 .964-.406 1.546-2.55 3.602v.438h3.14l.072-.454h-2.654c1.849-1.698 2.526-2.542 2.526-3.578 0-.885-.613-1.522-1.585-1.522zm5.046 0c-1.132 0-1.737.996-1.737 2.813 0 1.825.605 2.82 1.737 2.82 1.14 0 1.737-.995 1.737-2.82 0-1.817-.598-2.813-1.737-2.813zm-1.172 2.813c0-1.673.462-2.383 1.172-2.383.326 0 .581.12.773.375l-1.77 3.53c-.119-.375-.175-.877-.175-1.522zm1.172 2.383a.903.903 0 0 1-.79-.415l1.77-3.562c.135.383.199.909.199 1.594 0 1.673-.462 2.383-1.18 2.383zm6.543-1.443h-.757v-1.625h-.446l-.032 1.625h-1.746l1.507-3.562-.407-.191-1.633 3.785v.382h2.279l-.008 1.387h.486v-1.387h.757v-.414zm3.499 1.379v-5.052h-.43l-1.594.988.223.359 1.29-.774v4.479H255.6v.422h3.036v-.422h-1.171zM276.054-74.158h-.518v3.896c0 .79-.494 1.172-1.235 1.172-.733 0-1.227-.383-1.227-1.172v-3.896h-.51v3.72c0 1.085.677 1.834 1.737 1.834 1.028 0 1.753-.725 1.753-1.833v-3.721zm3.276 1.21h-.494v1.57h-1.538v.439h1.538v1.562h.494v-1.562h1.554v-.438h-1.554v-1.57zm4.288-1.29c-.502 0-1.004.175-1.466.606l.286.326c.383-.35.702-.51 1.18-.51.613 0 1.107.351 1.107 1.005 0 .709-.557 1.027-1.1 1.027h-.31l-.064.43h.439c.669 0 1.203.263 1.203 1.108 0 .733-.478 1.211-1.307 1.211-.454 0-.933-.183-1.243-.55l-.367.28c.399.502 1.052.7 1.602.7 1.084 0 1.84-.708 1.84-1.665 0-.836-.629-1.306-1.226-1.338.541-.088 1.051-.614 1.051-1.267 0-.733-.637-1.363-1.625-1.363zm4.782 0c-.502 0-1.004.175-1.466.606l.287.326c.382-.35.7-.51 1.179-.51.613 0 1.107.351 1.107 1.005 0 .709-.557 1.027-1.1 1.027h-.31l-.064.43h.438c.67 0 1.204.263 1.204 1.108 0 .733-.478 1.211-1.307 1.211-.454 0-.932-.183-1.243-.55l-.367.28c.399.502 1.052.7 1.602.7 1.084 0 1.84-.708 1.84-1.665 0-.836-.629-1.306-1.226-1.338.541-.088 1.051-.614 1.051-1.267 0-.733-.637-1.363-1.625-1.363zm4.4 5.61l2.207-5.116v-.414h-3.116v.438h2.613l-2.159 4.964.454.128zm4.614-5.076h2.398l.064-.454h-2.972v5.474h3.068v-.446h-2.558v-2.104h2.072v-.462h-2.072v-2.008zM321.512-72.873h-2.435v-2.674h2.435v2.674zm.45-3.096h-3.325v3.508h3.326v-3.508zm-7.054 2.377h2.214v.748c-.767.058-1.533.105-2.214.144v-.892zm2.214-2.3v.757h-2.214v-.757h2.214zm-2.214 1.121h2.214v.815h-2.214v-.815zm-1.294 2.147l.048.422c.92-.076 2.195-.163 3.46-.268v.728h.422v-4.15h.652v-.393h-4.438v.393h.719v3.22l-.863.048zm4.582 4.036v-1.045h2.904v-.403h-2.904v-.996h3.364v-.403h-7.122v.403h3.288v.996h-2.856v.403h2.856v1.045h-4.064v.412h8.627v-.412h-4.093zm9.538-7.745h-.489c-.067 1.275-.144 6-4.083 7.908.124.096.278.24.354.354 2.732-1.38 3.672-4.092 4.007-6.115.393 1.975 1.419 4.85 4.131 6.115.077-.124.23-.287.355-.383-3.69-1.658-4.218-6.365-4.294-7.534l.019-.345zm11.934 6.384v-.412h-2.338v-1.18h2.185v-.402h-1.342c.23-.374.489-.853.69-1.275l-.402-.134c-.163.412-.47.997-.71 1.409h-2.894v.402h2.032v1.18h-2.224v.412h2.224v1.84h.44v-1.84h2.34zm-4.265-3.24c.278.364.527.863.633 1.198l.383-.153c-.105-.326-.374-.815-.652-1.18l-.364.135zm5.933-1.975v-.44h-3.949v-1.093h-.508v1.092h-3.92v.441h3.92v1.19h-3.297v5.99h.45v-5.56h6.24v4.927c0 .163-.038.211-.21.22-.173.01-.758.01-1.438-.019.076.144.143.317.182.45.776 0 1.303 0 1.582-.076.258-.076.354-.23.354-.584v-5.349h-3.355v-1.189h3.95zm8.638 6.23h-1.678v-4.753h1.678v4.754zm-6.509-4.753h1.61v4.754h-1.61v-4.754zm4.4 1.294h-2.358v-1.294h2.358v1.294zm-2.358 2.108h2.358v1.352h-2.358v-1.352zm2.358-.402h-2.358v-1.304h2.358v1.304zm3.057-4.84v-.451h-8.367v.45h3.815c-.096.45-.23.987-.365 1.4h-3v6.153h.46v-.527h6.509v.527h.47v-6.153h-3.97c.145-.413.288-.94.432-1.4h4.016zm9.654-.087v-.46h-8.493v.46h3.873c-.096.498-.25 1.13-.384 1.6h-2.971v6.04h.47v-5.598h1.801v5.271h.451v-5.271h1.888v5.271h.46v-5.271h1.908v4.869c0 .153-.038.192-.201.192-.154.01-.662.019-1.294 0 .076.134.153.325.182.46.709 0 1.188-.01 1.457-.087.24-.086.316-.23.316-.565v-5.31h-3.997c.163-.46.316-1.064.46-1.601h4.074zm7.544 3.585h-1.045v-1.764h1.045v1.764zm.374-1.764h1.064v1.764h-1.064v-1.764zm-1.783 1.764h-.997v-1.764h.997v1.764zm-1.581-3.566v.422h2.252v.977h-2.08v2.56h4.668v-2.56h-2.147v-.977h2.3v-.422h-2.3v-.997h-.44v.997h-2.253zm1.715 4.371c.518.307 1.131.805 1.42 1.17l.306-.298c-.288-.335-.901-.814-1.428-1.112l-.298.24zm-2.626-2.933h-1.6v-1.544h1.6v1.544zm-1.6 2.406h1.6v1.562c-.556.086-1.102.173-1.6.24v-1.802zm1.6-.412h-1.6v-1.573h1.6v1.573zm.968-3.538v-.43h-3.566v.43h.576v5.81c-.25.038-.48.066-.681.095l.077.441c.728-.106 1.677-.25 2.626-.412v1.754h.431v-7.688h.537zm0 7.314c.46-.498.7-1.361.844-2.08l-.384-.115c-.124.69-.383 1.505-.824 1.965l.364.23zm2.147-.077c-.306 0-.355-.038-.355-.23v-1.926h-.421v1.926c0 .528.144.643.747.643h1.16c.508 0 .643-.24.681-1.275a1.437 1.437 0 0 1-.393-.173c-.029.93-.077 1.035-.336 1.035h-1.083zm1.563-2.022c.508.614.939 1.476 1.064 2.06l.402-.181c-.144-.585-.575-1.429-1.112-2.052l-.354.173zm10.516-1.927v-.46h-3.767c.01-.24.019-.47.019-.7v-1.83h3.987v-.46h-8.349v.46h3.892v1.83c0 .23-.01.46-.02.7h-3.574v.46h3.517c-.21 1.486-1.044 2.99-3.949 4.055.096.096.23.287.288.393 2.799-1.035 3.757-2.502 4.064-3.997.7 2.051 1.975 3.403 4.026 3.997.067-.125.201-.307.316-.412-2.128-.547-3.412-1.956-4.016-4.036h3.566zm9.893-3.086v-.46h-8.464v.46h3.805v7.505h.48v-5.33c1.178.595 2.559 1.438 3.297 1.985l.297-.403c-.777-.565-2.3-1.457-3.499-2.032l-.096.115v-1.84h4.18zm3.279 7.275l.43-.364c-.67-.757-1.494-1.582-2.194-2.138l-.393.355c.69.546 1.514 1.361 2.156 2.147zm13.151-8.119h-3.077v.355h3.077v-.355zm-3.479 1.956a3.675 3.675 0 0 1-.24.757l-1.073.096a22.018 22.018 0 0 0 1.438-1.936l-.374-.173c-.163.278-.383.623-.633.968a5.593 5.593 0 0 0-.536-.508c.268-.373.584-.882.824-1.323l-.374-.172c-.154.364-.46.891-.71 1.284-.134-.105-.268-.21-.392-.297l-.26.259c.422.307.92.738 1.218 1.083-.24.317-.48.613-.69.863-.21.01-.393.029-.565.038l.057.403c.537-.048 1.179-.115 1.86-.173-.422.71-1.074 1.217-1.899 1.543.096.087.23.26.288.336 1.246-.566 2.157-1.505 2.473-2.99l-.412-.058zm3.067 4.217v.911H403.1v-.91h2.224zm.422-.354h-3.058v1.955h.412v-.335h2.646v-1.62zm-.69-4.726v.45h-1.716v-.45h1.716zm-1.716 1.237v-.47h1.716v.47h-1.716zm4.371 2.55h-3.547c.115-.202.23-.423.336-.643l-.326-.105h1.438v-.326h-2.272v-.412h2.262v-.326h-2.262v-.412h2.119v-1.88h-2.521v3.7h.402v-.344h.71c-.068.21-.212.508-.327.747H400.8v3.47h.441v-3.086h6.02v2.55c0 .114-.039.153-.183.162-.153.01-.651.01-1.255-.01.057.125.115.279.144.384.766 0 1.207.01 1.437-.067.24-.057.307-.192.307-.47v-2.933zm.546-4.899l-.057.02h-2.07v4.552h.412v-4.16h1.428c-.202.413-.432.892-.719 1.4.623.527.92.94.93 1.323 0 .2-.067.393-.211.47a1.178 1.178 0 0 1-.288.057c-.182.01-.44.01-.748-.02a.97.97 0 0 1 .154.384c.24.02.537.02.738 0a.944.944 0 0 0 .402-.125c.212-.134.355-.402.346-.747-.01-.422-.297-.892-.882-1.41.297-.517.594-1.034.853-1.571l-.288-.173zM412.18-75.355v1.61h-1.544v-1.61h1.543zm-1.544 4.083v-1.677h1.543v1.677h-1.543zm2.367.824v-5.722h-3.191v6.585h.824v-.863h2.367zm1.61-1.313c.039-.402.049-.795.049-1.16v-.316h2.396v1.476h-2.444zm2.445-3.748v1.457h-2.396v-1.457h2.396zm.882-.824h-4.15v3.403c0 1.466-.164 3.259-1.764 4.457.191.125.536.431.66.613 1.084-.814 1.582-1.955 1.803-3.086h2.569v1.917c0 .163-.067.22-.23.23-.173 0-.757.01-1.332-.01.134.23.277.623.325.863.806 0 1.333-.02 1.668-.163.326-.144.45-.412.45-.91v-7.314zM427.68-75.614v-.46h-8.493v.46h3.872c-.096.498-.25 1.13-.383 1.6h-2.972v6.04h.47v-5.598h1.802v5.271h.45v-5.271h1.889v5.271h.46v-5.271h1.907v4.869c0 .153-.038.192-.201.192-.153.01-.662.019-1.294 0 .077.134.153.325.182.46.71 0 1.189-.01 1.457-.087.24-.086.316-.23.316-.565v-5.31h-3.997c.163-.46.317-1.064.46-1.601h4.074zM431.438-75.7c-.403-.336-1.188-.748-1.821-.988l-.489.671c.633.278 1.41.72 1.783 1.064l.527-.748zm-.518 2.482c-.412-.307-1.226-.68-1.85-.891l-.488.68c.642.24 1.438.662 1.83.978l.508-.767zm-1.255 5.157a38.095 38.095 0 0 0 1.687-3.029l-.67-.594a31.819 31.819 0 0 1-1.774 3.038l.757.585zm6.029-2.923v1.83h-2.924v-1.83h2.924zm-3.786 3.057h.862v-.402h2.924v.373h.901v-3.853h-4.687v3.882zm2.837-7.007c.326.374.661.815.968 1.247-.94.047-1.869.095-2.722.134.441-.873.91-1.984 1.284-2.953l-1.025-.24a20.02 20.02 0 0 1-1.218 3.24c-.335.02-.642.03-.92.039l.106.9c1.313-.085 3.192-.2 5.013-.325.163.288.307.556.412.786l.824-.47c-.373-.757-1.179-1.897-1.946-2.741l-.776.383zM18.515-59.213h-.478l-1.793 1.225.258.398 1.455-1.006v6.007h.558v-6.624zm3.387-.11c-1.036 0-1.823.767-1.823 2.172 0 1.305.717 2.082 1.644 2.082.617 0 1.096-.34 1.434-.877-.1 1.773-1.046 2.59-2.59 3.118l.14.428c2.002-.667 3.028-1.633 3.028-4.243 0-1.704-.578-2.68-1.833-2.68zm-.09 3.796c-.697 0-1.165-.549-1.165-1.614 0-1.156.488-1.724 1.275-1.724.887 0 1.255.718 1.255 2.341-.368.628-.787.997-1.364.997zM26.72-59.213h-.478l-1.793 1.225.259.398 1.454-1.006v6.007h.558v-6.624zm3.059-.11c-.708 0-1.256.309-1.724.946l.379.28c.368-.479.757-.748 1.325-.748.677 0 1.115.458 1.115 1.245 0 1.166-.518 1.903-2.729 4.543v.468h3.377l.08-.498h-2.83c2.013-2.38 2.67-3.237 2.67-4.532 0-.987-.617-1.704-1.663-1.704zM35.107-55.468h3.955v-.478h-3.955v.478zM43.933-59.213h-.478l-1.793 1.225.259.398 1.454-1.006v6.007h.558v-6.624zm3.387-.11c-1.036 0-1.822.767-1.822 2.172 0 1.305.717 2.082 1.643 2.082.618 0 1.096-.34 1.435-.877-.1 1.773-1.046 2.59-2.59 3.118l.139.428c2.002-.667 3.028-1.633 3.028-4.243 0-1.704-.577-2.68-1.833-2.68zm-.09 3.796c-.697 0-1.165-.549-1.165-1.614 0-1.156.488-1.724 1.275-1.724.887 0 1.256.718 1.256 2.341-.37.628-.788.997-1.365.997zM51.54-59.323c-.707 0-1.255.309-1.723.946l.379.28c.369-.479.757-.748 1.325-.748.677 0 1.115.458 1.115 1.245 0 1.166-.518 1.903-2.729 4.543v.468h3.377l.08-.498h-2.83c2.013-2.38 2.67-3.237 2.67-4.532 0-.987-.617-1.704-1.663-1.704zm5.002 2.42c-.648 0-1.156.37-1.524.967.05-1.773.627-2.919 1.613-2.919.34 0 .608.1.877.3l.249-.38a1.79 1.79 0 0 0-1.126-.388c-1.344 0-2.171 1.385-2.171 3.756 0 1.793.518 3.088 1.912 3.088 1.017 0 1.764-.827 1.764-2.341 0-1.425-.728-2.082-1.594-2.082zm-.17 3.955c-.946 0-1.324-.856-1.354-2.39.348-.668.846-1.106 1.444-1.106.647 0 1.116.468 1.116 1.644 0 1.135-.409 1.852-1.206 1.852zM80.125-59.412H75.9l-.07.518h1.803l-.886 6.305h.578l.886-6.305h1.773l.14-.518zM82.126-57.908c-1.853 0-2.55 2.022-2.55 3.536 0 1.165.537 1.893 1.464 1.893.627 0 1.106-.38 1.474-.907-.02.568.22.797.608.907l.179-.399c-.309-.15-.309-.379-.24-.847l.539-3.785c-.439-.239-.887-.398-1.474-.398zm0 .458c.368 0 .637.08.876.21l-.458 3.227c-.398.637-.837 1.065-1.415 1.065-.627 0-.976-.488-.976-1.434 0-1.315.548-3.068 1.973-3.068zm3.835-1.813c.25 0 .439-.19.439-.448 0-.21-.14-.369-.369-.369a.44.44 0 0 0-.448.448c0 .22.15.369.378.369zm.07 1.464h-.558l-.737 5.21h.558l.737-5.21zm2.969-.11c-1.016 0-1.674.648-1.674 1.425 0 .638.31 1.006 1.206 1.335.797.299 1.026.558 1.026 1.076 0 .677-.479 1.116-1.285 1.116-.588 0-.987-.22-1.335-.549l-.339.33c.369.378.877.697 1.664.697 1.115 0 1.882-.638 1.882-1.634 0-.717-.388-1.126-1.265-1.454-.737-.27-.986-.499-.986-.947 0-.568.448-.926 1.106-.926.468 0 .817.16 1.165.458l.3-.339A2.03 2.03 0 0 0 89-57.908zm5.15 0c-.707 0-1.275.539-1.713 1.326l.478-3.407-.558.07-1.036 7.331h.558l.439-3.168c.468-.916 1.065-1.673 1.733-1.673.488 0 .737.328.627 1.135l-.528 3.706h.558l.528-3.735c.14-.987-.269-1.584-1.086-1.584zm6.067-1.414l.07-.458h-2.172l-.07.458h2.172zm-2.082 6.844c1.833 0 2.45-2.082 2.45-3.447 0-1.235-.587-1.982-1.663-1.982-1.813 0-2.45 2.042-2.45 3.436 0 1.235.598 1.993 1.663 1.993zm.02-.478c-.717 0-1.106-.499-1.106-1.475 0-1.125.429-3.008 1.863-3.008.707 0 1.096.498 1.096 1.474 0 1.136-.438 3.009-1.852 3.009zM130.496-62.23l-.252-.023c-.027.141-.05.266-.05.396 0 .333.288.494.818.494.245 0 .467-.02.648-.047l.01-.272a3.243 3.243 0 0 1-.654.067c-.48 0-.567-.154-.567-.312 0-.087.016-.191.047-.302zm-.386-1.838l-.322-.027c.006.07.003.185-.01.279a6.19 6.19 0 0 1-.051.292c-.13.01-.252.016-.362.016-.121 0-.242-.003-.403-.023l.01.262c.121.006.242.013.39.013.093 0 .197-.003.308-.01-.027.12-.057.248-.087.359-.124.473-.363 1.154-.564 1.5l.295.101c.175-.37.403-1.06.524-1.537.04-.148.077-.302.107-.45.235-.027.48-.064.698-.114v-.265a4.965 4.965 0 0 1-.644.12c.02-.09.037-.177.05-.248.014-.067.04-.194.06-.268zm.315 1.024v.248c.208-.024.413-.034.625-.034.194 0 .392.017.563.04l.007-.254a5.326 5.326 0 0 0-.58-.03 6.74 6.74 0 0 0-.615.03zM133.2-63.77l-.326-.006c.02.08.023.221.023.298 0 .195.007.604.037.897.09.869.396 1.184.715 1.184.225 0 .43-.194.631-.765l-.211-.238c-.088.336-.245.684-.416.684-.239 0-.403-.372-.457-.933a8.451 8.451 0 0 1-.023-.795c0-.087.013-.245.026-.325zm1.748.095l-.262.09c.322.393.524 1.08.584 1.688l.269-.11c-.05-.568-.292-1.28-.591-1.668zM137.423-64.041l-.338-.004c.02.098.026.218.026.343 0 .352-.033 1.201-.033 1.698 0 .547.332.748.815.748.739 0 1.172-.423 1.403-.742l-.191-.228c-.242.35-.588.695-1.202.695-.318 0-.55-.131-.55-.5 0-.5.023-1.292.04-1.671.003-.111.014-.229.03-.34zM140.993-61.672c0-.154.181-.242.45-.242.08 0 .158.007.235.024 0 .07.003.134.003.185 0 .16-.097.261-.279.261-.258 0-.409-.1-.409-.228zm.923-1.839h-.292c.013.047.024.178.024.278v.534c0 .165.01.386.02.59a1.285 1.285 0 0 0-.198-.013c-.46 0-.715.178-.715.46 0 .295.278.45.674.45.37 0 .507-.195.507-.413 0-.05-.003-.118-.007-.191.282.107.527.292.702.47l.14-.235a2.103 2.103 0 0 0-.852-.477c-.01-.221-.023-.463-.023-.624v-.087c.228-.004.604-.024.839-.047l-.003-.235c-.242.03-.611.05-.836.053v-.238c0-.09.01-.225.02-.275zM146.361-62.544c0 .6-.573.922-1.39 1.023l.152.255c.87-.13 1.524-.54 1.524-1.268 0-.48-.356-.745-.833-.745-.385 0-.768.107-1.003.16-.1.024-.215.044-.309.05l.087.313c.081-.033.178-.07.282-.104.198-.057.527-.168.917-.168.345 0 .573.202.573.484zm-1.41-1.51l-.043.254c.38.067 1.057.135 1.43.158l.04-.258c-.329-.004-1.057-.07-1.426-.155zM137.364-57.267v-.46h-4.083c.163-1.083.173-2.09.182-2.837h-.48c-.009.728-.009 1.745-.181 2.837h-3.777v.46h3.7c-.402 1.908-1.38 3.94-3.872 5.004.124.086.268.249.345.374 2.55-1.141 3.565-3.25 3.968-5.243.738 2.405 2.06 4.313 3.988 5.233.086-.134.22-.326.345-.431-1.88-.815-3.202-2.675-3.892-4.937h3.757zm5.848 4.467v-3.297h3.154v-.45h-3.154v-2.819h3.47v-.45h-7.773v.45h3.834v6.566h-2.378v-4.649h-.47v4.649h-1.38v.45h8.503v-.45h-3.806zM175.086-57.42v-.46h-1.84c.047-.872.047-1.764.057-2.646h-.431c-.01.873-.01 1.774-.058 2.646h-1.811v.46h1.783c-.163 2.195-.633 4.208-2.071 5.358.115.067.268.192.345.278 1.218-.997 1.764-2.578 2.023-4.37.306 1.868.824 3.421 1.734 4.293.077-.124.221-.277.336-.364-1.073-.92-1.591-2.923-1.84-5.195h1.773zm2.808 4.812v-3.48h1.601v-.44h-1.6v-3.068h1.706v-.44h-4.18v.44h2.052v6.988h-1.083v-4.965h-.412v4.965h-.777v.45h4.505v-.45h-1.812zM186.787-52.533l2.207-5.116v-.414h-3.115v.438h2.613l-2.16 4.964.455.128zm5.587-3.586c-.582 0-1.02.231-1.37.805.015-1.434.51-2.39 1.426-2.39.326 0 .613.087.876.238l.2-.358a1.823 1.823 0 0 0-1.052-.32c-1.228 0-1.937 1.125-1.937 2.933 0 1.698.462 2.702 1.753 2.702.877 0 1.658-.67 1.658-1.92 0-1.172-.718-1.69-1.554-1.69zm-.112 3.172c-.844 0-1.219-.566-1.25-1.833.278-.518.724-.893 1.322-.893.638 0 1.076.303 1.076 1.251 0 .933-.39 1.475-1.148 1.475zm4.464-5.196c-.694 0-1.172.231-1.61.741l.366.295c.367-.415.67-.59 1.244-.59.653 0 1.052.407 1.052 1.068 0 .964-.407 1.546-2.55 3.602v.438h3.14l.07-.454h-2.653c1.849-1.698 2.526-2.542 2.526-3.578 0-.885-.613-1.522-1.585-1.522zm4.782 0c-.694 0-1.172.231-1.61.741l.367.295c.366-.415.669-.59 1.243-.59.653 0 1.052.407 1.052 1.068 0 .964-.407 1.546-2.55 3.602v.438h3.14l.07-.454h-2.653c1.85-1.698 2.526-2.542 2.526-3.578 0-.885-.613-1.522-1.585-1.522zM225.634-58.982c.69 1.476 2.176 2.262 4.217 2.559a1.69 1.69 0 0 1 .288-.431c-1.965-.211-3.383-.882-4.064-2.128h3.844v-.422h-4.208c.096-.374.163-.796.21-1.246h-.488c-.048.46-.106.872-.202 1.246h-3.757v.422h3.623c-.46 1.236-1.476 1.974-3.862 2.338.076.096.181.26.21.374 2.579-.422 3.643-1.265 4.141-2.712h.048zm.326 5.09h3.192v-.394h-3.192v-1.169h3.7v-.402h-7.889v.402h3.729v2.981h-2.07v-2.214h-.46v2.214h-1.659v.412h8.78v-.412h-4.131v-1.419zM238.336-53.011v-5.052h-.43l-1.594.988.223.358 1.29-.773v4.479h-1.354v.422h3.036v-.422h-1.171zm4.04-5.132c-.693 0-1.17.231-1.61.741l.367.295c.367-.415.67-.59 1.244-.59.653 0 1.051.407 1.051 1.068 0 .964-.406 1.546-2.55 3.602v.438h3.14l.072-.454h-2.654c1.849-1.698 2.526-2.542 2.526-3.578 0-.885-.613-1.522-1.585-1.522zm5.046 0c-1.132 0-1.737.996-1.737 2.813 0 1.825.605 2.82 1.737 2.82 1.14 0 1.737-.995 1.737-2.82 0-1.817-.598-2.813-1.737-2.813zm-1.172 2.813c0-1.673.462-2.383 1.172-2.383.326 0 .581.12.773.375l-1.77 3.53c-.119-.375-.175-.877-.175-1.522zm1.172 2.383a.903.903 0 0 1-.79-.415l1.77-3.562c.135.383.199.909.199 1.594 0 1.673-.462 2.383-1.18 2.383zm6.543-1.443h-.757v-1.625h-.446l-.032 1.625h-1.746l1.507-3.562-.407-.191-1.633 3.785v.382h2.279l-.008 1.387h.486v-1.387h.757v-.414zm2.758-3.753c-.694 0-1.172.231-1.61.741l.367.295c.366-.415.669-.59 1.243-.59.653 0 1.051.407 1.051 1.068 0 .964-.406 1.546-2.55 3.602v.438h3.14l.072-.454h-2.654c1.85-1.698 2.526-2.542 2.526-3.578 0-.885-.613-1.522-1.585-1.522zM276.054-58.063h-.518v3.896c0 .79-.494 1.172-1.235 1.172-.733 0-1.227-.383-1.227-1.172v-3.896h-.51v3.72c0 1.085.677 1.834 1.737 1.834 1.028 0 1.753-.725 1.753-1.833v-3.721zm3.276 1.21h-.494v1.57h-1.538v.439h1.538v1.562h.494v-1.562h1.554v-.438h-1.554v-1.57zm4.288-1.29c-.502 0-1.004.175-1.466.606l.286.326c.383-.35.702-.51 1.18-.51.613 0 1.107.351 1.107 1.004 0 .71-.557 1.028-1.1 1.028h-.31l-.064.43h.439c.669 0 1.203.263 1.203 1.108 0 .733-.478 1.211-1.307 1.211-.454 0-.933-.183-1.243-.55l-.367.28c.399.502 1.052.7 1.602.7 1.084 0 1.84-.708 1.84-1.665 0-.837-.629-1.307-1.226-1.338.541-.088 1.051-.614 1.051-1.267 0-.733-.637-1.363-1.625-1.363zm4.782 0c-.502 0-1.004.175-1.466.606l.287.326c.382-.35.7-.51 1.179-.51.613 0 1.107.351 1.107 1.004 0 .71-.557 1.028-1.1 1.028h-.31l-.064.43h.438c.67 0 1.204.263 1.204 1.108 0 .733-.478 1.211-1.307 1.211-.454 0-.932-.183-1.243-.55l-.367.28c.399.502 1.052.7 1.602.7 1.084 0 1.84-.708 1.84-1.665 0-.837-.629-1.307-1.226-1.338.541-.088 1.051-.614 1.051-1.267 0-.733-.637-1.363-1.625-1.363zm4.4 5.61l2.207-5.116v-.414h-3.116v.438h2.613l-2.159 4.964.454.128zm7.379-2.821c0-2.28-1.259-2.71-2.51-2.71h-1.1v5.475h1.188c1.068 0 2.422-.446 2.422-2.765zm-.55 0c0 1.92-.98 2.327-1.793 2.327h-.764v-4.59h.756c.774 0 1.801.223 1.801 2.263zM341.346-57.056v-.92h-3.863c.115-.949.124-1.869.134-2.646h-.968c-.01.767 0 1.688-.115 2.646h-3.566v.92h3.403c-.384 1.735-1.314 3.46-3.595 4.457.25.192.537.508.68.748 2.177-1.026 3.212-2.684 3.7-4.419.748 2.032 1.908 3.585 3.7 4.42.145-.27.441-.643.662-.835-1.811-.757-3.02-2.377-3.671-4.37h3.499zM349.973-55.752l-.115.029h-6.93v.412h6.278c-.633.326-1.476.632-2.272.843h-.402v2.013c0 .134-.039.182-.23.192-.201.019-.872.01-1.697-.01.067.135.144.297.173.412.987.01 1.553.01 1.85-.067.297-.067.374-.201.374-.517v-1.64c1.15-.306 2.453-.814 3.316-1.39l-.345-.277zm-.844-1.14h-4.725v-1.199h4.725v1.198zm-5.176-1.582v1.965h5.646v-1.965h-5.646zm2.991-1.132v-.977h-.47v.977h-3.93v.422h8.35v-.422h-3.95zm10.075 2.54c-.259-.641-.891-1.58-1.524-2.28l-.393.191c.614.7 1.246 1.668 1.486 2.32l.431-.23zm-1.13 1.966c-.73.326-1.477.661-2.167.958l-.125-5.971-.46.019.134 6.153c-.508.221-.968.422-1.342.575l.173.46a332.2 332.2 0 0 0 3.891-1.753l-.105-.441zm4.868 2.837c-.536-.71-1.61-1.86-2.511-2.742.7-1.293 1.074-2.932 1.323-5.06l-.489-.048c-.47 4.294-1.495 6.632-4.956 7.869.115.096.297.287.374.383 1.64-.651 2.742-1.524 3.509-2.74.872.89 1.869 1.983 2.357 2.673l.394-.335zM366.625-53.097v-2.79h2.857v-.862h-2.857v-2.348h3.269v-.873h-7.937v.873h3.729v6h-1.908v-4.37h-.92v4.37h-1.246v.863h8.579v-.863h-3.566zM373.412-52.129l.431-.364c-.67-.757-1.495-1.582-2.195-2.138l-.392.355c.69.546 1.514 1.361 2.156 2.147zM389-56.318v-.46h-3.767c.01-.24.019-.47.019-.7v-1.83h3.987v-.46h-8.348v.46h3.891v1.83c0 .23-.01.46-.019.7h-3.575v.46h3.518c-.211 1.486-1.045 2.99-3.95 4.055.096.096.23.287.288.393 2.799-1.035 3.758-2.502 4.064-3.997.7 2.051 1.975 3.403 4.026 3.997.067-.125.201-.307.316-.412-2.127-.547-3.412-1.956-4.016-4.036H389zm9.078-2.32l-.096.039h-3.106v-1.955h-.47v1.955h-3.565v.45h6.815c-1.073 1.572-3.067 3.537-4.84 4.62a3.159 3.159 0 0 1-.671-.968c.124-.249.24-.498.326-.709l-.432-.182c-.403 1.006-1.13 2.368-1.802 3.24l.432.24c.45-.652.89-1.42 1.246-2.11.891 1.62 2.415 1.966 4.639 1.966h2.281c.02-.135.115-.355.192-.46-.364.01-2.205.01-2.454.01-1.409 0-2.569-.145-3.412-.73 1.936-1.236 4.121-3.383 5.252-5.185l-.335-.22zm9.145 2.052h-3.527v-.959h3.527v.959zm0 1.351h-3.527v-.968h3.527v.968zm0 1.371h-3.527v-.987h3.527v.987zm-3.968-4.073v4.466h4.419v-4.466h-2.31c.086-.279.182-.595.258-.911h2.857v-.403h-1.898c.25-.335.518-.786.748-1.188l-.47-.134c-.163.383-.508.958-.757 1.322h-1.793l.317-.163c-.115-.316-.422-.795-.738-1.13l-.365.152c.298.346.595.815.719 1.141h-1.811v.403h2.703c-.058.287-.135.642-.202.91h-1.677zm-1.083-.882c-.336-.47-1.064-1.112-1.726-1.515l-.325.278c.642.422 1.38 1.064 1.696 1.534l.355-.297zm-.298 2.041h-1.916v.441h1.466v2.684a18.84 18.84 0 0 1-1.543 1.217l.268.47a53.126 53.126 0 0 0 1.515-1.304c.613.767 1.505 1.141 2.808 1.19.997.028 3 .008 3.988-.02.019-.153.096-.364.153-.47-1.035.058-3.163.086-4.15.048-1.18-.048-2.1-.403-2.589-1.16v-3.096zm10.938 4.266c-.94 0-1.16-.192-1.16-.863v-3.432l2.291-.7v3.634h.45v-3.768l2.483-.766c-.019 1.524-.086 2.55-.258 3.02-.144.402-.317.46-.547.46-.172 0-.67 0-1.044-.03.066.125.115.317.124.441.336.02.805.01 1.093-.01.316-.028.575-.172.757-.641.211-.556.307-1.764.336-3.557l.028-.095-.325-.154-.106.077-.048.048-2.492.757v-2.463h-.45v2.597l-2.291.71v-2.675h-.451v2.809l-1.812.546.125.412 1.687-.517v3.268c0 1.064.402 1.323 1.668 1.323h3.575c1.313 0 1.524-.508 1.659-2.051a1.37 1.37 0 0 1-.441-.192c-.125 1.447-.26 1.812-1.18 1.812h-3.67zM17.958-43.118h-.478l-1.793 1.225.259.398L17.4-42.5v6.007h.558v-6.624zm3.387-.11c-1.036 0-1.823.767-1.823 2.172 0 1.305.717 2.082 1.644 2.082.617 0 1.096-.339 1.434-.877-.1 1.773-1.046 2.59-2.59 3.118l.14.428c2.002-.667 3.028-1.633 3.028-4.243 0-1.703-.578-2.68-1.833-2.68zm-.09 3.796c-.697 0-1.165-.549-1.165-1.614 0-1.156.488-1.724 1.275-1.724.887 0 1.255.718 1.255 2.341-.368.628-.787.997-1.364.997zM25.555-43.228c-.707 0-1.255.309-1.723.947l.379.279c.368-.479.757-.748 1.325-.748.677 0 1.115.459 1.115 1.245 0 1.166-.518 1.903-2.73 4.543v.468H27.3l.08-.498h-2.83c2.012-2.38 2.67-3.237 2.67-4.532 0-.987-.617-1.704-1.664-1.704zm5.001 2.42c-.647 0-1.155.37-1.524.967.05-1.773.628-2.919 1.614-2.919.339 0 .608.1.877.3l.249-.38a1.79 1.79 0 0 0-1.126-.388c-1.345 0-2.172 1.385-2.172 3.756 0 1.793.519 3.088 1.913 3.088 1.016 0 1.763-.827 1.763-2.341 0-1.425-.727-2.082-1.594-2.082zm-.169 3.955c-.946 0-1.325-.856-1.355-2.39.35-.668.847-1.106 1.445-1.106.647 0 1.115.468 1.115 1.644 0 1.135-.408 1.852-1.205 1.852zM35.109-39.373h3.954v-.478H35.11v.478zM43.705-43.118h-.478l-1.793 1.225.259.398 1.454-1.006v6.007h.558v-6.624zm3.387-.11c-1.035 0-1.822.767-1.822 2.172 0 1.305.717 2.082 1.643 2.082.618 0 1.096-.339 1.435-.877-.1 1.773-1.046 2.59-2.59 3.118l.14.428c2.001-.667 3.027-1.633 3.027-4.243 0-1.703-.577-2.68-1.833-2.68zm-.089 3.796c-.697 0-1.166-.549-1.166-1.614 0-1.156.488-1.724 1.275-1.724.887 0 1.256.718 1.256 2.341-.369.628-.788.997-1.365.997zM52.502-40c.767-.419 1.106-.877 1.106-1.584 0-1.126-.827-1.644-1.694-1.644-.886 0-1.693.568-1.693 1.654 0 .737.319 1.165 1.056 1.524-.857.359-1.315.956-1.315 1.853 0 1.086.747 1.813 1.932 1.813 1.166 0 1.963-.698 1.963-1.833 0-.887-.428-1.385-1.355-1.783zm-1.733-1.564c0-.837.488-1.226 1.145-1.226.678 0 1.146.399 1.146 1.226 0 .617-.279 1.016-.926 1.404l-.28-.12c-.806-.338-1.085-.637-1.085-1.284zm1.136 4.711c-.817 0-1.375-.438-1.375-1.344 0-.807.339-1.315 1.145-1.674l.31.13c.946.388 1.304.717 1.304 1.534 0 .916-.558 1.354-1.385 1.354zM56.453-43.228c-1.036 0-1.823.767-1.823 2.172 0 1.305.718 2.082 1.644 2.082.618 0 1.096-.339 1.434-.877-.1 1.773-1.045 2.59-2.59 3.118l.14.428c2.002-.667 3.028-1.633 3.028-4.243 0-1.703-.578-2.68-1.833-2.68zm-.09 3.796c-.697 0-1.165-.549-1.165-1.614 0-1.156.488-1.724 1.275-1.724.887 0 1.255.718 1.255 2.341-.368.628-.787.997-1.364.997zM77.873-43.427c-1.295 0-2.062.946-2.062 1.863 0 .827.439 1.225 1.484 1.643.897.359 1.206.688 1.206 1.365 0 .867-.578 1.674-1.744 1.674-.697 0-1.125-.28-1.504-.708l-.378.33c.448.527 1.026.876 1.882.876 1.565 0 2.341-1.136 2.341-2.192 0-.966-.547-1.414-1.514-1.783-.886-.349-1.185-.627-1.185-1.225 0-.777.608-1.355 1.464-1.355.538 0 .927.19 1.335.618l.359-.339c-.419-.478-.937-.767-1.684-.767zm5.2 1.614c-.707 0-1.274.538-1.713 1.325l.478-3.407-.557.07-1.036 7.331h.557l.439-3.168c.468-.916 1.066-1.673 1.733-1.673.488 0 .737.329.628 1.135l-.528 3.706h.558l.527-3.735c.14-.987-.268-1.584-1.085-1.584zm6.068-1.415l.07-.458h-2.172l-.07.458h2.172zm-2.082 6.844c1.833 0 2.45-2.082 2.45-3.447 0-1.235-.587-1.982-1.663-1.982-1.813 0-2.45 2.042-2.45 3.436 0 1.236.597 1.993 1.663 1.993zm.02-.478c-.717 0-1.106-.499-1.106-1.475 0-1.125.428-3.008 1.863-3.008.707 0 1.096.498 1.096 1.474 0 1.136-.439 3.009-1.853 3.009zm9.374-4.842h-.538l-1.644 4.782-.378-4.782h-.648l-1.733 4.772-.319-4.772h-.548l.429 5.21h.737l1.683-4.682.359 4.682h.737l1.863-5.21zm2.94-.11c-1.853 0-2.55 2.023-2.55 3.537 0 1.166.537 1.893 1.464 1.893.627 0 1.105-.379 1.474-.907-.02.568.219.797.608.907l.179-.399c-.31-.15-.31-.378-.24-.847l.539-3.785c-.439-.239-.887-.398-1.475-.398zm0 .46c.368 0 .637.079.876.208l-.458 3.228c-.399.637-.837 1.065-1.415 1.065-.627 0-.976-.488-.976-1.434 0-1.315.548-3.068 1.972-3.068zM130.243-47.946l-.339-.004c.02.098.027.218.027.343 0 .352-.034 1.2-.034 1.698 0 .547.332.748.816.748.738 0 1.171-.423 1.403-.742l-.192-.228c-.241.35-.587.695-1.201.695-.319 0-.55-.131-.55-.5 0-.5.023-1.292.04-1.671.003-.111.013-.229.03-.34zM134.769-45.577c0-.154.181-.242.45-.242.08 0 .157.007.235.024 0 .07.003.134.003.185 0 .16-.097.261-.279.261-.258 0-.41-.1-.41-.228zm.923-1.84h-.292c.013.048.023.179.023.28v.533c0 .164.01.386.02.59a1.285 1.285 0 0 0-.197-.013c-.46 0-.715.178-.715.46 0 .295.278.45.674.45.37 0 .507-.195.507-.413 0-.05-.003-.118-.007-.191.282.107.527.292.702.47l.14-.235a2.103 2.103 0 0 0-.852-.477c-.01-.222-.023-.463-.023-.624v-.087c.228-.004.604-.024.839-.047l-.004-.235c-.241.03-.61.05-.835.053v-.238c0-.09.01-.225.02-.275zM141.097-46.45c0 .601-.574.923-1.39 1.024l.152.255c.869-.13 1.523-.54 1.523-1.269 0-.48-.356-.745-.832-.745-.386 0-.769.108-1.004.161-.1.024-.214.044-.308.05l.087.313c.08-.033.178-.07.282-.104.198-.057.527-.168.916-.168.346 0 .574.202.574.483zm-1.41-1.51l-.043.255c.38.067 1.057.135 1.43.158l.04-.258c-.329-.004-1.058-.07-1.427-.155zM144.452-47.748c0 .037-.007.16-.017.319-.175.026-.373.05-.484.056-.08.004-.144.007-.218.004l.027.279c.212-.03.504-.071.658-.091-.01.107-.017.218-.024.325-.167.266-.553.789-.741 1.024l.168.232c.16-.229.382-.548.547-.796 0 .054-.004.1-.004.134-.007.366-.007.537-.01.86 0 .053-.003.15-.01.197h.292a4.03 4.03 0 0 1-.017-.204c-.017-.299-.013-.504-.013-.809 0-.12.003-.255.01-.396.305-.285.661-.48 1.05-.48.443 0 .648.339.648.597.004.578-.507.843-1.074.923l.124.252c.732-.14 1.225-.493 1.222-1.168-.004-.52-.416-.849-.88-.849-.318 0-.7.118-1.07.423.003-.074.01-.148.017-.218.05-.084.107-.175.15-.235l-.1-.118c-.006.004-.01.004-.017.007.024-.235.05-.423.067-.507l-.315-.01c.014.084.014.175.014.249zM131.402-43.328v2.358h-1.773v-2.358h1.773zm-1.773 5.252v-2.473h1.773v2.473h-1.773zm2.205-5.684h-2.655v6.864h.45v-.748h2.205v-6.116zm4.735 4.534v2.492h-3.547v-2.492h3.547zm-3.988 3.422h.441v-.498h3.547v.46h.45v-3.815h-4.438v3.853zm-.325-8.195v.431h1.811c-.201 1.275-.68 2.483-2.09 3.087.106.076.23.24.298.335 1.495-.69 2.022-1.984 2.252-3.422h2.138c-.106 1.792-.22 2.492-.393 2.674-.077.077-.154.096-.316.096-.145 0-.576-.01-1.036-.048a.904.904 0 0 1 .134.432c.432.028.853.038 1.055.019.249-.01.393-.067.536-.211.25-.268.355-1.026.48-3.163.01-.077.01-.23.01-.23h-4.88zm8.675.44c.652-.133 1.246-.277 1.706-.46l-.326-.364c-.824.336-2.406.614-3.69.786.058.115.115.26.144.374a43.28 43.28 0 0 0 1.706-.25v1.803h-1.965v.441h1.85c-.47 1.294-1.342 2.741-2.1 3.508.097.086.221.278.279.403.68-.71 1.418-1.956 1.936-3.173v4.678h.46v-4.573c.441.547 1.14 1.438 1.38 1.802l.307-.364c-.24-.326-1.361-1.639-1.687-1.993v-.288h1.83v-.44h-1.83v-1.89zm2.655 6.107v-5.694h2.483v5.694h-2.483zm-.45-6.145v7.4h.45v-.814h2.483v.747h.47v-7.333h-3.403zM174.492-39.35v2.569h-1.131v-2.57h1.13zm-1.505 3.661h.374v-.7h1.13v.662h.384v-4.007h-1.888v4.045zm-1.572-2.358v-2.617h.805v2.617h-.805zm.805-5.464v2.426h-.805v-2.426h.805zm2.79-.632h-2.244v.393h.758c-.067 1.352-.278 2.713-.94 3.46v-3.661h-1.533v7.189h.364v-.844h1.17v-2.617c.086.058.2.154.258.23.748-.824.978-2.252 1.064-3.757h.71c-.077 2.08-.154 2.828-.278 3-.058.086-.106.096-.192.096-.096 0-.278 0-.499-.029.048.115.086.278.096.393.173.02.374.01.508 0 .182-.01.297-.057.403-.191.191-.25.268-1.026.354-3.451v-.211zm2.242-.307c-.46.336-1.342.652-2.099.863.048.096.125.25.144.345.316-.086.642-.182.968-.288v1.726h-1.064v.44h.968c-.22 1.228-.69 2.742-1.121 3.509.086.096.21.268.268.393.345-.652.7-1.744.949-2.809v4.554h.393v-4.39c.24.46.537 1.073.652 1.35l.268-.325a35.666 35.666 0 0 0-.92-1.64v-.641h.834v-.441h-.834v-1.87c.355-.133.68-.287.949-.45l-.355-.326zm.825 7.093v-5.914h1.006v5.914h-1.006zm-.384-6.355v7.736h.384v-.94h1.006v.786h.393v-7.582h-1.783zM186.787-36.438l2.207-5.116v-.414h-3.115v.438h2.613l-2.16 4.964.455.128zm5.587-3.586c-.582 0-1.02.231-1.37.805.015-1.434.51-2.39 1.426-2.39.326 0 .613.087.876.238l.2-.358a1.823 1.823 0 0 0-1.052-.319c-1.228 0-1.937 1.124-1.937 2.932 0 1.698.462 2.702 1.753 2.702.877 0 1.658-.67 1.658-1.92 0-1.172-.718-1.69-1.554-1.69zm-.112 3.172c-.844 0-1.219-.566-1.25-1.833.278-.518.724-.893 1.322-.893.638 0 1.076.303 1.076 1.251 0 .933-.39 1.475-1.148 1.475zm4.464-5.196c-.694 0-1.172.231-1.61.741l.366.295c.367-.414.67-.59 1.244-.59.653 0 1.052.407 1.052 1.068 0 .964-.407 1.546-2.55 3.602v.438h3.14l.07-.454h-2.653c1.849-1.698 2.526-2.542 2.526-3.578 0-.885-.613-1.522-1.585-1.522zm4.79 0c-.502 0-1.004.175-1.466.606l.286.326c.383-.35.702-.51 1.18-.51.613 0 1.107.351 1.107 1.005 0 .709-.558 1.027-1.1 1.027h-.31l-.064.43h.438c.67 0 1.203.263 1.203 1.108 0 .733-.477 1.211-1.306 1.211-.454 0-.933-.183-1.243-.55l-.367.28c.399.502 1.052.7 1.602.7 1.084 0 1.84-.708 1.84-1.665 0-.836-.629-1.306-1.227-1.338.542-.088 1.052-.614 1.052-1.267 0-.733-.637-1.363-1.625-1.363zM223.976-43.807v1.063h-1.783v-1.063h1.783zm-1.783 2.568v-1.121h1.783v1.121h-1.783zm0 .393h2.214V-44.2h-2.636v3.92h.422v-.565zm1.716 1.525c.613-.087 1.169-.192 1.61-.326l-.393-.279c-.795.24-2.387.413-3.69.499.057.096.105.24.124.326a34.057 34.057 0 0 0 1.898-.163v.767h-2.147v.383h1.898c-.537.623-1.39 1.246-2.06 1.572.066.096.172.268.21.384.7-.355 1.534-1.017 2.1-1.697v2.157h.45v-1.831c.47.278 1.15.719 1.437.93l.26-.336a57.3 57.3 0 0 0-1.697-.997v-.182h1.83v-.383h-1.83v-.824zm1.677-1.496v-.949h3.441v.95h-3.44zm3.882.767v-2.09h-4.313v2.11h.431v-.413h3.441v.393h.441zm-.278.959v2.252h-2.693v-2.252h2.693zm-3.124 3.153h.43v-.48h2.694v.442h.45v-3.528h-3.574v3.566zm-1.208-8.291v.383h1.888c-.278.719-.882 1.17-2.138 1.428.087.077.202.24.25.336 1.37-.316 2.041-.863 2.338-1.764h2.042c-.096.633-.192.91-.307 1.016-.057.058-.143.067-.287.067-.134 0-.537-.01-.959-.048.048.106.106.26.115.355.403.029.796.038.988.038.23-.01.364-.048.498-.163.201-.163.307-.546.422-1.437.02-.077.028-.211.028-.211h-4.878zM238.336-36.916v-5.052h-.43l-1.594.988.223.359 1.29-.774v4.479h-1.354v.422h3.036v-.422h-1.171zm4.04-5.132c-.693 0-1.17.231-1.61.741l.367.295c.367-.414.67-.59 1.244-.59.653 0 1.051.407 1.051 1.068 0 .964-.406 1.546-2.55 3.602v.438h3.14l.072-.454h-2.654c1.849-1.698 2.526-2.542 2.526-3.578 0-.885-.613-1.522-1.585-1.522zm5.046 0c-1.132 0-1.737.996-1.737 2.813 0 1.825.605 2.82 1.737 2.82 1.14 0 1.737-.995 1.737-2.82 0-1.817-.598-2.813-1.737-2.813zm-1.172 2.813c0-1.673.462-2.383 1.172-2.383.326 0 .581.12.773.375l-1.77 3.53c-.119-.375-.175-.877-.175-1.522zm1.172 2.383a.903.903 0 0 1-.79-.415l1.77-3.562c.135.383.199.909.199 1.594 0 1.673-.462 2.383-1.18 2.383zm6.543-1.443h-.757v-1.625h-.446l-.032 1.625h-1.746l1.507-3.562-.407-.191-1.633 3.785v.382h2.279l-.008 1.387h.486v-1.387h.757v-.414zm2.766-3.753c-.502 0-1.004.175-1.466.606l.286.326c.383-.35.702-.51 1.18-.51.613 0 1.107.351 1.107 1.005 0 .709-.558 1.027-1.1 1.027h-.31l-.064.43h.438c.67 0 1.203.263 1.203 1.108 0 .733-.477 1.211-1.306 1.211-.454 0-.933-.183-1.243-.55l-.367.28c.399.502 1.052.7 1.602.7 1.084 0 1.84-.708 1.84-1.665 0-.836-.629-1.306-1.226-1.338.541-.088 1.051-.614 1.051-1.267 0-.733-.637-1.363-1.625-1.363zM276.054-41.968h-.518v3.896c0 .79-.494 1.172-1.235 1.172-.733 0-1.227-.383-1.227-1.172v-3.896h-.51v3.72c0 1.085.677 1.834 1.737 1.834 1.028 0 1.753-.725 1.753-1.833v-3.721zm3.276 1.21h-.494v1.57h-1.538v.439h1.538v1.562h.494v-1.562h1.554v-.438h-1.554v-1.57zm4.288-1.29c-.502 0-1.004.175-1.466.606l.286.326c.383-.35.702-.51 1.18-.51.613 0 1.107.351 1.107 1.005 0 .709-.557 1.027-1.1 1.027h-.31l-.064.43h.439c.669 0 1.203.263 1.203 1.108 0 .733-.478 1.211-1.307 1.211-.454 0-.933-.183-1.243-.55l-.367.28c.399.502 1.052.7 1.602.7 1.084 0 1.84-.708 1.84-1.665 0-.836-.629-1.306-1.226-1.338.541-.088 1.051-.614 1.051-1.267 0-.733-.637-1.363-1.625-1.363zm4.782 0c-.502 0-1.004.175-1.466.606l.287.326c.382-.35.7-.51 1.179-.51.613 0 1.107.351 1.107 1.005 0 .709-.557 1.027-1.1 1.027h-.31l-.064.43h.438c.67 0 1.204.263 1.204 1.108 0 .733-.478 1.211-1.307 1.211-.454 0-.932-.183-1.243-.55l-.367.28c.399.502 1.052.7 1.602.7 1.084 0 1.84-.708 1.84-1.665 0-.836-.629-1.306-1.226-1.338.541-.088 1.051-.614 1.051-1.267 0-.733-.637-1.363-1.625-1.363zm4.4 5.61l2.207-5.116v-.414h-3.116v.438h2.613l-2.159 4.964.454.128zm5.881-5.61c-1.211 0-2.279.964-2.279 2.813 0 1.833 1.036 2.82 2.319 2.82.765 0 1.267-.254 1.578-.557l-.287-.359c-.287.231-.67.447-1.299.447-.988 0-1.777-.622-1.777-2.351 0-1.769.845-2.343 1.8-2.343.415 0 .805.096 1.172.407l.311-.359c-.43-.335-.845-.518-1.538-.518zM339.802-39.389h-5.195v-2.022h5.195v2.022zm-5.195 2.53v-2.089h5.195v2.09h-5.195zm6.681-6.623v-.45h-8.3v.45h3.814a15.8 15.8 0 0 1-.335 1.63h-2.31v6.086h.45v-.651h5.195v.651h.47v-6.086h-3.355c.134-.48.278-1.093.403-1.63h3.968zm3.854 1.457c-.115 1.429-.383 2.598-.767 3.518a21.023 21.023 0 0 0-1.217-.91c.192-.777.402-1.697.604-2.608h1.38zm.192-.45l-.086.019h-1.39c.144-.69.278-1.37.393-1.965l-.45-.057c-.106.603-.25 1.303-.394 2.022h-1.025v.431h.93c-.26 1.237-.547 2.483-.786 3.317l.402.201.115-.46c.383.268.777.575 1.14.882-.44.901-1.025 1.524-1.706 1.917.106.096.23.268.288.374.719-.441 1.313-1.074 1.773-1.984.394.364.738.728.969 1.025l.287-.383c-.24-.307-.623-.68-1.054-1.064.45-1.064.747-2.454.872-4.237l-.278-.038zm3.364 5.981v-2.636h2.013v-.44h-2.013v-2.32h2.119v-.441h-2.119v-2.07h-.45v2.07h-1.351c.162-.508.306-1.045.421-1.601l-.45-.086c-.26 1.313-.69 2.587-1.323 3.431.124.058.326.182.421.25.298-.432.556-.96.777-1.554h1.505v2.32h-1.975v.441h1.975v2.636h-2.684v.441h5.502v-.441h-2.368zM359.387-38.89v1.907h-2.74v-1.907h2.74zm-3.594 3.144h.853v-.432h2.741v.393h.882v-3.9h-4.476v3.939zm-2.693-2.588v-1.994h1.236v1.994H353.1zm1.236-4.678v1.898H353.1v-1.898h1.236zm1.18-1.054v.805h1.427c-.153 1.102-.527 2.041-1.802 2.597v-3.153h-2.885v7.026h.844v-.738h2.041v-3.096c.182.144.403.45.499.642 1.514-.68 1.993-1.86 2.195-3.278h1.687c-.077 1.428-.163 2.003-.297 2.156-.087.087-.173.106-.317.106-.153 0-.527 0-.93-.038.144.23.25.575.26.824.43.01.853.01 1.083-.02.277-.028.45-.105.632-.306.24-.287.345-1.112.441-3.173.01-.124.01-.354.01-.354h-4.889zM364.517-43.415v2.09h-2.129v-2.09h2.129zm-2.129 4.736v-2.215h2.129v2.215h-2.129zm2.57.431v-5.598h-3.01v6.528h.44v-.93h2.57zm1.39-1.073c.057-.47.076-.93.076-1.352v-.604h3.029v1.956h-3.106zm3.105-4.295v1.908h-3.03v-1.908h3.03zm.45-.44h-3.93v3.373c0 1.524-.172 3.346-1.792 4.62.086.067.259.22.326.326 1.093-.872 1.572-2.022 1.773-3.153h3.173v2.367c0 .182-.058.23-.24.24-.172.01-.776.019-1.457 0 .077.134.154.335.182.46.834 0 1.342-.01 1.61-.077.27-.086.355-.258.355-.623v-7.534zm3.51 8.022l.43-.364c-.67-.757-1.495-1.582-2.194-2.138l-.393.355c.69.546 1.514 1.361 2.156 2.147zm15.01-6.93c-.114 1.131-.23 1.582-.373 1.735-.067.067-.144.077-.297.077-.134 0-.537 0-.94-.048.068.124.116.287.125.421.384.02.767.02.959.01.22 0 .364-.048.498-.182.211-.211.335-.767.48-2.205.009-.067.019-.22.019-.22h-2.435c.067-.345.115-.72.144-1.112h-.441a7.83 7.83 0 0 1-.144 1.112h-1.946v.412h1.84c-.306.94-.92 1.64-2.185 2.06a1.4 1.4 0 0 1 .25.336c1.39-.498 2.06-1.303 2.377-2.396h2.07zm-4.773 1.524v-.44h-1.207v-2.598h-.451v2.597h-1.265v.441h1.265v5.636h.45v-5.636h1.208zm1.055 2.013c.029-.335.048-.69.057-1.045h-.422c-.009.355-.028.71-.047 1.045h-1.084v.393h1.045c-.144 1.236-.479 2.31-1.303 2.962.086.057.22.201.287.287.892-.728 1.275-1.888 1.428-3.249h.988c-.087 1.898-.173 2.598-.317 2.76-.048.077-.115.096-.22.096-.115 0-.364 0-.652-.028a.862.862 0 0 1 .105.393c.26.019.528.019.681.009.192-.01.326-.067.441-.201.192-.25.278-.978.374-3.192.01-.077.01-.23.01-.23h-1.371zm4.6 0h-1.456c.029-.335.048-.69.057-1.054h-.431c-.01.364-.029.719-.058 1.054h-1.044v.393h1.006c-.144 1.256-.498 2.3-1.38 2.943.105.067.24.21.287.297.969-.71 1.361-1.85 1.524-3.24h1.074c-.067 1.898-.144 2.598-.278 2.751-.048.086-.115.096-.24.096-.115 0-.402 0-.719-.039.048.125.087.298.096.413.307.019.604.019.777.009.201-.01.326-.067.44-.201.192-.25.269-.978.346-3.192v-.23zM393.045-43.328a9.101 9.101 0 0 0 1.534-.422l-.594-.69c-.854.335-2.3.633-3.556.805.095.201.21.499.249.69.47-.057.978-.115 1.476-.201v1.428h-1.783v.824h1.562c-.402 1.132-1.092 2.358-1.792 3.058.163.23.374.575.47.825.565-.605 1.112-1.582 1.543-2.598v3.853h.891v-3.901c.374.508.815 1.121 1.007 1.466l.537-.728c-.221-.287-1.17-1.38-1.544-1.754v-.22h1.544v-.825h-1.544v-1.61zm2.713 5.52v-4.983h1.87v4.984h-1.87zm-.863-5.837v7.467h.863v-.776h1.87v.71h.91v-7.4h-3.643zM401.634-40.127v-.863h2.368v.863h-2.368zm0-2.07h2.368v.843h-2.368v-.843zm5.243.843h-2.425v-.843h2.425v.843zm0 1.227h-2.425v-.863h2.425v.863zm1.103 1.074h-3.528v-.7h2.886v-2.808h-6.154v2.808h2.818v.7h-3.431v3.249h.45v-2.837h2.981v1.227c-.872.038-1.668.067-2.272.086l.039.432c1.13-.049 2.818-.135 4.466-.221.135.21.25.422.317.604l.374-.173c-.183-.489-.681-1.188-1.17-1.687l-.354.154c.2.21.402.46.584.718l-1.534.068v-1.208h3.077v2.281c0 .115-.038.144-.172.154-.115 0-.537 0-1.093-.01.058.125.125.288.144.403.69 0 1.093-.01 1.303-.077.22-.077.269-.201.269-.46v-2.703zm-1.87-4.783v-.642h-.45v.642h-2.894v-.642h-.451v.642h-2.166v.421h2.166v.71h.45v-.71h2.895v.71h.45v-.71h2.253v-.421h-2.252zm7.814 3.067v-.422h-1.707v-1.524h1.927v-.431h-1.927v-1.332h-.45v1.332h-2.08v.431h2.08v1.524h-1.907v.422h1.907c-.01.546-.038 1.073-.125 1.591h-2.147v.432h2.051c-.249.987-.776 1.897-1.878 2.645.124.077.287.23.354.326 1.199-.844 1.754-1.86 2.004-2.971h2.214v-.432h-2.138c.087-.518.106-1.045.115-1.591h1.707zm3.834-3.202l-.077.03h-3.029v8.147h.45v-7.717h2.34c-.393.796-.959 1.831-1.506 2.723 1.228.891 1.61 1.62 1.61 2.272 0 .364-.076.68-.325.814a1.418 1.418 0 0 1-.518.135c-.24.019-.603.009-.968-.03.086.135.144.326.154.442.306.029.68.019.968 0a1.69 1.69 0 0 0 .652-.192c.345-.211.479-.633.47-1.14 0-.71-.336-1.477-1.544-2.368.556-.901 1.17-1.994 1.63-2.895l-.307-.22zM17.728-27.023h-.478l-1.793 1.225.259.398 1.454-1.006v6.007h.558v-6.624zm3.387-.11c-1.036 0-1.823.767-1.823 2.172 0 1.305.717 2.082 1.644 2.082.617 0 1.096-.34 1.434-.877-.1 1.773-1.046 2.59-2.59 3.118l.14.428c2.002-.667 3.028-1.633 3.028-4.243 0-1.703-.578-2.68-1.833-2.68zm-.09 3.796c-.697 0-1.165-.549-1.165-1.614 0-1.156.488-1.724 1.275-1.724.887 0 1.255.718 1.255 2.341-.368.628-.787.997-1.364.997zm5.5-.568c.767-.419 1.106-.877 1.106-1.584 0-1.126-.827-1.644-1.694-1.644-.886 0-1.693.568-1.693 1.654 0 .737.318 1.165 1.056 1.524-.857.359-1.315.956-1.315 1.853 0 1.086.747 1.813 1.932 1.813 1.165 0 1.963-.698 1.963-1.833 0-.887-.429-1.385-1.355-1.783zM24.79-25.47c0-.837.489-1.226 1.146-1.226.677 0 1.145.399 1.145 1.226 0 .617-.278 1.016-.926 1.404l-.279-.12c-.806-.338-1.086-.637-1.086-1.284zm1.136 4.711c-.817 0-1.375-.438-1.375-1.344 0-.807.34-1.315 1.146-1.674l.309.13c.946.388 1.305.717 1.305 1.534 0 .916-.558 1.354-1.385 1.354zM30.466-27.133c-1.036 0-1.823.767-1.823 2.172 0 1.305.717 2.082 1.644 2.082.617 0 1.095-.34 1.434-.877-.1 1.773-1.046 2.59-2.59 3.118l.14.428c2.002-.667 3.028-1.633 3.028-4.243 0-1.703-.578-2.68-1.833-2.68zm-.09 3.796c-.697 0-1.165-.549-1.165-1.614 0-1.156.488-1.724 1.275-1.724.886 0 1.255.718 1.255 2.341-.369.628-.787.997-1.365.997zM35.106-23.278h3.954v-.478h-3.954v.478zM43.224-27.133c-.707 0-1.255.309-1.723.947l.378.279c.37-.479.758-.748 1.325-.748.678 0 1.116.459 1.116 1.245 0 1.166-.518 1.903-2.73 4.543v.468h3.378l.08-.498h-2.83c2.012-2.38 2.67-3.237 2.67-4.532 0-.987-.618-1.704-1.664-1.704zm4.812 0c-1.235 0-1.893 1.106-1.893 3.417s.658 3.427 1.893 3.427c1.235 0 1.883-1.106 1.883-3.417 0-2.321-.648-3.427-1.883-3.427zm0 .468c.857 0 1.305.847 1.305 2.959s-.458 2.948-1.305 2.948-1.315-.846-1.315-2.958.468-2.949 1.315-2.949zM52.894-27.023h-.478l-1.793 1.225.259.398 1.454-1.006v6.007h.558v-6.624zm3.387-.11c-1.036 0-1.823.767-1.823 2.172 0 1.305.718 2.082 1.644 2.082.618 0 1.096-.34 1.434-.877-.1 1.773-1.046 2.59-2.59 3.118l.14.428c2.002-.667 3.028-1.633 3.028-4.243 0-1.703-.578-2.68-1.833-2.68zm-.09 3.796c-.697 0-1.165-.549-1.165-1.614 0-1.156.488-1.724 1.275-1.724.887 0 1.255.718 1.255 2.341-.368.628-.787.997-1.364.997zM77.171-20.399l.468-3.347h2.89l-.479 3.347h.578l.966-6.823h-.578l-.418 2.988H77.71l.419-2.988h-.578l-.957 6.823h.578zm9.205-4.094c0-.697-.498-1.225-1.394-1.225-1.754 0-2.5 1.902-2.5 3.456 0 1.256.617 1.973 1.663 1.973.618 0 1.126-.23 1.624-.618l-.25-.379c-.448.33-.826.509-1.334.509-.667 0-1.126-.429-1.126-1.495v-.179c1.933-.17 3.317-.687 3.317-2.042zm-1.424-.757c.597 0 .846.339.846.777 0 .976-.936 1.424-2.699 1.574.15-1.146.707-2.351 1.853-2.351zm3.467-1.823c.25 0 .438-.19.438-.448 0-.21-.14-.369-.368-.369a.44.44 0 0 0-.449.449c0 .219.15.368.38.368zm.07 1.464h-.558l-.737 5.21h.558l.737-5.21zm2.968-.11c-1.015 0-1.673.648-1.673 1.425 0 .638.309 1.006 1.205 1.335.797.299 1.026.558 1.026 1.076 0 .677-.478 1.116-1.285 1.116-.588 0-.986-.22-1.334-.549l-.34.33c.37.378.877.697 1.664.697 1.116 0 1.883-.638 1.883-1.634 0-.717-.388-1.126-1.265-1.454-.737-.27-.986-.499-.986-.947 0-.567.448-.926 1.105-.926.469 0 .817.16 1.166.458l.299-.339a2.03 2.03 0 0 0-1.465-.587zm6.157 1.226c0-.697-.498-1.225-1.394-1.225-1.754 0-2.5 1.902-2.5 3.456 0 1.256.617 1.973 1.663 1.973.617 0 1.125-.23 1.624-.618l-.25-.379c-.448.33-.826.509-1.335.509-.667 0-1.125-.429-1.125-1.495v-.179c1.932-.17 3.317-.687 3.317-2.042zm-1.424-.757c.597 0 .846.339.846.777 0 .976-.936 1.424-2.7 1.574.15-1.146.708-2.351 1.854-2.351zm3.467-1.823c.249 0 .438-.19.438-.448 0-.21-.14-.369-.368-.369a.44.44 0 0 0-.449.449c0 .219.15.368.379.368zm.07 1.464h-.558l-.737 5.21h.557l.737-5.21zM129.29-30.157l.248.252c.05-.07.128-.171.198-.258.171-.208.443-.577.601-.776.117-.14.181-.164.326-.01.154.175.409.497.627.745.232.262.537.604.789.843l.215-.245a12.294 12.294 0 0 1-.84-.843c-.214-.231-.47-.563-.674-.768-.221-.225-.393-.191-.59.037-.199.238-.48.62-.658.802-.09.09-.158.158-.242.221zM134.638-31.58l-.326-.006c.02.08.024.221.024.298 0 .195.007.604.037.897.09.869.396 1.184.715 1.184.225 0 .43-.194.63-.765l-.21-.238c-.088.335-.246.684-.417.684-.238 0-.403-.372-.456-.933a8.451 8.451 0 0 1-.024-.795c0-.087.014-.245.027-.326zm1.748.095l-.261.09c.322.393.523 1.08.584 1.688l.268-.11c-.05-.568-.292-1.28-.59-1.668zM137.431-23.648h-4.045v-3.604h3.518v-.451h-7.476v.45h3.498v3.605h-3.987v.46h3.987v3.489h.46v-3.49h4.045v-.46zm-7.275-2.924c.403.748.815 1.735.968 2.33l.432-.164c-.154-.584-.585-1.552-.997-2.29l-.403.124zm4.831 2.387c.403-.614.892-1.62 1.256-2.406l-.48-.163c-.268.728-.766 1.793-1.169 2.425l.393.144zM141.171-31.825h-.285c.01.057.017.178.017.252v.48c-.36.03-.748.067-1.077.098.003-.179.003-.343.003-.454 0-.104.007-.194.013-.271h-.292c.014.104.02.18.02.285 0 .057 0 .241-.003.466l-.379.034c-.12.013-.245.02-.35.02l.031.275.34-.047.358-.04c0 .336 0 .691.003.836.017.533.091.711.866.711.34 0 .749-.03.974-.054l.01-.285c-.218.04-.635.08-.997.08-.58 0-.587-.127-.597-.49-.004-.13-.004-.48 0-.825.335-.034.728-.074 1.074-.1-.007.21-.02.439-.037.55-.01.077-.047.09-.128.09-.077 0-.221-.016-.335-.043l-.007.231c.09.017.322.047.443.047.154 0 .228-.043.258-.191.034-.158.04-.456.047-.701.148-.01.275-.017.376-.02.084 0 .212-.004.265 0v-.262a8.47 8.47 0 0 0-.262.016c-.11.007-.238.014-.372.024.003-.148.003-.316.007-.47.003-.07.006-.185.016-.242zM144.224-31.58l-.326-.006c.02.08.024.221.024.298 0 .195.007.604.037.897.09.869.396 1.184.715 1.184.225 0 .43-.194.63-.765l-.21-.238c-.088.335-.246.684-.417.684-.238 0-.403-.372-.456-.933a8.451 8.451 0 0 1-.024-.795c0-.087.014-.245.027-.326zm1.748.095l-.261.09c.322.393.523 1.08.584 1.688l.268-.11c-.05-.568-.292-1.28-.59-1.668zM146.51-27.128c-.393-.345-1.17-.815-1.812-1.131l-.268.297c.642.316 1.418.815 1.811 1.16l.269-.326zm-.566 1.83c-.355 1.075-.834 2.033-1.428 2.848-.307-.997-.508-2.262-.623-3.738h3.124v-.451h-3.153a33.307 33.307 0 0 1-.048-1.725h-.47c.01.584.029 1.16.058 1.725h-4.083v2.617c0 1.246-.096 2.876-.92 4.064a1.9 1.9 0 0 1 .373.297c.873-1.236 1.016-3.048 1.016-4.352v-.354h2.042c-.048 1.926-.096 2.616-.24 2.77-.057.076-.163.096-.306.096-.164 0-.633 0-1.132-.048.077.115.125.297.144.431.48.029.92.038 1.17.02.249-.01.393-.068.517-.212.192-.24.25-1.025.297-3.259 0-.067.01-.23.01-.23h-2.502v-1.39h3.643c.124 1.62.364 3.058.728 4.17a7.9 7.9 0 0 1-2.368 1.898c.106.086.269.268.336.364a9.063 9.063 0 0 0 2.214-1.773c.45 1.102 1.054 1.764 1.821 1.764.642 0 .825-.499.93-2.042a1.248 1.248 0 0 1-.403-.24c-.066 1.304-.191 1.812-.498 1.812-.594 0-1.112-.623-1.514-1.697.728-.91 1.313-1.993 1.725-3.25l-.46-.114zM179.486-27.013c-.173-.335-.566-.795-.92-1.14l-.317.172c.355.345.748.834.91 1.16l.327-.192zm-4.4 3.91v-.45h-1.85v-3.786h1.735v-.43h-3.853v.43h1.697v3.787h-1.985v.45h1.984v3.499h.422v-3.5h1.85zm-3.652-3.45c.24.806.431 1.84.46 2.454l.384-.086c-.03-.594-.22-1.62-.48-2.416l-.364.048zm2.607 2.445c.23-.643.499-1.688.69-2.493l-.412-.115c-.134.738-.402 1.85-.623 2.493l.345.115zm4.889-1.083a11.447 11.447 0 0 1-.633 2.434 43.949 43.949 0 0 1-.307-3.374h1.563v-.422h-1.591c-.03-.623-.048-1.246-.067-1.85h-.393c.019.614.047 1.237.086 1.85h-2.109v2.195c0 1.333-.086 3.202-.843 4.582.095.029.278.125.354.192.758-1.4.882-3.384.882-4.764h1.016c-.048 1.907-.096 2.569-.192 2.722-.047.077-.095.096-.191.096s-.288-.01-.527-.029c.057.106.086.278.095.403.202.01.432.019.556 0 .192-.01.307-.067.393-.192.173-.23.202-.949.259-3.192v-.22h-1.409v-1.37h1.735c.086 1.475.22 2.904.412 4.025-.393.834-.891 1.524-1.466 2.042.096.067.23.162.306.23.49-.451.911-1.007 1.275-1.659.22.988.508 1.649.892 1.764.45.182.71-.297.853-1.697a1.108 1.108 0 0 1-.316-.2c-.087.939-.24 1.562-.374 1.523-.317-.077-.576-.824-.777-1.936.422-.882.738-1.908.93-3.038l-.412-.115zM189.01-24.574c0-.997-.876-1.379-1.585-1.379-.63 0-1.586.382-1.586 1.41 0 .614.31.988.9 1.243-.685.32-1.131.758-1.131 1.443 0 .876.677 1.538 1.8 1.538 1.092 0 1.833-.63 1.833-1.546 0-.686-.502-1.187-1.21-1.458.613-.335.98-.71.98-1.251zm-2.677.04c0-.622.406-.997 1.092-.997s1.091.375 1.091.973c0 .55-.303.812-.852 1.107-.805-.255-1.331-.382-1.331-1.084zm2.366 2.685c0 .63-.47 1.092-1.298 1.092s-1.251-.399-1.251-1.076c0-.757.462-1.116.956-1.323.9.31 1.593.51 1.593 1.307zm3.253-4.104c-.503 0-1.004.175-1.467.606l.287.326c.383-.35.702-.51 1.18-.51.613 0 1.107.351 1.107 1.005 0 .709-.558 1.027-1.1 1.027h-.31l-.064.43h.438c.67 0 1.203.263 1.203 1.108 0 .733-.477 1.211-1.306 1.211-.455 0-.933-.183-1.243-.55l-.367.28c.399.502 1.052.7 1.602.7 1.083 0 1.84-.708 1.84-1.665 0-.836-.63-1.306-1.227-1.338.542-.088 1.052-.614 1.052-1.267 0-.733-.637-1.363-1.625-1.363zm4.774 0c-.694 0-1.172.231-1.61.741l.366.295c.367-.414.67-.59 1.244-.59.653 0 1.052.407 1.052 1.068 0 .964-.407 1.546-2.55 3.602v.438h3.14l.07-.454h-2.653c1.849-1.698 2.526-2.542 2.526-3.578 0-.885-.613-1.522-1.585-1.522zm4.79 0c-.502 0-1.004.175-1.466.606l.286.326c.383-.35.702-.51 1.18-.51.613 0 1.107.351 1.107 1.005 0 .709-.558 1.027-1.1 1.027h-.31l-.064.43h.438c.67 0 1.203.263 1.203 1.108 0 .733-.477 1.211-1.306 1.211-.454 0-.933-.183-1.243-.55l-.367.28c.399.502 1.052.7 1.602.7 1.084 0 1.84-.708 1.84-1.665 0-.836-.629-1.306-1.227-1.338.542-.088 1.052-.614 1.052-1.267 0-.733-.637-1.363-1.625-1.363zM225.442-24.214h.48v-1.275h4.131v-.402h-4.131v-1.745h3.575v-.402h-7.63v.402h3.575v1.745h-4.083v.402h4.083v1.275zm-2.607-3.096c.355.374.729.891.891 1.237l.432-.135c-.163-.354-.556-.872-.9-1.227l-.423.125zm4.716 1.275c.365-.345.748-.834 1.083-1.285l-.47-.115c-.24.365-.69.94-1.035 1.275l.422.125zm1.658 2.54c-.402-.22-1.13-.489-1.677-.642l-.326.22c.575.173 1.304.46 1.668.661l.335-.239zm-.354 1.035c-.384.518-.92.978-1.534 1.371-.297-.422-.537-.987-.68-1.706h3.24v-.374h-3.298a11.373 11.373 0 0 1-.086-.882h-.45c.019.307.047.604.085.882h-4.083v1.342c0 .651-.124 1.447-.94 2.032.126.048.327.144.413.22.767-.556.949-1.38.978-2.08h2.434c-.028.69-.076.959-.163 1.055-.067.057-.143.067-.325.067-.144 0-.681-.01-1.218-.048.067.105.115.25.125.355.527.038 1.035.038 1.265.028.259-.01.393-.048.518-.163.153-.163.22-.527.259-1.466.009-.067.009-.201.009-.201H222.5v-.767h3.69c.153.805.403 1.447.748 1.936-.652.374-1.37.67-2.08.9.115.078.268.24.345.327.652-.25 1.332-.556 1.974-.92.537.604 1.246.9 2.08.9.566 0 .796-.181.892-1.12a1.23 1.23 0 0 1-.403-.202c-.048.776-.144.891-.47.891-.66 0-1.245-.22-1.715-.71.67-.43 1.275-.938 1.706-1.513l-.412-.154zM238.336-20.821v-5.052h-.43l-1.594.988.223.359 1.29-.774v4.479h-1.354v.422h3.036v-.422h-1.171zm4.04-5.132c-.693 0-1.17.231-1.61.741l.367.295c.367-.414.67-.59 1.244-.59.653 0 1.051.407 1.051 1.068 0 .964-.406 1.546-2.55 3.602v.438h3.14l.072-.454h-2.654c1.849-1.698 2.526-2.542 2.526-3.578 0-.885-.613-1.522-1.585-1.522zm5.046 0c-1.132 0-1.737.996-1.737 2.813 0 1.825.605 2.82 1.737 2.82 1.14 0 1.737-.995 1.737-2.82 0-1.817-.598-2.813-1.737-2.813zm-1.172 2.813c0-1.673.462-2.383 1.172-2.383.326 0 .581.12.773.375l-1.77 3.53c-.119-.375-.175-.877-.175-1.522zm1.172 2.383a.903.903 0 0 1-.79-.415l1.77-3.562c.135.383.199.909.199 1.594 0 1.673-.462 2.383-1.18 2.383zm6.543-1.443h-.757v-1.625h-.446l-.032 1.625h-1.746l1.507-3.562-.407-.191-1.633 3.785v.382h2.279l-.008 1.387h.486v-1.387h.757v-.414zm4.782 0h-.757v-1.625h-.446l-.032 1.625h-1.746l1.507-3.562-.407-.191-1.633 3.785v.382h2.279l-.008 1.387h.486v-1.387h.757v-.414zM276.054-25.873h-.518v3.896c0 .79-.494 1.172-1.235 1.172-.733 0-1.227-.383-1.227-1.172v-3.896h-.51v3.72c0 1.085.677 1.834 1.737 1.834 1.028 0 1.753-.725 1.753-1.833v-3.721zm3.276 1.21h-.494v1.57h-1.538v.439h1.538v1.562h.494v-1.562h1.554v-.438h-1.554v-1.57zm4.288-1.29c-.502 0-1.004.175-1.466.606l.286.326c.383-.35.702-.51 1.18-.51.613 0 1.107.351 1.107 1.005 0 .709-.557 1.027-1.1 1.027h-.31l-.064.43h.439c.669 0 1.203.263 1.203 1.108 0 .733-.478 1.211-1.307 1.211-.454 0-.933-.183-1.243-.55l-.367.28c.399.502 1.052.7 1.602.7 1.084 0 1.84-.708 1.84-1.665 0-.836-.629-1.306-1.226-1.338.541-.088 1.051-.614 1.051-1.267 0-.733-.637-1.363-1.625-1.363zm4.782 0c-.502 0-1.004.175-1.466.606l.287.326c.382-.35.7-.51 1.179-.51.613 0 1.107.351 1.107 1.005 0 .709-.557 1.027-1.1 1.027h-.31l-.064.43h.438c.67 0 1.204.263 1.204 1.108 0 .733-.478 1.211-1.307 1.211-.454 0-.932-.183-1.243-.55l-.367.28c.399.502 1.052.7 1.602.7 1.084 0 1.84-.708 1.84-1.665 0-.836-.629-1.306-1.226-1.338.541-.088 1.051-.614 1.051-1.267 0-.733-.637-1.363-1.625-1.363zm4.4 5.61l2.207-5.116v-.414h-3.116v.438h2.613l-2.159 4.964.454.128zm7.251-1.602c0-.948-.645-1.25-1.258-1.355.518-.111 1.02-.477 1.02-1.203 0-1.075-.98-1.37-1.889-1.37h-1.235v5.474h1.37c.957 0 1.992-.374 1.992-1.546zm-.764-2.542c0 .686-.399.98-1.068.98h-1.02v-1.92h.94c.693 0 1.147.255 1.147.94zm.223 2.59c0 .869-.733 1.036-1.275 1.036h-1.036v-2.16h1.052c.67 0 1.259.215 1.259 1.124zM364.89-26.716h-3.547v-1.658h-.47v1.658h-3.546v7.036h.46v-6.585h3.077c-.048 1.313-.403 2.99-2.674 4.237.105.076.259.239.316.335 1.438-.824 2.147-1.812 2.502-2.78.987.882 2.109 2.004 2.655 2.713l.383-.297c-.623-.748-1.878-1.956-2.914-2.847.135-.47.182-.93.202-1.361h3.105v5.837c0 .173-.048.23-.24.24-.191.01-.852.019-1.6-.01.067.144.144.345.173.489.862 0 1.447 0 1.744-.086.278-.086.374-.259.374-.633v-6.288zM374.984-23.802h-3.844v-3.144h3.298v-.872h-7.515v.872h3.297v3.144h-3.796v.901h3.796v3.26h.92v-3.26h3.844v-.9zm-7.438-2.501c.345.67.67 1.562.795 2.108l.853-.287c-.124-.556-.489-1.41-.843-2.07l-.805.249zm5.281 2.118c.355-.537.777-1.4 1.122-2.147l-.95-.26a12.87 12.87 0 0 1-.939 2.158l.767.249zM380.084-26.438c-.192 1.112-.498 2.08-.892 2.914-.498-.46-1.313-1.025-2.041-1.447.297-.441.556-.94.795-1.467h2.138zm2.435-1.945h-.47v3.9a8.916 8.916 0 0 1-1.218-1.667l-.364.153c.048-.259.106-.527.144-.805l-.297-.096-.096.02h-2.09c.183-.451.346-.93.48-1.42l-.45-.095c-.47 1.735-1.276 3.307-2.349 4.304.125.067.326.21.402.297.25-.25.48-.527.71-.834.747.44 1.581 1.045 2.07 1.515-.757 1.408-1.792 2.396-2.99 3.028.115.077.278.24.364.345 1.888-1.044 3.412-3 4.102-6.25.403.73.959 1.458 1.582 2.1v4.16h.47v-3.7c.652.604 1.351 1.112 2.032 1.457.076-.125.21-.288.325-.374-.795-.364-1.629-.958-2.357-1.658v-4.38zM392.728-25.393c-.278.882-.633 1.677-1.093 2.387-.22-.853-.374-1.889-.47-3.03h3.01v-.871h-.978l.46-.49c-.373-.325-1.092-.766-1.658-1.063l-.537.546c.508.278 1.131.69 1.505 1.007h-1.85c-.028-.499-.038-1.007-.028-1.524h-.94c0 .508.02 1.025.048 1.524h-3.94v2.712c0 1.237-.066 2.885-.833 4.036.201.115.594.43.747.613.844-1.236 1.007-3.153 1.016-4.515h1.534c-.029 1.448-.086 1.994-.192 2.128-.067.087-.163.115-.297.115-.153 0-.527-.01-.92-.048.134.23.22.575.24.835.46.019.891.019 1.13-.02.26-.029.442-.105.614-.306.201-.269.25-1.093.297-3.173v-.345h-2.406v-1.16h3.068c.115 1.495.335 2.866.68 3.95a7.569 7.569 0 0 1-2.09 1.676c.202.163.518.537.652.729a8.809 8.809 0 0 0 1.812-1.466c.431.9.987 1.437 1.687 1.437.786 0 1.112-.45 1.256-2.137a2.34 2.34 0 0 1-.767-.499c-.058 1.237-.173 1.726-.422 1.726-.402 0-.776-.499-1.102-1.314.7-.92 1.265-2.003 1.668-3.24l-.901-.22zM17.245-11.038c-.707 0-1.255.309-1.723.946l.378.28c.37-.479.758-.748 1.325-.748.678 0 1.116.458 1.116 1.245 0 1.166-.518 1.903-2.73 4.543v.468h3.378l.08-.498h-2.83c2.012-2.38 2.67-3.237 2.67-4.532 0-.987-.618-1.704-1.664-1.704zm4.812 0c-1.235 0-1.893 1.106-1.893 3.417s.658 3.427 1.893 3.427c1.235 0 1.883-1.106 1.883-3.417 0-2.321-.648-3.427-1.883-3.427zm0 .468c.857 0 1.305.847 1.305 2.959s-.458 2.948-1.305 2.948-1.315-.846-1.315-2.958.468-2.949 1.315-2.949zM26.905-10.928h-.478l-1.793 1.225.259.398 1.454-1.006v6.007h.558v-6.624zm3.387-.11c-1.036 0-1.823.767-1.823 2.172 0 1.305.718 2.082 1.644 2.082.618 0 1.096-.34 1.435-.877-.1 1.773-1.046 2.59-2.59 3.118l.139.428c2.002-.667 3.028-1.633 3.028-4.243 0-1.704-.577-2.68-1.833-2.68zm-.09 3.796c-.697 0-1.165-.549-1.165-1.614 0-1.156.488-1.724 1.275-1.724.887 0 1.256.718 1.256 2.341-.37.628-.788.997-1.365.997zM35.1-7.183h3.955v-.478H35.1v.478zM81.354-9.573c0-.997-.617-1.554-1.952-1.554h-1.514l-.956 6.823h.577l.429-3.068h1.225l1.165 3.068h.618L79.72-7.462c1.175-.319 1.633-1.235 1.633-2.111zM78.007-7.85l.389-2.8h.986c.976 0 1.375.35 1.375 1.096 0 .777-.389 1.704-1.753 1.704h-.997zM85.866-8.398c0-.697-.498-1.225-1.394-1.225-1.753 0-2.5 1.902-2.5 3.456 0 1.255.617 1.973 1.663 1.973.618 0 1.126-.23 1.624-.618l-.25-.379c-.448.33-.826.509-1.334.509-.667 0-1.126-.429-1.126-1.495v-.179c1.933-.17 3.317-.687 3.317-2.042zm-1.424-.757c.598 0 .847.338.847.777 0 .976-.937 1.424-2.7 1.574.15-1.146.707-2.351 1.853-2.351zm3.467-1.823c.25 0 .438-.19.438-.448 0-.21-.139-.369-.368-.369a.44.44 0 0 0-.448.448c0 .22.15.369.378.369zm.07 1.464h-.558l-.737 5.21h.558l.737-5.21zm6.993 0h-.538L92.79-4.732l-.378-4.782h-.648l-1.733 4.772-.319-4.772h-.547l.428 5.21h.737l1.683-4.682.359 4.682h.737l1.863-5.21zm2.94-.11c-1.854 0-2.55 2.023-2.55 3.537 0 1.165.537 1.893 1.464 1.893.627 0 1.105-.38 1.474-.907-.02.568.219.797.608.907l.179-.399c-.31-.15-.31-.379-.24-.847l.539-3.785c-.439-.239-.887-.398-1.475-.398zm0 .46c.368 0 .637.079.876.208l-.458 3.228c-.399.637-.837 1.065-1.415 1.065-.627 0-.976-.488-.976-1.434 0-1.315.548-3.068 1.972-3.068zM130.085-15.558c0 .037-.006.16-.016.319-.175.03-.373.05-.484.056-.08.004-.144.007-.218.004l.027.275c.211-.03.507-.07.658-.09-.007.107-.017.221-.024.332-.168.262-.557.785-.745 1.02l.171.232c.161-.229.383-.548.547-.796 0 .054-.003.1-.003.134-.007.366-.007.537-.01.86 0 .053-.004.137-.01.198h.292a4.112 4.112 0 0 1-.017-.205c-.017-.299-.013-.504-.013-.809 0-.12.003-.255.01-.396.309-.329.714-.644.986-.644.172 0 .272.08.272.275 0 .329-.127.88-.127 1.252 0 .278.15.422.372.422.228 0 .44-.1.618-.278l-.044-.289c-.171.182-.346.279-.507.279-.12 0-.174-.094-.174-.205 0-.342.124-.92.124-1.255 0-.272-.154-.45-.466-.45-.34 0-.772.326-1.034.568.007-.068.01-.131.017-.195.05-.084.107-.175.15-.235l-.097-.118c-.006.004-.013.004-.02.007.024-.235.05-.423.067-.507l-.315-.01c.013.084.013.175.013.249zM134.638-15.484l-.326-.007c.02.08.024.221.024.298 0 .195.007.604.037.897.09.869.396 1.184.715 1.184.225 0 .43-.194.63-.765l-.21-.238c-.088.336-.246.684-.417.684-.238 0-.403-.372-.456-.933-.024-.278-.027-.584-.024-.795 0-.087.014-.245.027-.325zm1.748.094l-.261.09c.322.393.523 1.08.584 1.688l.268-.11c-.05-.568-.292-1.28-.59-1.668zM136.358-7.63h-6.7v.44h2.713v3.586h.46V-7.19h3.067v2.3c0 .125-.048.163-.192.173-.144.01-.661.01-1.275-.01.067.125.154.297.173.432.747 0 1.198 0 1.447-.077.24-.086.307-.23.307-.508V-7.63zm-5.214-1.783v.431h4.083v-.431h-4.083zm1.744-2.875c-.776 1.255-2.425 2.731-4.093 3.632.105.106.24.269.297.364 1.65-.939 3.26-2.377 4.045-3.536.92 1.226 2.646 2.636 4.141 3.46.077-.115.202-.288.317-.393-1.496-.757-3.25-2.176-4.266-3.527h-.441zM142.068-15.558c0 .037-.006.16-.016.319a6.13 6.13 0 0 1-.484.056c-.08.004-.144.007-.218.004l.027.279c.211-.03.503-.071.658-.091-.01.107-.017.218-.024.325-.168.266-.553.789-.741 1.024l.168.232c.16-.229.382-.548.546-.796 0 .054-.003.1-.003.134-.007.366-.007.537-.01.86 0 .053-.003.15-.01.198h.292a4.1 4.1 0 0 1-.017-.205c-.017-.299-.013-.504-.013-.809 0-.12.003-.255.01-.396.305-.285.661-.48 1.05-.48.443 0 .648.339.648.597.003.578-.507.843-1.074.923l.124.252c.732-.14 1.225-.493 1.222-1.168-.004-.52-.416-.849-.88-.849-.318 0-.7.118-1.07.423.003-.074.01-.148.017-.218.05-.084.107-.175.15-.235l-.1-.118c-.007.004-.01.004-.017.007.024-.235.05-.423.067-.507l-.315-.01c.013.084.013.175.013.249zM140.93-11.368c.653-.134 1.247-.278 1.707-.46l-.326-.365c-.824.336-2.406.614-3.69.786.057.115.115.26.144.374a43.29 43.29 0 0 0 1.706-.25v1.803h-1.965v.441h1.85c-.47 1.294-1.342 2.741-2.1 3.508.096.086.221.278.279.403.68-.71 1.418-1.956 1.936-3.173v4.678h.46v-4.573c.44.547 1.14 1.438 1.38 1.802l.307-.364c-.24-.326-1.361-1.639-1.687-1.994v-.287h1.83v-.441h-1.83v-1.888zm2.656 6.106v-5.694h2.483v5.694h-2.483zm-.45-6.145v7.4h.45v-.815h2.483v.748h.47v-7.333h-3.403zM174.607-7.84h-3.643v.43h1.506v3.902h.421V-7.41h1.304v2.416c0 .086-.029.105-.125.105-.086.01-.393.01-.757 0 .067.125.125.307.144.422.47.01.757 0 .93-.086.172-.077.22-.211.22-.441v-2.847zm-2.847-1.563v.412h2.368v-.412h-2.368zm.882-2.953c-.345 1.199-1.083 2.55-1.907 3.317.076.096.2.24.248.345.854-.805 1.544-2.1 1.908-3.183.403 1.074 1.122 2.234 1.889 3 .057-.114.172-.277.258-.383-.738-.68-1.495-1.897-1.946-3.096h-.45zm3.978 3.183h.843v-.432h-.843v-1.897c.326-.125.623-.26.853-.413l-.278-.393c-.489.355-1.419.662-2.195.882.067.115.134.259.163.374.335-.086.7-.192 1.054-.307v1.754h-1.064v.432h.978c-.23 1.246-.71 2.741-1.15 3.508.086.096.21.268.268.383.355-.651.71-1.754.968-2.827v4.582h.403V-7.89c.23.47.517 1.074.623 1.352l.268-.355a35.116 35.116 0 0 0-.891-1.63v-.651zm1.428 4.006v-5.914h1.025v5.914h-1.025zm-.383-6.355v7.697h.383v-.9h1.025v.823h.384v-7.62h-1.792zM187.162-9.858c-.694 0-1.172.231-1.61.741l.366.295c.367-.415.67-.59 1.244-.59.653 0 1.051.407 1.051 1.068 0 .964-.406 1.546-2.55 3.602v.438h3.14l.072-.454h-2.654c1.849-1.698 2.526-2.542 2.526-3.578 0-.885-.613-1.522-1.585-1.522zm4.79 0c-.503 0-1.004.175-1.467.606l.287.326c.383-.35.702-.51 1.18-.51.613 0 1.107.351 1.107 1.004 0 .71-.558 1.028-1.1 1.028h-.31l-.064.43h.438c.67 0 1.203.263 1.203 1.108 0 .733-.477 1.211-1.306 1.211-.455 0-.933-.183-1.243-.55l-.367.28c.399.502 1.052.7 1.602.7 1.083 0 1.84-.708 1.84-1.665 0-.837-.63-1.307-1.227-1.338.542-.088 1.052-.614 1.052-1.267 0-.733-.637-1.363-1.625-1.363zm5.037 0c-1.132 0-1.738.996-1.738 2.813 0 1.825.606 2.82 1.738 2.82 1.14 0 1.737-.995 1.737-2.82 0-1.817-.598-2.813-1.737-2.813zm-1.172 2.813c0-1.673.462-2.383 1.172-2.383.326 0 .581.12.773.375l-1.77 3.53c-.119-.375-.175-.877-.175-1.522zm1.172 2.383a.904.904 0 0 1-.79-.415l1.77-3.562c.135.383.199.909.199 1.594 0 1.673-.462 2.383-1.18 2.383zm6.208-5.116h-2.773v2.669h.446c.343-.112.55-.183.909-.183.59 0 1.067.303 1.067 1.243 0 .932-.446 1.394-1.21 1.394-.495 0-.877-.167-1.228-.51l-.327.327c.43.39.9.614 1.522.614 1.084 0 1.761-.702 1.761-1.793 0-1.092-.574-1.705-1.482-1.705-.358 0-.637.063-.988.262v-1.896h2.215l.088-.422zm4.941 1.299c0-.997-.876-1.38-1.585-1.38-.63 0-1.586.383-1.586 1.412 0 .613.31.987.9 1.242-.685.32-1.131.758-1.131 1.443 0 .876.677 1.538 1.8 1.538 1.092 0 1.833-.63 1.833-1.546 0-.686-.501-1.187-1.21-1.458.613-.335.98-.71.98-1.251zm-2.677.04c0-.622.406-.997 1.092-.997s1.091.375 1.091.973c0 .55-.303.812-.852 1.107-.805-.255-1.331-.382-1.331-1.084zm2.366 2.685c0 .63-.47 1.092-1.298 1.092-.829 0-1.251-.399-1.251-1.076 0-.757.462-1.116.956-1.323.9.31 1.593.51 1.593 1.307zM223.909-7.122a12.22 12.22 0 0 0 1.639-.288l-.403-.307c-.814.221-2.425.384-3.729.441.058.106.115.25.125.346a34.207 34.207 0 0 0 1.927-.135v.748h-2.138v.384h1.936c-.536.622-1.399 1.246-2.08 1.571.068.096.173.269.211.374.69-.335 1.496-.958 2.07-1.62v2.09h.442v-1.83c.47.277 1.15.728 1.418.929l.269-.316a39.476 39.476 0 0 0-1.687-.997v-.201h1.85v-.384h-1.85v-.805zm-1.6-2.3h2.549v1.524h.46v-1.524h2.99v.824c0 .105-.038.153-.191.163-.154.01-.614.01-1.275-.01.077.115.153.25.182.364.747 0 1.188.01 1.428-.067.259-.067.316-.191.316-.45v-1.208h-6.46v.384zm1.628-1.4v.374h3.509v-.374h-3.509zm5.244 3.93v2.252h-2.703v-2.252h2.703zm-3.135 3.134h.432v-.47h2.703v.432h.44v-3.518h-3.575v3.556zm-.632-8.617c-.844.824-2.493 1.649-4.18 2.1.087.105.182.258.22.363 1.669-.488 3.308-1.313 4.2-2.099 1.054.863 2.827 1.64 4.293 2.004.058-.096.164-.278.25-.384-1.496-.335-3.26-1.064-4.371-1.984h-.412zM237.595-9.858c-.694 0-1.172.231-1.61.741l.366.295c.367-.415.67-.59 1.244-.59.653 0 1.051.407 1.051 1.068 0 .964-.406 1.546-2.55 3.602v.438h3.14l.072-.454h-2.654c1.849-1.698 2.526-2.542 2.526-3.578 0-.885-.613-1.522-1.585-1.522zm4.79 0c-.502 0-1.004.175-1.467.606l.287.326c.383-.35.702-.51 1.18-.51.613 0 1.107.351 1.107 1.004 0 .71-.558 1.028-1.1 1.028h-.31l-.064.43h.438c.67 0 1.203.263 1.203 1.108 0 .733-.477 1.211-1.306 1.211-.455 0-.933-.183-1.243-.55l-.367.28c.399.502 1.052.7 1.602.7 1.083 0 1.84-.708 1.84-1.665 0-.837-.63-1.307-1.227-1.338.542-.088 1.052-.614 1.052-1.267 0-.733-.637-1.363-1.625-1.363zm5.037 0c-1.132 0-1.737.996-1.737 2.813 0 1.825.605 2.82 1.737 2.82 1.14 0 1.737-.995 1.737-2.82 0-1.817-.598-2.813-1.737-2.813zm-1.172 2.813c0-1.673.462-2.383 1.172-2.383.326 0 .581.12.773.375l-1.77 3.53c-.119-.375-.175-.877-.175-1.522zm1.172 2.383a.903.903 0 0 1-.79-.415l1.77-3.562c.135.383.199.909.199 1.594 0 1.673-.462 2.383-1.18 2.383zm6.208-5.116h-2.773v2.669h.446c.343-.112.55-.183.909-.183.59 0 1.067.303 1.067 1.243 0 .932-.446 1.394-1.21 1.394-.495 0-.877-.167-1.228-.51l-.327.327c.43.39.9.614 1.522.614 1.084 0 1.761-.702 1.761-1.793 0-1.092-.574-1.705-1.482-1.705-.358 0-.637.063-.988.262v-1.896h2.215l.088-.422zm3.252-.064c-.94 0-1.705.574-1.705 1.753 0 1.1.653 1.753 1.578 1.745.637-.016 1.1-.367 1.298-.717l.024-.295-.008.279c.056 1.466-.884 2.12-2.382 2.518l.127.398c1.969-.597 2.79-1.179 2.79-3.593 0-1.307-.535-2.088-1.722-2.088zm-.087 3.06c-.694.016-1.092-.383-1.092-1.267 0-.885.398-1.355 1.187-1.355s1.22.399 1.195 1.737c-.302.526-.7.877-1.29.885zM276.054-9.778h-.518v3.896c0 .79-.494 1.172-1.235 1.172-.733 0-1.227-.383-1.227-1.172v-3.896h-.51v3.72c0 1.085.677 1.834 1.737 1.834 1.028 0 1.753-.725 1.753-1.833v-3.721zm3.276 1.21h-.494v1.57h-1.538v.439h1.538v1.562h.494V-6.56h1.554v-.438h-1.554v-1.57zm4.288-1.29c-.502 0-1.004.175-1.466.606l.286.326c.383-.35.702-.51 1.18-.51.613 0 1.107.351 1.107 1.004 0 .71-.557 1.028-1.1 1.028h-.31l-.064.43h.439c.669 0 1.203.263 1.203 1.108 0 .733-.478 1.211-1.307 1.211-.454 0-.933-.183-1.243-.55l-.367.28c.399.502 1.052.7 1.602.7 1.084 0 1.84-.708 1.84-1.665 0-.837-.629-1.307-1.226-1.338.541-.088 1.051-.614 1.051-1.267 0-.733-.637-1.363-1.625-1.363zm4.774 0c-.693 0-1.171.231-1.61.741l.367.295c.366-.415.67-.59 1.243-.59.653 0 1.052.407 1.052 1.068 0 .964-.407 1.546-2.55 3.602v.438h3.14l.07-.454h-2.652c1.848-1.698 2.525-2.542 2.525-3.578 0-.885-.613-1.522-1.585-1.522zm4.336.534h2.541l.064-.454h-3.115v5.474h.51v-2.518h2.215v-.438h-2.215v-2.064zm4.782 0h2.541l.064-.454H297v5.474h.51v-2.518h2.215v-.438h-2.215v-2.064zM326.995-8.397h-3.92v-2.713h3.25v-.45h-7.132v.45h3.412v2.713h-4.073v.45h4.073v3.557c0 .201-.086.258-.287.268-.202.01-.92.01-1.755-.01.077.144.164.345.202.48.997.01 1.581 0 1.878-.086.298-.087.432-.24.432-.662v-3.547h3.92v-.45zm3.5-2.808v2.386h-1.687v-2.386h1.687zm-1.687 5.262v-2.444h1.687v2.444h-1.687zm2.128-5.694h-2.578v6.873h.45v-.748h2.128v-6.125zm.93 5.205c.517.518 1.054 1.246 1.274 1.725l.393-.258c-.22-.48-.786-1.18-1.303-1.687l-.364.22zm4.888-2.348v-.432h-2.646v-1.437h2.167v-.422h-2.167v-1.227h-.45v1.227h-2.109v.422h2.11v1.437h-2.56v.432h3.844v1.246h-3.777v.422h3.776v2.875c0 .134-.038.182-.21.192-.154 0-.7 0-1.362-.02.077.144.144.327.163.442.815 0 1.275 0 1.524-.068.25-.076.336-.23.336-.546v-2.875h1.236v-.422h-1.236V-8.78h1.361zm3.106 4.936l.432-.364c-.671-.757-1.496-1.582-2.195-2.138l-.393.355c.69.546 1.514 1.361 2.156 2.147zm10.92-2.76c-.125-.144-.461-.508-.787-.863.268-.269.585-.652.844-1.007l-.317-.24c-.163.288-.489.7-.738 1.007a12.623 12.623 0 0 1-.402-.421c.517-.69.968-1.438 1.274-2.215l-.268-.172-.086.019h-1.055v-1.792h-.45v1.792h-1.486v.431h2.76c-.651 1.428-1.907 2.838-3.028 3.643.077.076.22.268.278.383.479-.364.997-.843 1.476-1.39v3.825h.45v-4.16a23.298 23.298 0 0 1 1.237 1.495l.297-.335zm4.878-4.717h-4.965v.441h1.773c-.057 2.531-.24 5.54-2.435 6.96.125.076.298.23.374.325 2.243-1.533 2.454-4.591 2.521-7.285h2.262c-.105 4.592-.24 6.221-.546 6.557-.086.134-.192.163-.383.153-.192 0-.748 0-1.352-.057.086.134.134.325.144.47.517.038 1.044.057 1.351.038.298-.03.49-.096.662-.345.374-.451.47-2.033.594-6.96v-.297zm3.567 6.95V-5.56h3.862v1.189h-3.862zm3.862-1.591h-3.862v-1.112h3.862v1.112zm-.68-2.435c.21.326.44.633.7.92h-3.911c.268-.287.508-.604.719-.92h2.492zm-.69-1.332c.124.316.268.623.431.91h-1.975c.173-.297.317-.603.451-.91h1.093zm3.623 1.332v-.422h-2.693a6.268 6.268 0 0 1-.47-.91h2.339v-.413h-3.739c.106-.287.192-.584.269-.872h3.757v-.402h-3.671c.057-.278.096-.556.125-.834l-.46-.038c-.02.287-.068.575-.125.872h-3.269v.402h3.183a7.64 7.64 0 0 1-.278.872H357.7v.413h2.444a9.253 9.253 0 0 1-.489.91h-2.77v.422h2.492a7 7 0 0 1-2.684 2.233c.115.077.25.22.316.336a7.194 7.194 0 0 0 1.764-1.217v3.431h.45v-.354h3.863v.316h.47v-3.374c.499.46 1.064.834 1.668 1.093.077-.115.211-.288.316-.374-1.035-.403-1.946-1.15-2.617-2.09h2.416zM373.958-7.707h-6.796v.805h2.397v3.355h.93v-3.355h2.559v1.716c0 .115-.048.144-.202.154-.134 0-.7.01-1.217-.02.125.25.259.604.307.873.738 0 1.246-.01 1.581-.154.345-.144.441-.383.441-.834v-2.54zm-5.147-1.821c.757-.642 1.409-1.323 1.84-1.936.46.623 1.16 1.303 1.927 1.936h-3.767zm1.342-2.828c-.728 1.199-2.31 2.665-3.93 3.528.201.191.46.508.575.719a13.708 13.708 0 0 0 1.898-1.323v.71h3.997v-.72c.613.499 1.275.95 1.898 1.294.163-.259.374-.565.594-.786-1.485-.7-3.105-2.013-4.131-3.422h-.901zM377.927-7.103c.096-.642.125-1.265.125-1.83v-.058h4.706v1.888h-4.83zm4.831-4.198v1.86h-4.706v-1.86h4.706zm.47-.45h-5.636v2.817c0 1.592-.173 3.585-1.764 5.013.106.058.268.23.336.336.968-.863 1.447-1.975 1.677-3.077h4.917v2.233c0 .22-.077.288-.297.297-.22 0-.978.01-1.84-.01.076.145.163.346.191.48 1.055 0 1.668 0 1.984-.086.307-.086.432-.259.432-.671v-7.333zm4.563 7.907l.432-.364c-.671-.757-1.496-1.582-2.195-2.138l-.393.355c.69.546 1.514 1.361 2.156 2.147zm15.644-7.122v-.402h-6.067c.144-.269.288-.537.403-.815l-.47-.125c-.47 1.131-1.265 2.195-2.147 2.886.125.066.316.21.412.297.556-.48 1.102-1.122 1.563-1.84h6.306zm-.68 1.14v-.402h-5.79v.403h5.79zm-4.18 1.381h-.44v1.812h-2.694v.402h2.3c-.641.825-1.648 1.659-2.51 2.052.105.076.23.23.297.335.881-.47 1.955-1.37 2.607-2.281v2.511h.44v-1.965c.835.48 1.736 1.102 2.215 1.534l.297-.317c-.546-.479-1.63-1.188-2.511-1.648v-.22h2.684v-.403h-2.684v-1.812zm-2.405.383c.345.384.69.911.815 1.275l.373-.182c-.124-.364-.489-.891-.843-1.265l-.345.172zm4.073-.23c-.24.394-.67 1.007-1.015 1.371l.325.163c.336-.345.758-.882 1.093-1.351l-.403-.183zm-4.188-.776v.403h5.607c.106 2.913.364 5.06 1.515 5.06.488 0 .604-.42.661-1.61a1.254 1.254 0 0 1-.355-.249c-.019.853-.067 1.409-.268 1.409-.805 0-1.035-2.473-1.102-5.013h-6.058zm10.295.489c-.316-.288-.94-.67-1.438-.892l-.258.336c.508.259 1.13.652 1.438.94l.258-.384zm-1.236 4.821c.412-.834.891-2.032 1.246-3l-.326-.259a32.055 32.055 0 0 1-1.294 2.981l.374.278zm1.63-7.37c-.288-.288-.863-.73-1.323-1.036l-.317.287c.46.326 1.035.787 1.333 1.093l.306-.345zm.421 3.392c-.163.873-.403 1.793-.748 2.416.106.048.307.144.384.201.326-.642.604-1.61.786-2.53l-.422-.087zm3.096-.91v-.431h-1.706v-1.467h1.342v-.431h-1.342v-1.294h-.441v3.192h-1.61v.43h1.715v4.43c0 .105-.038.133-.153.133-.096.01-.45.01-.882 0 .067.135.144.317.163.432.518 0 .853 0 1.055-.077.182-.077.24-.201.24-.489v-4.428h1.62zm.038 2.77c-.115-.489-.46-1.313-.776-1.936l-.364.144c.307.632.623 1.476.748 1.974l.392-.182zm2.34-5.138c-.183 1.697-.566 3.135-1.103 4.285-.412-1.218-.671-2.693-.825-4.285h1.927zm.181-.46l-.076.02h-2.751v.44h.316c.192 1.812.48 3.46.978 4.793-.556 1.035-1.246 1.802-2.013 2.272.096.086.23.24.297.345.719-.48 1.38-1.18 1.926-2.11.394.912.902 1.65 1.573 2.157.067-.124.21-.268.326-.345-.71-.498-1.237-1.284-1.659-2.271.68-1.323 1.15-3.058 1.352-5.234l-.269-.067zm4.142 4.601v-1.716h1.361v1.716h-1.36zm3.173-1.716v1.716h-1.39v-1.716h1.39zm-.47 2.607c.24.279.47.605.68.93l-1.6.106V-6.47h1.792v-2.512h-1.792v-1.083c.748-.096 1.447-.22 1.984-.374l-.364-.335c-.91.268-2.665.46-4.112.566.067.105.124.268.144.373a35.266 35.266 0 0 0 1.926-.172v1.025h-1.773v2.512h1.773v1.553c-.949.057-1.802.115-2.444.143l.038.432c1.18-.077 2.934-.192 4.659-.307.153.287.278.565.354.796l.384-.164c-.182-.594-.729-1.475-1.285-2.099l-.364.134zm-4.246-5.703v2.924c0 1.495-.106 3.47-1.17 4.898.106.048.297.182.365.268 1.093-1.486 1.255-3.613 1.255-5.166v-2.492h5.483c.048 4.246.038 7.649 1.074 7.649.421-.01.517-.46.575-1.754a1.666 1.666 0 0 1-.326-.269c-.02.872-.067 1.553-.201 1.553-.642 0-.681-4.141-.69-7.61h-6.365zM426.596-11.138a9.101 9.101 0 0 0 1.534-.422l-.594-.69c-.854.335-2.3.633-3.556.805.095.201.21.498.249.69.47-.057.978-.115 1.476-.201v1.428h-1.783v.824h1.562c-.402 1.132-1.092 2.358-1.792 3.058.163.23.374.575.47.824.565-.604 1.112-1.581 1.543-2.597v3.853h.891v-3.901c.374.508.815 1.121 1.007 1.466l.537-.728c-.221-.288-1.17-1.38-1.544-1.754v-.22h1.544v-.825h-1.544v-1.61zm2.713 5.52v-4.984h1.87v4.985h-1.87zm-.863-5.837v7.467h.863v-.776h1.87v.709h.91v-7.4h-3.643z"/></svg>