<svg xmlns="http://www.w3.org/2000/svg" width="252.327" height="102.519" viewBox="0 -76.889 189.245 76.889"><path d="M7.65-76.352c0 .037-.006.147-.017.292-.16.023-.335.043-.44.05a2.082 2.082 0 0 1-.251.003l.033.343.638-.084-.02.292c-.181.272-.547.755-.732.99l.208.292c.141-.195.34-.484.497-.715-.01.372-.01.564-.013.88 0 .053-.004.15-.01.22h.362a7.325 7.325 0 0 1-.017-.228c-.02-.305-.016-.543-.016-.835 0-.104.003-.222.01-.342.292-.316.677-.631.94-.631.16 0 .254.08.254.265 0 .315-.124.842-.124 1.211 0 .299.158.46.393.46a.882.882 0 0 0 .624-.269l-.05-.365c-.165.168-.332.261-.477.261-.104 0-.154-.08-.154-.18 0-.347.12-.887.12-1.226 0-.278-.16-.473-.493-.473-.332 0-.745.302-1.01.54.007-.05.01-.097.014-.144.053-.084.117-.181.157-.242l-.11-.14-.01.003c.026-.222.053-.4.07-.487l-.39-.013c.014.09.014.184.014.272zM12.287-76.302l-.41-.007c.02.09.027.232.027.316 0 .201.003.604.037.9.09.882.403 1.204.742 1.204.245 0 .453-.198.664-.772l-.265-.312c-.077.305-.225.671-.393.671-.224 0-.362-.356-.412-.882-.024-.262-.027-.544-.024-.755 0-.091.017-.266.034-.363zm1.718.084l-.332.11c.339.403.53 1.148.587 1.726l.346-.135c-.044-.543-.292-1.312-.601-1.701zM14-68.471H7.244v.661h2.53v3.441h.748v-3.44h2.77v1.955c0 .115-.047.153-.21.163-.144 0-.671.01-1.237-.01.096.192.211.47.25.68.747 0 1.226-.009 1.523-.124.298-.115.384-.316.384-.7v-2.626zm-5.233-1.802v.642h4.026v-.642H8.767zm1.572-2.847c-.747 1.217-2.358 2.694-3.997 3.575.163.154.364.403.45.566 1.611-.92 3.154-2.29 3.94-3.441.882 1.188 2.56 2.569 4.026 3.383a4.04 4.04 0 0 1 .47-.613c-1.486-.729-3.173-2.09-4.18-3.47h-.709zM19.632-76.352c0 .037-.006.147-.017.292-.16.023-.335.043-.44.05a2.082 2.082 0 0 1-.251.003l.033.343.638-.084-.02.288c-.181.276-.543.759-.732.994l.209.292c.14-.195.339-.484.496-.715-.01.372-.01.564-.013.88 0 .053-.007.16-.01.22h.362a7.357 7.357 0 0 1-.017-.228c-.02-.305-.016-.543-.016-.835 0-.108.003-.225.01-.35.295-.271.63-.456 1.003-.456.4 0 .604.296.604.557.004.554-.466.806-1.044.893l.155.319c.779-.151 1.242-.527 1.238-1.205 0-.53-.413-.872-.9-.872-.311 0-.674.107-1.033.386l.014-.165c.053-.084.117-.181.157-.242l-.114-.14h-.003a4.82 4.82 0 0 1 .07-.484l-.392-.013c.013.09.013.184.013.272zM18.65-72.027c.595-.125 1.16-.278 1.601-.441l-.48-.556c-.843.335-2.338.623-3.603.795.086.164.163.394.201.566a57.997 57.997 0 0 0 1.582-.23v1.591h-1.87v.662h1.688c-.432 1.198-1.198 2.51-1.927 3.24.134.172.316.46.403.651.613-.661 1.236-1.744 1.706-2.856v4.217h.7v-4.188c.412.536.948 1.255 1.169 1.62l.431-.585a52.942 52.942 0 0 0-1.6-1.85v-.25h1.667v-.66h-1.667v-1.726zm2.694 5.76v-5.281h2.137v5.282h-2.137zm-.7-5.962v7.439h.7v-.786h2.137v.719h.71v-7.372h-3.547zM41.293-68.682h-3.68v.633h1.37v3.776h.613v-3.776h1.112v2.137c0 .087-.029.115-.115.115-.096.01-.364.01-.7 0 .096.173.173.46.192.642.46.01.748 0 .959-.124.2-.115.249-.316.249-.614v-2.789zm-2.818-1.582c.47-.68.843-1.476 1.073-2.156.278.719.69 1.495 1.18 2.156h-2.253zm.728-2.885c-.326 1.141-1.054 2.521-1.869 3.25.115.153.278.402.355.575.268-.259.527-.566.757-.891v.565h2.3v-.594a6.2 6.2 0 0 0 .643.747c.095-.201.249-.45.373-.623-.728-.632-1.476-1.86-1.917-3.029h-.642zm4.083 3.384h.748v-.661h-.748v-1.716c.307-.115.604-.24.844-.374l-.374-.604c-.517.335-1.409.633-2.176.834.087.163.182.393.211.556.288-.067.604-.144.92-.23v1.534h-.93v.66h.844c-.22 1.132-.642 2.474-1.054 3.174.105.143.249.402.316.575.297-.575.594-1.486.825-2.425v4.16h.574v-4.17c.202.44.441.959.537 1.227l.317-.508a50.417 50.417 0 0 0-.854-1.582v-.45zm1.448 3.633v-5.56h.862v5.56h-.862zm-.508-6.221v7.783h.508v-.891h.862v.815h.528v-7.707h-1.898zM67.683-69.315h-3.786v-2.415h3.115v-.7h-7.15v.7h3.297v2.415h-3.96v.7h3.96v3.211c0 .202-.077.26-.279.269-.22.01-.948.01-1.734-.01.115.201.259.537.306.738.968 0 1.592-.01 1.946-.134.355-.115.499-.345.499-.863v-3.21h3.786v-.7zm3.356-2.53v2.128h-1.39v-2.128h1.39zm-1.39 4.965v-2.214h1.39v2.214h-1.39zm2.06-5.607h-2.712v7.026h.652v-.777h2.06v-6.25zm.787 5.367c.489.509.996 1.218 1.217 1.687l.604-.383c-.22-.47-.757-1.15-1.246-1.63l-.575.326zm4.946-2.377v-.632h-2.473v-1.218h2.06v-.632h-2.06v-1.14h-.7v1.14h-1.994v.632h1.994v1.218h-2.406v.632h3.671v1.083h-3.623v.633h3.623v2.56c0 .143-.048.181-.21.191-.154.01-.681.01-1.276-.01.106.183.202.47.23.662.777 0 1.256-.01 1.553-.115.288-.106.393-.317.393-.719v-2.569h1.112v-.633h-1.112v-1.083h1.218zm2.991 4.937l.652-.556c-.594-.7-1.457-1.572-2.147-2.128l-.623.546c.68.556 1.505 1.38 2.118 2.138zm11.12-2.895c-.115-.134-.422-.45-.729-.767.26-.268.566-.642.863-.978l-.47-.383c-.172.297-.47.728-.719 1.026l-.354-.355c.498-.69.93-1.438 1.236-2.214l-.402-.278-.125.038h-.815v-1.744h-.7v1.744h-1.38v.652h2.54c-.632 1.313-1.763 2.617-2.808 3.364.115.115.316.441.393.614a9.44 9.44 0 0 0 1.256-1.18v3.547h.7v-3.881c.383.44.872 1.035 1.082 1.332l.432-.537zm4.821-4.783h-5.003v.671h1.62c-.048 2.502-.202 5.272-2.32 6.671.192.125.422.374.546.537 2.195-1.553 2.425-4.505 2.502-7.208h1.936c-.095 4.323-.22 5.914-.508 6.25-.105.134-.2.172-.374.162-.21 0-.728 0-1.293-.047.124.21.22.517.23.728.517.02 1.044.038 1.36 0 .317-.038.528-.125.729-.422.364-.48.46-2.09.575-6.95v-.392zm3.701 6.959v-.997h3.46v.997h-3.46zm3.46-1.534h-3.46v-.92h3.46v.92zm-.517-2.262c.172.269.364.527.565.767h-3.489c.211-.25.403-.498.575-.767h2.349zm-.71-1.351c.106.258.23.517.355.757h-1.648c.124-.25.249-.499.345-.757h.948zm3.73 1.351v-.594h-2.618a7.087 7.087 0 0 1-.393-.757h2.186v-.585h-3.633c.077-.24.144-.48.192-.72h3.738v-.593h-3.614c.039-.25.077-.49.096-.738l-.71-.058a7.874 7.874 0 0 1-.105.796h-3.124v.594h3a6.73 6.73 0 0 1-.211.719h-2.483v.585h2.253c-.115.258-.25.508-.393.757h-2.684v.594h2.281c-.604.805-1.418 1.505-2.492 2.023.173.124.383.383.47.556a7.641 7.641 0 0 0 1.582-1.074v3.192h.7v-.317h3.46v.279h.737v-3.192c.451.393.96.728 1.505.968.106-.173.326-.45.48-.595-.95-.364-1.783-1.015-2.426-1.84h2.205zM114.725-68.538h-6.92v1.025h2.243v3.25h1.207v-3.25h2.301v1.4c0 .115-.048.144-.21.144-.145 0-.739.01-1.209-.01.163.297.345.767.403 1.102.719 0 1.256-.019 1.668-.182.403-.182.517-.498.517-1.025v-2.454zm-4.974-1.86c.642-.565 1.188-1.15 1.581-1.696.403.536.988 1.13 1.64 1.696h-3.221zm.949-2.818c-.72 1.16-2.272 2.646-3.892 3.49.268.239.585.66.738.92a13.575 13.575 0 0 0 1.83-1.275v.709h3.988v-.7c.595.48 1.227.91 1.831 1.256.22-.345.48-.72.767-1.016-1.495-.662-3.067-1.946-4.102-3.384h-1.16zM118.78-68.03c.077-.566.106-1.112.106-1.61h4.38v1.61h-4.485zm4.487-3.882v1.59h-4.38v-1.59h4.38zm.738-.7h-5.838v2.933c0 1.524-.153 3.47-1.677 4.812.144.106.431.364.527.517.93-.814 1.41-1.897 1.649-2.98h4.6v1.917c0 .21-.076.278-.296.287-.221 0-.988.01-1.783-.019.115.201.249.537.297.738 1.025 0 1.658-.01 2.022-.134.355-.115.499-.364.499-.863v-7.208zm4.362 8.052l.652-.556c-.595-.7-1.457-1.572-2.147-2.128l-.623.546c.68.556 1.505 1.38 2.118 2.138zm15.769-7.113v-.565h-5.857c.125-.23.23-.46.326-.7l-.738-.192c-.441 1.141-1.227 2.215-2.118 2.895.182.115.508.326.66.46.547-.489 1.094-1.15 1.554-1.898h6.173zm-.72 1.15v-.536h-5.693v.537h5.694zm-4.054 1.4h-.671v1.678h-2.559v.575h2.08c-.594.728-1.524 1.437-2.33 1.792.144.125.346.364.451.518.805-.422 1.726-1.18 2.358-1.994v2.176h.671v-1.773c.729.44 1.515.987 1.936 1.37l.47-.45c-.527-.45-1.572-1.112-2.377-1.553l-.029.029v-.115h2.512v-.575h-2.512v-1.678zm-2.578.403c.306.364.623.872.738 1.217l.556-.249c-.115-.345-.441-.844-.758-1.208l-.536.24zm3.978-.288c-.202.383-.585.95-.873 1.304l.46.21c.307-.325.7-.824 1.036-1.274l-.623-.24zm-4.017-.882v.566h5.435c.086 2.818.336 4.946 1.572 4.946.575 0 .729-.46.786-1.649a2.15 2.15 0 0 1-.48-.412c-.018.824-.076 1.37-.258 1.37-.69 0-.891-2.338-.93-4.82h-6.125zm10.804-2.041c-.307-.307-.901-.767-1.361-1.103l-.47.441c.47.345 1.055.844 1.352 1.16l.479-.498zm-1.6 7.428a35.51 35.51 0 0 0 1.178-2.971l-.498-.374a28.303 28.303 0 0 1-1.237 2.971l.556.374zm-.653-5.367c.499.277 1.112.718 1.419 1.025l.412-.546c-.326-.288-.949-.71-1.428-.959l-.403.48zm2.512 1.294c-.135.862-.355 1.754-.671 2.357.144.068.422.221.546.307.316-.633.575-1.62.738-2.55l-.613-.114zm3.182-.758v-.67h-1.61v-1.218h1.265v-.642h-1.265v-1.208h-.662v3.067h-1.476v.671h1.61v4.112c0 .106-.038.135-.153.135-.096.009-.46.009-.853 0 .086.191.182.46.21.651.538 0 .902-.01 1.132-.124.25-.106.307-.288.307-.652v-4.122h1.495zm.125 2.617c-.135-.489-.45-1.303-.748-1.917l-.556.201c.297.643.594 1.486.719 1.994l.585-.278zm2.06-4.965c-.163 1.467-.46 2.722-.89 3.777-.337-1.112-.557-2.406-.691-3.777h1.581zm.278-.7l-.124.029h-2.579v.671h.412l-.153.02c.173 1.715.441 3.287.892 4.571-.528.997-1.19 1.735-1.937 2.195.154.125.336.365.441.527.7-.47 1.294-1.111 1.802-1.936.374.815.844 1.486 1.448 1.985a2.06 2.06 0 0 1 .488-.547c-.66-.489-1.16-1.246-1.543-2.166.643-1.332 1.064-3.067 1.237-5.253l-.383-.096zm4.363 4.63v-1.457h1.083v1.457h-1.083zm2.808-1.457v1.457h-1.093v-1.457h1.093zm-.374 2.444c.182.25.355.527.518.815l-1.237.076v-1.313h1.697v-2.597h-1.697v-.93c.71-.086 1.371-.201 1.898-.345l-.498-.518c-.91.25-2.57.441-3.959.537.077.144.163.384.192.527.556-.019 1.15-.067 1.735-.124v.853h-1.658v2.597h1.658v1.352c-.863.048-1.64.096-2.234.125l.048.651c1.131-.086 2.761-.2 4.352-.316.134.268.23.527.287.738l.585-.211c-.163-.585-.642-1.466-1.14-2.099l-.547.182zm-4.236-5.828v3.068c0 1.466-.106 3.412-1.132 4.773.164.086.451.278.566.402 1.083-1.447 1.246-3.623 1.246-5.175v-2.416h5.176c.029 4.18.02 7.572 1.189 7.572.488 0 .632-.479.7-1.715a2.636 2.636 0 0 1-.442-.508c-.019.834-.066 1.485-.191 1.485-.566 0-.585-3.93-.575-7.486h-6.537zM167.402-69.315h1.39v-1.054h-1.39v-1.466a12.19 12.19 0 0 0 1.428-.403l-.738-.892c-.872.345-2.272.652-3.518.825.125.25.26.632.307.891.44-.057.9-.124 1.37-.201v1.246h-1.705v1.054h1.428c-.374 1.055-.987 2.157-1.64 2.847.192.288.47.738.576 1.074.508-.566.958-1.39 1.342-2.291v3.412h1.15v-3.537c.316.45.623.93.805 1.256l.652-.949c-.21-.259-1.074-1.265-1.457-1.649v-.163zm2.76 2.742v-4.649h1.534v4.649h-1.534zm-1.121-5.742v7.592h1.121v-.757h1.534v.69h1.179v-7.525h-3.834zM6.858-59.515l.316.326c.057-.077.134-.185.204-.285.161-.198.42-.554.567-.739.108-.13.172-.154.303-.01.157.178.409.5.624.745.221.259.52.591.768.826l.272-.312a12.08 12.08 0 0 1-.832-.836c-.208-.221-.47-.56-.681-.772-.232-.231-.427-.204-.638.04-.205.242-.473.608-.645.78-.093.096-.167.17-.258.237zM12.287-60.924l-.41-.007c.02.09.027.232.027.316 0 .201.003.604.037.9.09.882.403 1.204.742 1.204.245 0 .453-.198.664-.772l-.265-.312c-.077.305-.225.671-.393.671-.224 0-.362-.356-.412-.882-.024-.262-.027-.544-.024-.755 0-.091.017-.266.034-.363zm1.718.084l-.332.11c.339.403.53 1.148.587 1.726l.346-.135c-.044-.543-.292-1.312-.601-1.701zM15.046-53.046h-3.93v-3.345h3.393v-.7H7.013v.7h3.374v3.345H6.515v.7h3.872v3.354h.729v-3.354h3.93v-.7zM7.684-55.73c.364.7.729 1.63.863 2.195l.67-.23c-.124-.566-.517-1.467-.91-2.157l-.623.192zm5.08 2.224c.374-.575.834-1.486 1.18-2.253l-.748-.21c-.24.69-.68 1.667-1.036 2.262l.604.2zM18.803-61.166h-.359c.01.06.024.198.024.275v.437c-.336.03-.702.063-1.01.094.003-.161.003-.302.003-.396 0-.121.007-.215.017-.306h-.373c.017.108.024.205.024.322v.41c-.141.014-.252.024-.326.03-.14.014-.278.02-.38.02l.038.343c.087-.014.262-.037.366-.05.073-.01.178-.02.302-.034 0 .322 0 .668.003.812.013.554.1.735.916.735.332 0 .745-.03.97-.057l.01-.36a6.291 6.291 0 0 1-1 .085c-.547 0-.56-.108-.57-.454-.007-.137-.004-.47 0-.798.312-.034.677-.067 1.003-.094a4.788 4.788 0 0 1-.034.486c-.006.074-.04.088-.117.088-.07 0-.211-.02-.322-.044l-.007.292c.1.017.35.05.47.05.161 0 .238-.043.272-.204.03-.151.043-.437.05-.692.124-.006.235-.013.322-.013.088-.003.235-.007.292-.003v-.33c-.087.007-.2.017-.288.02-.094.007-.205.014-.32.024.004-.134.004-.278.008-.423 0-.08.006-.211.016-.265zM21.873-60.924l-.41-.007c.02.09.027.232.027.316 0 .201.003.604.037.9.09.882.403 1.204.742 1.204.245 0 .453-.198.664-.772l-.265-.312c-.077.305-.225.671-.393.671-.224 0-.362-.356-.412-.882-.024-.262-.027-.544-.024-.755 0-.091.017-.266.034-.363zm1.718.084l-.332.11c.339.403.53 1.148.587 1.726l.346-.135c-.044-.543-.292-1.312-.601-1.701zM21.986-57.264c.604.326 1.332.815 1.697 1.15l.44-.488c-.373-.336-1.12-.796-1.715-1.093l-.422.431zm1.361 2.588a9.487 9.487 0 0 1-1.227 2.589c-.259-.911-.431-2.052-.527-3.327h3.048v-.7h-3.096a29.157 29.157 0 0 1-.038-1.61h-.738c.01.547.019 1.083.057 1.61H16.83v2.675c0 1.237-.086 2.876-.872 4.045.163.086.47.335.594.48.863-1.247 1.007-3.173 1.007-4.515v-.077h1.744c-.038 1.649-.086 2.252-.22 2.396-.058.086-.154.106-.288.106-.163 0-.575-.01-1.016-.048.115.182.192.45.202.67.47.02.9.02 1.14 0 .268-.028.431-.095.575-.277.201-.25.259-1.055.307-3.202v-.306h-2.444v-1.247h3.307c.124 1.544.354 2.953.7 4.036a7.649 7.649 0 0 1-2.205 1.773c.163.134.412.422.517.566a8.57 8.57 0 0 0 1.975-1.592c.44.988 1.016 1.572 1.754 1.572.729 0 .987-.47 1.121-2.099a1.685 1.685 0 0 1-.613-.383c-.067 1.275-.182 1.773-.45 1.773-.49 0-.93-.546-1.285-1.486.71-.91 1.275-2.003 1.687-3.24l-.719-.182zM46.172-56.372c-.154-.326-.499-.796-.825-1.131l-.431.201c.316.355.652.844.796 1.16l.46-.23zm-4.505 4.14v-.67h-1.745v-3.604h1.649v-.652h-3.863v.652h1.61v3.604H37.44v.67h1.878v3.336h.604v-3.335h1.745zm-3.69-3.527c.23.777.411 1.793.44 2.387l.537-.115c-.029-.585-.23-1.581-.47-2.358l-.508.086zm2.75 2.377c.23-.623.49-1.62.69-2.425l-.594-.134a18.71 18.71 0 0 1-.575 2.425l.48.134zm4.774-1.16a12.876 12.876 0 0 1-.537 2.157 41.18 41.18 0 0 1-.23-2.971h1.495v-.604h-1.524c-.02-.594-.038-1.188-.048-1.773h-.575c.02.585.038 1.179.067 1.773h-2.137v2.272c0 1.322-.077 3.172-.825 4.514.135.048.393.192.499.288.738-1.342.882-3.278.891-4.668h.805c-.038 1.754-.076 2.358-.163 2.511-.047.086-.105.096-.191.096-.087 0-.23 0-.441-.019.076.153.115.393.134.585.201 0 .412 0 .537-.02a.52.52 0 0 0 .412-.23c.172-.24.201-1.025.249-3.24 0-.086.01-.268.01-.268h-1.352v-1.217h1.601c.077 1.457.192 2.856.374 3.968-.384.796-.853 1.457-1.39 1.956.144.076.335.22.431.316a6.671 6.671 0 0 0 1.122-1.438c.191.815.44 1.361.766 1.495.499.269.892-.172 1.045-1.677a1.863 1.863 0 0 1-.45-.326c-.067.92-.201 1.515-.326 1.476-.269-.076-.48-.738-.642-1.716.421-.891.747-1.926.958-3.048l-.566-.191zM67.27-56.104H63.8v-1.639h-.708v1.64h-3.47v7.13h.7v-6.431h2.76c-.058 1.256-.403 2.837-2.511 3.959.163.124.402.383.508.537 1.284-.758 1.974-1.65 2.329-2.57.882.825 1.84 1.803 2.33 2.445l.584-.46c-.585-.71-1.754-1.831-2.703-2.665.105-.431.153-.853.172-1.246h2.78v5.464c0 .172-.058.23-.23.24-.201.009-.853.009-1.524-.02.105.192.21.527.24.719.853 0 1.447 0 1.782-.125.326-.115.432-.345.432-.805v-6.173zM77.387-53.209H73.62v-2.904h3.211v-1.131h-7.63v1.13h3.23v2.905h-3.728v1.15h3.728v3.173h1.189v-3.173h3.767v-1.15zM69.786-55.5c.307.642.604 1.476.7 1.994l1.111-.345c-.105-.537-.45-1.342-.766-1.956l-1.045.307zm5.598 1.975c.326-.489.709-1.266 1.054-2.004l-1.217-.306a11.36 11.36 0 0 1-.834 2.022l.997.288zM82.276-55.615c-.182.968-.45 1.831-.786 2.588-.46-.412-1.17-.891-1.792-1.255.259-.403.489-.854.71-1.333h1.868zm2.732-2.118h-.728v3.652c-.384-.45-.72-.92-.978-1.4l-.374.144c.048-.259.105-.527.144-.805l-.46-.173-.135.039h-1.801c.162-.422.306-.872.43-1.323l-.699-.144c-.44 1.716-1.236 3.297-2.29 4.275.162.106.469.336.584.46.22-.22.431-.47.632-.738.662.403 1.39.94 1.831 1.361-.719 1.294-1.696 2.224-2.837 2.818.173.106.441.365.565.528 1.822-1.017 3.26-2.924 3.96-5.943.383.651.881 1.294 1.428 1.878v4.093h.728v-3.393c.546.48 1.131.892 1.706 1.189.125-.192.345-.47.508-.604a8.364 8.364 0 0 1-2.214-1.515v-4.4zM94.93-54.78a9.705 9.705 0 0 1-.92 2.127 22.597 22.597 0 0 1-.384-2.626h2.962v-1.132h-.997l.46-.488c-.336-.317-1.035-.758-1.563-1.026l-.69.68c.393.24.873.547 1.227.834H93.56c-.02-.47-.029-.939-.02-1.418h-1.197c0 .479.019.949.038 1.418h-3.91v2.8c0 1.245-.068 2.913-.797 4.064.26.134.767.555.969.776.786-1.17.987-3.039 1.025-4.438h1.246c-.029 1.208-.067 1.668-.163 1.802-.077.096-.153.115-.287.115-.154 0-.48-.01-.825-.038.173.287.298.728.317 1.064.44.01.853.01 1.102-.029.288-.048.48-.134.661-.383.22-.279.278-1.132.307-3.144 0-.135.01-.432.01-.432h-2.368v-1.025h2.78c.125 1.437.335 2.78.661 3.862a7.318 7.318 0 0 1-1.955 1.553c.24.22.652.69.824.94a8.13 8.13 0 0 0 1.62-1.304c.422.786.949 1.265 1.62 1.265.891 0 1.275-.421 1.457-2.195a3.099 3.099 0 0 1-.968-.642c-.048 1.198-.163 1.678-.393 1.678-.307 0-.614-.403-.891-1.093a11.13 11.13 0 0 0 1.648-3.288l-1.14-.278zM7.885-45.815l-.43-.004c.024.11.037.249.037.39 0 .322-.033 1.187-.033 1.664 0 .557.342.775.852.775.752 0 1.205-.433 1.427-.751l-.239-.292c-.241.359-.594.691-1.181.691-.292 0-.51-.12-.51-.476 0-.464.023-1.239.04-1.611.003-.121.017-.262.037-.386zM12.407-43.443c0-.134.155-.211.4-.211.074 0 .148.006.218.02.003.054.003.104.003.148 0 .157-.083.248-.255.248-.228 0-.366-.087-.366-.205zm.927-1.842h-.362c.013.053.023.191.023.302v.51c0 .154.01.366.02.564a1.427 1.427 0 0 0-.171-.01c-.47 0-.735.194-.735.493 0 .322.302.48.705.48.402 0 .54-.208.54-.436 0-.04 0-.09-.003-.148.255.114.476.292.637.46l.182-.292a2.197 2.197 0 0 0-.836-.483c-.01-.218-.024-.453-.024-.604v-.048c.229-.003.584-.02.816-.043l-.007-.296a8.29 8.29 0 0 1-.809.051v-.202c0-.104.01-.241.024-.298zM18.642-44.288c0 .567-.56.865-1.383.966l.191.326c.9-.131 1.557-.557 1.557-1.279 0-.5-.362-.782-.862-.782-.39 0-.768.1-1.01.158a2.895 2.895 0 0 1-.333.053l.105.383c.087-.034.198-.077.298-.107.188-.054.517-.168.9-.168.332 0 .537.191.537.45zm-1.373-1.558l-.05.323c.382.067 1.08.134 1.46.157l.053-.325a9.547 9.547 0 0 1-1.463-.155zM22.016-45.597c0 .037-.006.147-.017.292a6.27 6.27 0 0 1-.44.05 2.08 2.08 0 0 1-.25.003l.033.343.637-.084-.02.288a17.27 17.27 0 0 1-.732.994l.209.292c.14-.195.339-.484.497-.715-.01.372-.01.564-.014.88 0 .053-.007.16-.01.22h.362a7.121 7.121 0 0 1-.017-.228c-.02-.305-.016-.543-.016-.835 0-.108.003-.225.01-.35.295-.271.63-.456 1.003-.456.4 0 .604.296.604.557.004.554-.466.806-1.043.893l.154.319c.779-.151 1.242-.527 1.238-1.205 0-.53-.412-.872-.899-.872-.312 0-.675.107-1.034.386l.014-.165c.053-.084.117-.181.157-.242l-.114-.14h-.003c.024-.219.05-.396.07-.484l-.392-.013c.013.09.013.184.013.272zM8.882-40.994v2.099H7.406v-2.1h1.476zm-1.476 4.927v-2.195h1.476v2.195H7.406zm2.128-5.57H6.735v6.95h.671v-.738h2.128v-6.211zm4.448 4.755v2.157h-3.077v-2.157h3.077zm-3.758 3.268h.68v-.46h3.078v.422h.7v-3.872h-4.458v3.91zm-.297-8.281v.661h1.591c-.182 1.189-.603 2.234-1.946 2.809.154.124.346.374.432.527 1.514-.68 2.003-1.908 2.204-3.336h1.889c-.087 1.591-.192 2.214-.336 2.377-.076.087-.163.096-.316.096-.144 0-.546 0-.978-.038.115.182.202.45.211.661.422.02.844.02 1.074 0 .258-.028.431-.096.584-.278.25-.278.355-1.073.45-3.163.01-.105.02-.316.02-.316H9.927zm8.724.623c.594-.125 1.16-.278 1.6-.441l-.479-.556c-.843.335-2.339.623-3.604.795.086.164.163.394.201.566a58.01 58.01 0 0 0 1.582-.23v1.591h-1.87v.662h1.688c-.432 1.198-1.198 2.51-1.927 3.24.134.172.316.46.403.651.613-.661 1.236-1.744 1.706-2.856v4.217h.7v-4.188c.412.536.948 1.255 1.17 1.62l.43-.585a52.899 52.899 0 0 0-1.6-1.85v-.25h1.668v-.66H18.65v-1.726zm2.693 5.76v-5.281h2.138v5.282h-2.138zm-.7-5.962v7.439h.7v-.786h2.138v.719h.709v-7.372h-3.546zM38.13-35.943v-2.377h.66v2.377h-.66zm.66-5.243v2.253h-.66v-2.253h.66zm2.378-.278c-.067 1.927-.134 2.617-.24 2.78-.057.096-.105.105-.191.105-.096 0-.25 0-.45-.028.076.153.114.383.133.536.183.01.384.01.518-.01.192-.019.316-.076.422-.23.182-.249.249-1.063.326-3.44v-.269h-2.253v.556h.652c-.067 1.284-.24 2.502-.825 3.23v-3.604h-1.6v7.343h.47v-.805h1.13v-2.79c.116.086.24.211.298.297.728-.814.949-2.185 1.025-3.67h.585zm-.134 4.39v2.32h-.93v-2.32h.93zm-1.419 3.566h.49v-.719h.929v.67h.498v-4.034h-1.917v4.083zm3.729-5.502h.719v-.661h-.72v-1.716c.336-.115.653-.26.921-.403l-.47-.517c-.46.306-1.284.603-2.013.795a2.3 2.3 0 0 1 .202.518c.259-.058.537-.134.815-.211v1.534h-.93v.66h.834c-.22 1.113-.633 2.464-1.036 3.164.106.153.26.403.317.585.297-.585.594-1.496.815-2.416v4.15h.546v-4.227c.21.451.46.988.566 1.266l.326-.47c-.125-.249-.69-1.294-.892-1.61v-.441zm1.438 3.633v-5.56h.814v5.56h-.814zm-.527-6.221v7.822h.527v-.93h.814v.776h.528v-7.668h-1.87zM65.9-37.323h-4.821v-1.735h4.82v1.735zm-4.821 2.444v-1.792h4.82v1.792h-4.82zm6.517-6.269v-.7h-8.31v.7h3.671c-.077.47-.182.997-.278 1.42h-2.31v6.133h.71v-.622h4.82v.622h.739v-6.134h-3.23c.124-.431.249-.93.364-1.419h3.824zm3.692 1.41c-.106 1.246-.326 2.3-.652 3.143-.336-.268-.69-.536-1.016-.776.173-.729.355-1.543.518-2.368h1.15zm.278-.672l-.125.02h-1.16c.134-.662.26-1.314.365-1.898l-.68-.067a64.72 64.72 0 0 1-.356 1.965h-.958v.651h.824a49.155 49.155 0 0 1-.709 3.154l.585.316.105-.412c.297.23.594.48.892.738-.422.815-.96 1.39-1.62 1.754.153.154.326.413.43.585.7-.431 1.276-1.035 1.717-1.85.345.335.642.661.853.94l.46-.576c-.24-.306-.594-.661-1.007-1.035.432-1.074.7-2.454.806-4.227l-.422-.058zm3.604 5.895v-2.367h1.869v-.652h-1.87v-2.08h1.985v-.67H75.17v-1.995h-.7v1.994h-1.093c.144-.47.259-.958.346-1.457l-.69-.124c-.221 1.274-.605 2.52-1.199 3.326.173.095.48.278.614.383.268-.403.508-.901.709-1.457h1.313v2.08h-1.85v.652h1.85v2.367h-2.52v.681h5.453v-.68H75.17zM85.545-36.527v1.6h-2.33v-1.6h2.33zm-3.413 3.019h1.084v-.403h2.329v.365h1.14v-3.998h-4.553v4.036zm-2.578-2.79v-1.753h.949v1.754h-.949zm.949-4.418v1.668h-.949v-1.668h.949zm1.37-1.294v1.035h1.247c-.134.987-.451 1.802-1.582 2.32v-3.077H78.48v7.179h1.074v-.728h1.984v-3.202c.211.211.422.527.518.748 1.543-.69 2.003-1.831 2.185-3.24h1.457c-.057 1.236-.134 1.745-.249 1.898-.086.086-.173.115-.317.115-.153 0-.498-.01-.872-.048.173.288.307.728.326 1.054.441.01.863.01 1.112-.029.297-.047.508-.134.7-.383.25-.297.345-1.15.422-3.21.009-.135.019-.432.019-.432h-4.965zM90.664-41.128v1.811h-1.792v-1.811h1.792zm-1.792 4.37v-1.907h1.792v1.907h-1.792zm2.453.662v-5.674h-3.124v6.556h.67v-.882h2.454zm1.515-1.218c.048-.43.058-.852.058-1.246v-.43h2.674v1.676H92.84zm2.732-3.968v1.64h-2.674v-1.64h2.674zm.69-.67h-4.055v3.392c0 1.486-.163 3.288-1.773 4.525.144.095.412.335.527.489 1.083-.834 1.572-1.975 1.783-3.116h2.828v2.109c0 .173-.067.23-.25.24-.153 0-.757.01-1.38-.01.115.182.23.498.269.69.814 0 1.342-.019 1.648-.124.307-.125.403-.345.403-.796v-7.4zm3.346 8.147l.652-.556c-.594-.7-1.457-1.572-2.147-2.128l-.623.546c.68.556 1.505 1.38 2.118 2.138zm14.944-6.93c-.096.958-.182 1.36-.326 1.485-.076.077-.153.087-.287.087-.153 0-.527-.01-.93-.048.106.172.173.421.192.613.402.02.786.02.997.01.249-.02.412-.077.565-.24.22-.22.345-.805.47-2.214.02-.096.029-.278.029-.278h-2.377c.057-.326.105-.671.124-1.045h-.661a6.91 6.91 0 0 1-.125 1.045h-1.84v.585h1.677c-.297.824-.882 1.437-2.051 1.84.134.115.297.355.364.498 1.361-.508 2.042-1.274 2.368-2.338h1.811zm-4.572 1.552v-.652h-1.131v-2.52h-.671v2.52h-1.188v.652h1.188v5.56h.67v-5.56h1.132zm1.102 1.822c.02-.317.039-.652.049-.988h-.624c-.01.336-.019.671-.038.988h-.968v.575h.91c-.124 1.16-.43 2.128-1.179 2.75.135.096.317.307.403.441.863-.747 1.236-1.85 1.39-3.191h.767c-.058 1.725-.134 2.358-.25 2.52-.057.077-.124.096-.23.096-.115 0-.325 0-.594-.019.087.144.144.393.153.566.269.01.547.01.71-.01.201-.019.345-.077.47-.24.191-.258.268-1.025.344-3.2.01-.097.01-.288.01-.288h-1.323zm3.135 0c.02-.317.038-.652.048-.997h-.633c-.01.345-.019.68-.038.997h-.93v.575h.872c-.134 1.17-.45 2.108-1.246 2.712.154.106.326.317.412.45.92-.728 1.294-1.81 1.457-3.162h.853c-.057 1.725-.124 2.348-.24 2.511-.057.086-.124.086-.239.086-.115 0-.364 0-.652-.019.077.153.135.403.154.585.306.01.604.01.786-.01a.63.63 0 0 0 .47-.24c.2-.258.268-1.025.335-3.2.01-.087.01-.288.01-.288h-1.42zM119.47-38.56h1.39v-1.054h-1.39v-1.466a12.19 12.19 0 0 0 1.429-.403l-.738-.892c-.872.345-2.272.652-3.518.825.125.25.26.632.307.891.44-.057.9-.124 1.37-.201v1.246h-1.705v1.054h1.428c-.374 1.055-.987 2.157-1.64 2.847.192.288.47.738.576 1.074.508-.566.958-1.39 1.342-2.291v3.412h1.15v-3.537c.316.45.623.93.805 1.256l.652-.949c-.21-.259-1.074-1.265-1.457-1.649v-.163zm2.761 2.742v-4.649h1.534v4.649h-1.534zm-1.121-5.742v7.592h1.121v-.757h1.534v.69h1.179v-7.525h-3.834zM128.118-38.051v-.7h2.07v.7h-2.07zm0-1.87h2.07v.68h-2.07v-.68zm4.86.68h-2.119v-.68h2.118v.68zm0 1.19h-2.119v-.7h2.118v.7zm1.36 1.083h-3.479v-.566h2.818v-2.904h-6.23v2.904h2.741v.566h-3.355v3.354h.671v-2.75h2.684v1.044c-.795.029-1.515.058-2.08.077l.058.623c1.092-.048 2.664-.125 4.207-.23.106.201.183.403.23.565l.556-.2c-.134-.49-.565-1.19-.987-1.707l-.527.163c.144.192.287.403.422.623l-1.208.048v-1.007h2.78v2.013c0 .115-.029.144-.144.144-.115.01-.48.01-.92 0 .076.163.163.403.2.575.624 0 1.017 0 1.266-.096.24-.105.297-.277.297-.613v-2.626zm-1.802-4.812v-.585h-.7v.585h-2.645v-.585h-.7v.585h-2.051v.613h2.051v.595h.7v-.595h2.646v.595h.7v-.595h2.118v-.613h-2.119zm7.64 3.297v-.642h-1.552v-1.294h1.764v-.661h-1.764v-1.266h-.7v1.266h-1.955v.66h1.955v1.295h-1.782v.642h1.782c-.01.46-.038.901-.105 1.342h-2.032v.661h1.888c-.25.901-.748 1.726-1.725 2.416.182.105.45.345.575.499 1.112-.825 1.639-1.822 1.888-2.915h2.051v-.66h-1.936c.058-.442.086-.892.096-1.343h1.553zm3.749-3.355l-.115.03h-2.972v8.204h.7v-7.553h1.936c-.345.767-.824 1.792-1.275 2.597 1.093.834 1.438 1.553 1.438 2.148 0 .354-.077.632-.316.757a1.162 1.162 0 0 1-.47.105c-.21.02-.527.01-.844-.019.125.201.202.489.211.69.298.02.643.02.92-.01.25-.028.49-.105.662-.22.364-.22.508-.652.508-1.236 0-.671-.278-1.438-1.37-2.31a47.25 47.25 0 0 0 1.495-2.857l-.508-.326zM8.13-28.612l-.312-.03c-.03.137-.057.279-.057.42 0 .332.295.51.842.51.255 0 .48-.024.665-.047l.01-.34c-.222.041-.45.068-.672.068-.429 0-.52-.138-.52-.289 0-.084.017-.188.044-.292zm-.383-1.85l-.402-.03c.006.075.003.199-.014.303-.006.063-.023.151-.04.252-.117.01-.231.013-.336.013-.127 0-.245-.007-.41-.027l.008.329c.12.01.245.013.399.013.084 0 .174-.003.272-.006l-.08.325c-.128.47-.373 1.161-.571 1.504l.366.124c.18-.38.409-1.07.53-1.544.037-.14.074-.295.107-.44.229-.026.463-.063.675-.114v-.332c-.195.05-.403.087-.608.118a10.469 10.469 0 0 1 .104-.487zm.266 1.021v.312c.21-.023.416-.037.634-.037.201 0 .4.02.57.044l.01-.322a5.723 5.723 0 0 0-.587-.027c-.215 0-.446.013-.627.03zM10.847-30.169l-.41-.007c.02.09.027.232.027.316 0 .201.004.604.038.9.09.882.402 1.204.741 1.204.245 0 .453-.198.665-.772l-.265-.312c-.078.305-.226.671-.393.671-.225 0-.363-.356-.413-.882a7.513 7.513 0 0 1-.024-.755c0-.091.017-.266.034-.363zm1.718.084l-.332.11c.34.403.53 1.148.587 1.726l.346-.135c-.043-.543-.292-1.312-.6-1.701zM15.064-30.437l-.43-.004c.024.11.038.249.038.39 0 .322-.034 1.187-.034 1.664 0 .557.342.775.853.775.751 0 1.204-.433 1.426-.751l-.239-.293c-.241.36-.593.692-1.18.692-.293 0-.51-.12-.51-.477 0-.463.023-1.238.04-1.61.003-.121.016-.262.036-.386zM18.63-28.065c0-.134.155-.211.4-.211.074 0 .148.006.218.02.003.054.003.104.003.148 0 .157-.083.248-.255.248-.228 0-.365-.087-.365-.205zm.927-1.842h-.362c.013.053.023.191.023.302v.51c0 .154.01.366.02.564a1.428 1.428 0 0 0-.171-.01c-.47 0-.735.194-.735.493 0 .322.302.48.705.48s.54-.208.54-.436c0-.04 0-.09-.003-.148.255.114.476.292.637.46l.182-.292a2.197 2.197 0 0 0-.836-.483c-.01-.219-.024-.454-.024-.604v-.048c.229-.003.584-.02.816-.043l-.007-.296c-.231.03-.584.047-.809.05v-.2c0-.105.01-.242.024-.3zM23.905-28.91c0 .567-.56.865-1.383.966l.192.326c.9-.131 1.557-.558 1.557-1.28 0-.5-.363-.781-.863-.781-.389 0-.768.1-1.01.158a2.895 2.895 0 0 1-.332.053l.104.383c.087-.034.198-.077.299-.107.188-.054.517-.168.9-.168.331 0 .536.191.536.45zm-1.373-1.558l-.05.322c.383.068 1.08.135 1.46.158l.054-.325a9.547 9.547 0 0 1-1.463-.155zM14.979-23.517v-.729h-3.96c.135-1.006.145-1.955.154-2.722h-.767c-.01.757 0 1.716-.143 2.722H6.61v.729h3.538c-.393 1.812-1.352 3.652-3.73 4.687.202.144.432.393.538.585 2.329-1.064 3.364-2.904 3.824-4.745.757 2.176 1.975 3.873 3.815 4.745.125-.21.364-.508.537-.671-1.85-.757-3.096-2.492-3.767-4.601h3.614zm5.982 4.17v-2.991h2.99v-.7h-2.99v-2.55h3.354v-.69h-7.85v.69h3.767v6.24h-2.108v-4.485h-.72v4.486h-1.303v.7h8.531v-.7h-3.671zM41.753-23.642v-.719h-1.754c.038-.833.048-1.696.048-2.568h-.643c0 .872 0 1.735-.038 2.568h-1.754v.72h1.706c-.153 2.099-.613 3.939-1.984 5.05.172.106.393.308.498.461 1.064-.892 1.61-2.195 1.898-3.71.307 1.563.806 2.857 1.62 3.643.105-.182.326-.441.489-.556-1.035-.901-1.543-2.77-1.792-4.889h1.706zm2.923 4.467v-3.144h1.505v-.671h-1.505v-2.78h1.601v-.67h-4.218v.67h2.004v6.595h-.93v-4.783h-.594v4.783h-.68v.671h4.514v-.671h-1.697zM67.695-23.335v-1.179H63.93c.095-.891.105-1.773.115-2.56h-1.247c-.009.787 0 1.66-.095 2.56h-3.49v1.18h3.298c-.374 1.648-1.285 3.239-3.48 4.217.336.24.671.651.854.968 2.031-.978 3.067-2.473 3.584-4.074.748 1.85 1.86 3.25 3.595 4.064.182-.326.556-.834.843-1.073-1.792-.729-2.952-2.234-3.585-4.103h3.374zM76.17-22.223l-.163.038H69.2v.614h5.809c-.518.249-1.14.498-1.735.68H72.7v1.87c0 .143-.058.191-.26.191-.181.02-.929.02-1.676-.01.115.183.22.451.258.633.959.01 1.563 0 1.927-.096.374-.086.489-.278.489-.69v-1.351c1.15-.345 2.377-.873 3.25-1.448l-.518-.431zm-.978-1.14h-4.285v-.978h4.285v.977zm.748-1.496h-5.732v2.003h5.732v-2.003zm-2.57-1.227v-.9h-.737v.9h-3.796v.633h8.377v-.633h-3.843zm10.105 2.579c-.269-.652-.882-1.592-1.515-2.291l-.633.316c.604.7 1.218 1.677 1.477 2.339l.67-.364zm-1.362 1.86c-.632.267-1.274.545-1.888.804l-.144-5.655-.728.029.163 5.923c-.499.211-.95.394-1.323.537l.259.738a254.57 254.57 0 0 0 3.824-1.696l-.163-.68zm4.975 2.836c-.489-.709-1.505-1.773-2.358-2.636.671-1.284 1.035-2.914 1.265-4.965l-.776-.076c-.422 4.14-1.438 6.46-4.725 7.668.172.143.47.47.565.613 1.495-.623 2.54-1.457 3.288-2.588.814.863 1.706 1.87 2.147 2.53l.594-.546zM93.099-19.606v-2.521h2.703v-1.112h-2.703v-2.109H96.3v-1.112h-8.118v1.112h3.7v5.742h-1.659v-4.256h-1.198v4.256h-1.179v1.121h8.713v-1.121H93.1zM99.609-18.427l.651-.556c-.594-.7-1.456-1.572-2.146-2.128l-.624.546c.681.556 1.505 1.38 2.119 2.138zm15.701-4.131v-.729h-3.642c.01-.182.01-.364.01-.537v-1.696h3.872v-.729h-8.368v.729h3.748v1.687c0 .182 0 .364-.02.546h-3.43v.729h3.354c-.259 1.39-1.112 2.798-3.834 3.728.153.134.364.441.431.613 2.56-.881 3.595-2.204 3.997-3.584.729 1.821 1.927 3.029 3.882 3.584.106-.2.317-.507.49-.66-2.061-.509-3.289-1.793-3.912-3.681h3.422zm8.963-2.579l-.153.048h-2.828v-1.879h-.709v1.879h-3.45v.68h6.517c-1.006 1.457-2.78 3.23-4.409 4.295a2.798 2.798 0 0 1-.575-.834c.115-.24.21-.46.297-.662l-.69-.277c-.374 1.025-1.093 2.386-1.773 3.23l.68.412c.412-.614.806-1.323 1.14-1.984.93 1.505 2.436 1.83 4.544 1.83h2.224c.038-.2.163-.527.269-.7-.432.01-2.138.01-2.454.01-1.227 0-2.291-.115-3.096-.584 1.869-1.266 3.882-3.326 5.003-5.129l-.537-.335zm9.079 2.06h-3.173v-.795h3.173v.796zm0 1.314h-3.173v-.795h3.173v.795zm0 1.323h-3.173v-.805h3.173v.805zm-3.844-3.978v4.524h4.543v-4.524H131.8c.086-.23.182-.499.268-.757h2.732v-.595h-1.735c.21-.297.45-.68.652-1.035l-.71-.182a9.583 9.583 0 0 1-.67 1.217h-1.563l.25-.105c-.116-.326-.413-.777-.71-1.083l-.546.21c.24.298.48.681.603.978h-1.62v.595h2.54c-.038.249-.095.517-.143.757h-1.639zm-.959-.853c-.335-.46-1.054-1.074-1.668-1.476l-.527.431c.623.422 1.333 1.054 1.63 1.514l.565-.47zm-.268 2.042h-2.032v.67h1.333v2.426c-.48.402-1.017.805-1.458 1.092l.384.72c.508-.413.987-.825 1.447-1.228.614.738 1.467 1.083 2.713 1.131 1.054.039 3.02.02 4.064-.019.029-.22.153-.556.23-.728-1.121.076-3.25.105-4.294.067-1.103-.048-1.936-.374-2.387-1.074v-3.057zm10.947 4.15c-.93 0-1.121-.163-1.121-.834v-3.22l1.984-.614v3.48h.7v-3.7l2.185-.681c-.019 1.38-.077 2.29-.22 2.703-.125.383-.288.45-.499.45-.172 0-.623 0-.958-.028.095.163.163.479.182.661.345.01.824 0 1.121-.048.326-.048.585-.23.767-.719.201-.556.278-1.715.307-3.508l.038-.134-.498-.22-.144.105-.058.048-2.223.69v-2.32h-.7v2.53l-1.984.614v-2.51h-.69v2.721l-1.754.537.191.642 1.563-.489v2.99c0 1.199.422 1.506 1.84 1.506h3.355c1.38 0 1.668-.508 1.812-2.051a2.251 2.251 0 0 1-.662-.288c-.124 1.37-.268 1.687-1.16 1.687h-3.374zM8.986-15.04l-.366-.033a1.41 1.41 0 0 1-.023.285 2.66 2.66 0 0 1-.04.205c-.283.01-.551.074-.823.225a5.933 5.933 0 0 1-.07-.238c-.024-.098-.05-.208-.071-.306l-.349.108c.05.104.09.211.124.325.03.094.06.195.094.292-.305.259-.507.664-.507 1.047 0 .413.232.634.497.634.248 0 .447-.14.661-.392.044.057.09.11.141.168l.265-.215a1.805 1.805 0 0 1-.194-.222c.191-.285.352-.698.473-1.11.39.084.634.389.634.798 0 .473-.346.846-1.064.91l.202.302c.708-.104 1.201-.51 1.201-1.198 0-.58-.362-1-.896-1.104.017-.061.03-.121.044-.182.016-.073.043-.211.067-.298zm-1.722 1.887c0-.239.118-.517.309-.719.1.259.211.5.315.658.014.02.027.04.037.06-.137.182-.292.32-.44.32-.137 0-.22-.125-.22-.32zm.826-.34a3.784 3.784 0 0 1-.259-.58c.195-.114.403-.195.645-.211-.094.302-.218.61-.356.842a4.417 4.417 0 0 1-.03-.05zM12.287-14.791l-.41-.007c.02.09.027.232.027.316a9 9 0 0 0 .037.9c.09.882.403 1.204.742 1.204.245 0 .453-.198.664-.772l-.265-.312c-.077.305-.225.671-.393.671-.224 0-.362-.356-.412-.882-.024-.262-.027-.544-.024-.755 0-.091.017-.266.034-.363zm1.718.084l-.332.11c.339.403.53 1.148.587 1.726l.346-.135c-.044-.543-.292-1.312-.601-1.701zM9.237-10.373v1.811H7.445v-1.811h1.792zm-1.792 4.37V-7.91h1.792v1.907H7.445zm2.453.662v-5.674H6.774v6.556h.67v-.882h2.454zm1.515-1.218c.048-.43.057-.852.057-1.245v-.432h2.675v1.677h-2.732zm2.732-3.968v1.64H11.47v-1.64h2.675zm.69-.67H10.78v3.393c0 1.485-.163 3.287-1.773 4.524.144.096.412.335.527.489 1.083-.834 1.572-1.975 1.783-3.116h2.828v2.11c0 .172-.067.23-.25.239-.153 0-.757.01-1.38-.01.115.182.23.499.269.69.814 0 1.341-.019 1.648-.124.307-.125.403-.345.403-.796v-7.4zM20.72-14.768l-.235.101c.117.164.221.353.312.547l.241-.107a4.867 4.867 0 0 0-.318-.54zm.442-.174l-.231.107c.117.158.225.34.322.53l.239-.113c-.081-.151-.239-.4-.33-.524zm-1.342-.097l-.43-.004c.027.114.037.252.037.39 0 .325-.033 1.188-.033 1.664 0 .56.342.779.852.779.752 0 1.202-.437 1.427-.755l-.239-.29c-.241.357-.59.689-1.18.689-.293 0-.514-.12-.514-.477 0-.463.027-1.238.043-1.61a3.16 3.16 0 0 1 .037-.386zM18.708-10.536c-.403-.345-1.189-.767-1.83-1.007l-.394.537c.652.259 1.419.71 1.802 1.054l.422-.584zm-.48 2.463c-.421-.306-1.236-.68-1.868-.891l-.394.546c.652.24 1.458.652 1.85.959l.413-.614zm-1.341 5.09a39.17 39.17 0 0 0 1.715-3.086l-.527-.46c-.546 1.082-1.274 2.329-1.792 3.067l.604.479zm6.326-3.039v2.1h-3.25v-2.1h3.25zm-3.94 3.173h.69v-.422h3.25v.393h.71v-3.805h-4.65v3.834zm2.905-6.997c.364.412.757.9 1.102 1.38-1.093.058-2.185.106-3.134.153.46-.91.968-2.108 1.36-3.105l-.814-.201c-.287 1.015-.834 2.386-1.313 3.335l-.91.039.086.7c1.332-.077 3.268-.173 5.147-.288.182.278.335.546.44.776l.653-.364c-.384-.757-1.227-1.898-2.004-2.732l-.613.307zM43.325-8.054l.057.633a220.52 220.52 0 0 0 2.263-.47c.086.297.153.575.2.805l.528-.278c-.153-.709-.527-1.802-.853-2.635l-.48.258c.144.393.307.853.441 1.304-.393.067-.766.144-1.111.201.23-.92.479-2.147.67-3.125l-.584-.201a31.485 31.485 0 0 1-.671 3.432l-.46.076zm.345-2.099c-.201-.326-.652-.796-1.055-1.13l-.393.392c.393.355.834.853 1.036 1.189l.412-.45zm-4.755-.431V-8.4h-.728v-2.185h.729zm-.728 4.888v-2.08h.729v2.08h-.729zm1.208.623v-6.134h-1.697v7.083h.49v-.949h1.207zm.94-1.495c.018-.374.028-.728.028-1.064v-.652h.882v1.716h-.91zm.91-4.016v1.649h-.882v-1.65h.882zm.546-.662h-1.946v3.614c0 1.4-.076 3.26-.9 4.563.114.057.344.23.43.325.566-.89.816-2.06.92-3.172h.95v2.32c0 .114-.029.143-.125.143s-.402 0-.719-.01c.077.173.144.46.163.614.46 0 .776-.01.968-.115.202-.115.26-.297.26-.633v-7.649zm1.543 3.413c-.21-.278-.68-.68-1.064-.968l-.364.43c.384.298.834.73 1.055 1.036l.373-.498zm-.853 4.84c.346-.872.729-2.05 1.007-3l-.48-.374a26.358 26.358 0 0 1-1.063 2.991l.536.383zm2.99-3.364v2.3H44.37v-2.3h1.102zm-1.657 3.575h.556v-.69h1.102v.652h.556v-4.112h-2.214v4.15zM66.763-7.939h-2.07v-2.358h2.07v2.358zm.69-2.971H64.05v3.594h3.403v-3.594zm-6.92 2.482h1.897v.585c-.661.048-1.303.086-1.898.125v-.71zm1.897-2.262v.614h-1.898v-.614h1.898zm-1.898 1.112h1.898v.652h-1.898v-.652zm-1.37 2.53c.881-.066 2.08-.153 3.268-.248v.613h.652v-4.007h.594v-.556h-4.438v.556h.652v3.01c-.288.02-.556.029-.795.038l.066.595zm4.62 3.423v-.834h2.799v-.585h-2.8v-.795h3.26v-.585H59.9v.585h3.172v.795h-2.75v.585h2.75v.834h-3.94v.604h8.618v-.604h-3.968zm8.752-7.688c-.067 1.265-.067 5.838-3.95 7.822.221.144.451.374.576.546 2.425-1.313 3.412-3.623 3.834-5.54.46 1.917 1.515 4.37 3.987 5.54.106-.191.326-.431.528-.584-3.605-1.65-4.122-6.078-4.208-7.343.01-.163.01-.316.019-.44h-.786zm8.33 3.317c.24.354.49.834.585 1.16l.585-.211c-.096-.317-.355-.777-.604-1.122l-.566.173zm4.199 3.307v-.595h-2.138v-.968H84.9v-.584h-1.16c.22-.336.441-.767.652-1.17l-.614-.172c-.153.393-.431.958-.661 1.342h-2.732v.584h1.86v.968h-2.061v.595h2.06v1.648h.681v-1.648h2.138zm1.744-5.291v-.671h-3.815v-.95h-.776v.95H78.43v.67h3.786v1.017h-3.269v6.105h.7v-5.444h5.933v4.62c0 .154-.047.201-.22.211-.163.01-.748.01-1.352-.019.096.182.211.45.26.642.766 0 1.312 0 1.62-.115.306-.105.411-.297.411-.719v-5.281h-3.307V-9.98h3.815zm8.436 5.962h-1.438v-4.41h1.438v4.41zm-6.125-4.41h1.361v4.41h-1.36v-4.41zm4.036 1.055H91.13v-1.055h2.023v1.055zM91.13-5.13h2.023v1.112H91.13V-5.13zm2.023-.585H91.13v-1.074h2.023v1.074zm3.268-4.572v-.68h-8.425v.68h3.67a14.67 14.67 0 0 1-.277 1.198h-2.962v6.24h.69v-.508h6.125v.508h.72v-6.24h-3.845c.125-.364.26-.795.374-1.198h3.93zm9.644-.106v-.709h-8.531v.71h3.71c-.087.45-.211.968-.336 1.39h-2.885v6.153h.719v-5.483h1.514v5.167h.7v-5.167h1.582v5.167h.7v-5.167h1.629v4.573c0 .143-.048.182-.192.191-.144.01-.623.02-1.17 0 .106.182.211.47.25.662.69 0 1.17-.01 1.457-.125.278-.115.364-.307.364-.719v-5.253h-3.92c.144-.412.306-.91.44-1.39h3.969zm3.452 1.294h-1.294v-1.36h1.294v1.36zm-1.294 2.56h1.294v1.39c-.441.067-.882.124-1.294.172v-1.562zm1.294-.604h-1.294v-1.361h1.294v1.36zm3.996.086h-.853v-1.505h.853v1.505zm.509-1.505h.862v1.505h-.862v-1.505zm-1.86 1.505h-.815v-1.505h.815v1.505zm-1.543-3.402v.47h2.137v.862h-2.003v2.636h4.754v-2.636h-2.07v-.863h2.176v-.604h-2.176v-.92h-.68v.92h-2.11v-.498h-3.565v.633h.508V-4.9c-.24.029-.45.048-.652.067l.087.68c.709-.095 1.59-.22 2.492-.354v1.639h.642v-7.591h.46zm1.63 4.38c.507.307 1.111.786 1.399 1.16l.46-.432c-.288-.345-.892-.814-1.419-1.093l-.44.365zm-1.458 2.837c.432-.508.662-1.36.806-2.08l-.576-.182c-.124.69-.364 1.476-.776 1.936l.546.326zm2.119-.278c-.278 0-.317-.029-.317-.25v-1.763h-.632v1.774c0 .66.163.843.862.843h1.026c.566 0 .738-.25.805-1.303-.182-.049-.45-.145-.585-.25-.019.844-.067.95-.297.95h-.862zm1.351-1.811c.48.622.892 1.476 1.026 2.06l.594-.268c-.144-.585-.556-1.419-1.073-2.042l-.547.25zm10.631-1.85v-.729h-3.642c.009-.182.009-.364.009-.537v-1.696h3.873v-.729h-8.368v.729h3.748v1.687c0 .182 0 .364-.019.546h-3.432v.729h3.355c-.259 1.39-1.112 2.798-3.834 3.728.153.134.364.441.431.614 2.559-.882 3.595-2.205 3.997-3.585.729 1.821 1.927 3.029 3.882 3.585.106-.202.316-.508.489-.662-2.061-.508-3.288-1.792-3.911-3.68h3.422zm9.884-3.01v-.71h-8.464v.71h3.661v7.323h.758V-7.91c1.092.585 2.377 1.37 3.029 1.907l.498-.642c-.757-.575-2.262-1.438-3.403-1.984l-.124.144v-1.706h4.045zm3.173 7.14l.652-.555c-.594-.7-1.457-1.572-2.147-2.128l-.623.546c.68.556 1.505 1.38 2.118 2.138zm13.21-8.252h-3.068v.45h3.068v-.45zM147.651-9.3a3.7 3.7 0 0 1-.23.7l-.862.057c.45-.546.958-1.236 1.351-1.83l-.527-.23c-.144.259-.345.565-.556.872a6.435 6.435 0 0 0-.441-.393c.259-.364.556-.853.805-1.275l-.536-.21a8.674 8.674 0 0 1-.633 1.197 5.51 5.51 0 0 0-.336-.24l-.335.403c.383.288.843.671 1.14.988a8.939 8.939 0 0 1-.613.766l-.565.039.076.575c.518-.048 1.102-.106 1.726-.163-.413.604-1.007 1.054-1.745 1.361.125.115.316.364.384.48 1.246-.576 2.146-1.534 2.491-3l-.594-.097zm2.972 4.4v.747h-1.879V-4.9h1.879zm.623 1.188V-5.35h-3.106v1.956h.604v-.317h2.502zm-.882-6.393v.374h-1.428v-.374h1.428zm-1.428 1.14v-.392h1.428v.393h-1.428zm4.304 2.598h-3.451c.105-.182.211-.383.306-.594l-.613-.125h1.582v-.393h-2.128v-.354h2.118v-.393h-2.118v-.355h2.003v-1.917h-2.588v3.738h.585v-.326h.441c-.058.211-.163.48-.259.72h-2.876v3.498h.681V-5.83h5.636v2.262c0 .115-.038.144-.182.154-.125.01-.614.01-1.141-.01.086.163.163.393.202.556.728 0 1.188.01 1.447-.086.287-.096.355-.269.355-.614v-2.799zm.393-4.965l-.087.029h-2.061v4.62h.604v-4.083h1.17a29.46 29.46 0 0 1-.604 1.332c.575.499.834.872.843 1.208 0 .182-.057.345-.191.422a.81.81 0 0 1-.259.057 4.08 4.08 0 0 1-.662-.019c.106.144.183.374.192.537.24.019.518.01.709-.01a.887.887 0 0 0 .422-.144c.24-.144.384-.421.374-.786-.009-.402-.259-.853-.824-1.36.287-.519.565-1.046.805-1.582l-.431-.221zM157.48-10.153V-8.8h-1.236v-1.352h1.237zm-1.236 3.786v-1.418h1.237v1.418h-1.237zm2.29 1.036v-5.857h-3.344v6.68h1.054v-.823h2.29zm1.736-1.458c.038-.373.048-.738.048-1.083v-.143h2.06v1.226h-2.108zm2.108-3.479v1.227h-2.06v-1.227h2.06zm1.132-1.054h-4.314v3.45c0 1.458-.144 3.24-1.754 4.429.24.144.68.537.853.757 1.074-.786 1.591-1.927 1.83-3.077h2.253v1.687c0 .163-.057.22-.23.22-.162.01-.747.02-1.265-.01.163.289.355.787.403 1.103.795 0 1.342-.028 1.725-.21.374-.183.499-.49.499-1.093v-7.256zM173.172-10.393v-.709h-8.53v.71h3.709c-.086.45-.211.968-.336 1.39h-2.885v6.153h.719v-5.483h1.514v5.167h.7v-5.167h1.582v5.167h.7v-5.167h1.629v4.573c0 .143-.048.182-.192.191-.143.01-.623.02-1.169 0 .105.182.21.47.25.662.69 0 1.169-.01 1.456-.125.278-.115.364-.307.364-.719v-5.253h-3.92c.144-.412.307-.91.441-1.39h3.968zM176.701-7.383c1.304-.096 3.125-.22 4.889-.354.153.278.287.556.383.786l1.055-.595c-.355-.786-1.141-1.936-1.898-2.798l-.997.507c.268.326.546.7.805 1.074-.757.048-1.514.096-2.224.134.422-.843.863-1.869 1.227-2.808l-1.313-.278c-.25.958-.69 2.204-1.131 3.144-.336.019-.652.028-.93.038l.134 1.15zm.317-3.336c-.413-.325-1.208-.737-1.84-.968l-.624.873c.623.259 1.419.709 1.783 1.045l.68-.95zm-.556 2.531c-.412-.316-1.246-.7-1.86-.91l-.623.872c.623.249 1.438.68 1.812 1.006l.67-.968zm-1.18 5.31c.566-.93 1.16-2.022 1.65-3.019l-.854-.757c-.565 1.112-1.274 2.3-1.783 3.02l.988.756zm5.713-2.818v1.505h-2.54v-1.505h2.54zm-3.642 2.943h1.102v-.393h2.54v.355h1.16v-3.96h-4.802v3.998z"/></svg>