<svg xmlns="http://www.w3.org/2000/svg" width="166.787" height="28.24" viewBox="0 -21.18 125.09 21.18"><path d="M4.98-21.18a4.608 4.608 0 0 0-4.612 4.613 4.609 4.609 0 0 0 4.613 4.612 4.608 4.608 0 0 0 4.611-4.612 4.608 4.608 0 0 0-4.611-4.612zm0 .28a4.336 4.336 0 0 1 4.334 4.333 4.336 4.336 0 0 1-4.333 4.333 4.336 4.336 0 0 1-4.333-4.333A4.336 4.336 0 0 1 4.98-20.9zm-1.075 2.51c.368-.14.528-.19.647-.19.15 0 .19.13.19.449v3.337c0 .558-.04.607-.977.607v.28h2.58v-.28c-.896 0-.946-.05-.946-.607v-4.523l-.09-.05c-.378.23-.806.449-1.504.708l.1.269zm11.038-2.79a4.608 4.608 0 0 0-4.612 4.613 4.609 4.609 0 0 0 4.612 4.612 4.608 4.608 0 0 0 4.612-4.612 4.608 4.608 0 0 0-4.612-4.612zm0 .28a4.336 4.336 0 0 1 4.333 4.333 4.336 4.336 0 0 1-4.333 4.333 4.336 4.336 0 0 1-4.333-4.333 4.336 4.336 0 0 1 4.333-4.333zm-1.623 6.962c.358 0 .667-.159.906-.438.319-.398.478-1.095.478-2.231 0-1.275-.219-2.59-1.385-2.59-1.275 0-1.384 1.594-1.384 2.59 0 1.136.16 1.833.488 2.231.239.299.528.438.896.438zm-.01-4.98c.179 0 .338.06.468.259.199.279.318.866.318 2.062 0 1.424-.109 2.39-.787 2.39-.179 0-.338-.069-.478-.288-.169-.28-.288-.867-.288-2.102 0-1.196.119-1.783.308-2.062.13-.2.29-.26.458-.26zm2.5.638c.249-.11.398-.15.498-.15.14 0 .17.12.17.408v3.128c0 .518-.03.568-.728.568v.269h2.022v-.269c-.677 0-.717-.05-.717-.568v-4.243l-.09-.06c-.338.24-.767.468-1.255.668l.1.249zm9.096-2.9a4.608 4.608 0 0 0-4.612 4.613c0 2.55 2.062 4.612 4.612 4.612s4.612-2.062 4.612-4.612a4.608 4.608 0 0 0-4.612-4.612zm0 .28a4.336 4.336 0 0 1 4.333 4.333c0 2.39-1.943 4.333-4.333 4.333s-4.333-1.943-4.333-4.333a4.336 4.336 0 0 1 4.333-4.333zm1.424 7.072c.409 0 .757-.16 1.016-.458.369-.408.558-1.156.558-2.351 0-1.454-.309-2.73-1.574-2.73-1.354 0-1.574 1.465-1.574 2.73 0 1.195.19 1.943.558 2.351.379.428.817.458 1.016.458zm-.01-5.25c.2 0 .399.06.548.27.23.298.369.916.369 2.181 0 1.534-.14 2.51-.917 2.51-.209 0-.388-.06-.558-.299-.199-.298-.338-.916-.338-2.211 0-1.265.15-1.883.358-2.182.21-.269.429-.269.538-.269zm-4.263.708c.259-.12.418-.18.518-.18.15 0 .18.12.18.439v3.297c0 .538-.03.588-.778.588v.288h2.142v-.288c-.707 0-.747-.05-.747-.588v-4.463l-.09-.06c-.368.25-.787.489-1.325.698l.1.269zm12.811-2.81a4.608 4.608 0 0 0-4.612 4.613 4.609 4.609 0 0 0 4.612 4.612 4.608 4.608 0 0 0 4.612-4.612 4.608 4.608 0 0 0-4.612-4.612zm0 .28a4.336 4.336 0 0 1 4.334 4.333 4.336 4.336 0 0 1-4.334 4.333 4.336 4.336 0 0 1-4.333-4.333 4.336 4.336 0 0 1 4.333-4.333zm-.298 6.962c.986 0 1.016-1.703 1.016-2.669 0-1.086-.11-1.813-.36-2.212-.149-.229-.368-.378-.656-.378-.907 0-1.007 1.385-1.007 2.59 0 .926.03 2.67 1.007 2.67zm0-4.98c.418 0 .458.727.458 2.321 0 1.663-.04 2.39-.458 2.39-.419 0-.449-.806-.449-2.39 0-1.275 0-2.321.449-2.321zm2.61 4.98c.976 0 1.005-1.673 1.005-2.669 0-1.215-.1-2.59-1.006-2.59s-1.006 1.385-1.006 2.59c0 .926.03 2.67 1.006 2.67zm-.01-4.98c.139 0 .238.06.308.259.12.279.16.866.16 2.062 0 1.235-.04 1.823-.14 2.102-.08.229-.18.289-.329.289-.448 0-.448-1.106-.448-2.391 0-1.235.01-2.321.448-2.321zm-4.832 4.024c0 .518-.03.568-.528.568v.269h1.564v-.269c-.478 0-.518-.05-.518-.568v-4.243l-.08-.06c-.308.24-.717.478-1.076.628l.1.249a.97.97 0 0 1 .379-.11c.13 0 .159.12.159.408v3.128zM43.102-12.085h8.965v-8.965h-8.965v8.965zm8.686-8.686v8.407H43.38v-8.407h8.408zm-5.29 2.222c.25-.08.409-.15.558-.15.17 0 .2.14.2.438v3.587c0 .547-.06.597-.838.597v.28h2.302v-.28c-.748 0-.807-.05-.807-.597v-4.732l-.08-.05c-.369.239-.817.438-1.415.647l.08.26zM53.072-12.085h8.965v-8.965h-8.965v8.965zm8.687-8.686v8.407H53.35v-8.407h8.408zm-6.904 4.164c0-1.594.22-2.57.867-2.57.19 0 .389.08.538.319.18.299.349.996.349 2.251s-.14 1.952-.31 2.251c-.158.279-.338.379-.567.379-.747 0-.877-1.176-.877-2.63zm-.597 0c0 1.185.19 1.982.488 2.39.14.19.468.528.986.528.379 0 .707-.189.966-.527.32-.439.508-1.186.508-2.391 0-1.156-.189-1.972-.548-2.4a1.161 1.161 0 0 0-.926-.449c-1.285 0-1.474 1.654-1.474 2.849zm4.084-1.903c.239-.08.498-.17.627-.17.14 0 .18.12.18.43v3.566c0 .537-.07.587-.847.587v.28h2.162v-.28c-.718 0-.767-.05-.767-.587v-4.732l-.08-.04c-.339.249-.847.498-1.365.687l.09.26zm4.693 6.425H72v-8.965h-8.965v8.965zm8.686-8.686v8.407h-8.407v-8.407h8.407zm-4.104 4.164c0 1.185.19 1.982.498 2.39.14.19.448.528.976.528.379 0 .717-.189.977-.527.318-.439.498-1.186.498-2.391 0-1.365-.25-2.85-1.475-2.85-.398 0-.707.18-.926.45-.299.348-.548 1.045-.548 2.4zm.598 0c0-1.255.17-1.952.348-2.251.12-.18.3-.319.528-.319.19 0 .389.08.538.319.18.299.339.996.339 2.251s-.14 1.952-.309 2.251c-.15.279-.339.379-.568.379-.199 0-.398-.1-.568-.379-.139-.259-.308-.896-.308-2.251zm-3.686-1.903c.24-.08.498-.17.628-.17.14 0 .179.12.179.43v3.566c0 .537-.07.587-.847.587v.28h2.162v-.28c-.717 0-.767-.05-.767-.587v-4.732l-.08-.04c-.338.249-.847.498-1.365.687l.09.26zm8.469 6.425h8.965v-8.965h-8.965v8.965zm8.686-8.686v8.407h-8.408v-8.407h8.408zm-2.321 4.164c0-1.395 0-2.57.548-2.57.547 0 .558 1.205.558 2.57 0 1.444 0 2.63-.558 2.63-.548 0-.548-1.216-.548-2.63zm-.578 0c0 1.235.09 2.918 1.126 2.918 1.105 0 1.125-2.002 1.125-2.918 0-1.156-.12-1.972-.388-2.4-.16-.27-.379-.449-.737-.449-.349 0-.568.18-.737.448-.32.498-.389 1.474-.389 2.401zm-2.819 0c0 1.185.12 1.982.359 2.39.258.449.538.528.767.528 1.075 0 1.125-1.812 1.125-2.918 0-1.156-.12-1.972-.388-2.4-.16-.27-.379-.449-.737-.449-1.046 0-1.126 1.753-1.126 2.849zm.578 0c0-1.365 0-2.57.548-2.57.547 0 .558 1.205.558 2.57 0 1.255-.04 1.952-.15 2.251-.1.279-.22.379-.408.379-.548 0-.548-1.216-.548-2.63zm-2.63-1.962c.17-.08.309-.11.418-.11.14 0 .18.12.18.428v3.567c0 .537-.06.587-.658.587v.28h1.773v-.28c-.527 0-.578-.05-.578-.587v-4.732l-.09-.04c-.318.239-.766.488-1.135.617l.09.27zM85.725-13.14c0 .597.448 1.055 1.056 1.055h6.853c.598 0 1.056-.448 1.056-1.056v-6.853c0-.598-.448-1.056-1.056-1.056H86.78c-.598 0-1.056.448-1.056 1.056v6.853zm7.909-7.63c.448 0 .777.328.777.776v6.853a.754.754 0 0 1-.777.777H86.78a.754.754 0 0 1-.777-.777v-6.853c0-.448.328-.777.777-.777h6.853zm-4.513 2.22c.25-.08.409-.149.559-.149.169 0 .199.14.199.438v3.587c0 .547-.06.597-.837.597v.28h2.301v-.28c-.747 0-.807-.05-.807-.597v-4.732l-.08-.05c-.368.239-.817.438-1.414.647l.08.26zm6.566 5.41c0 .597.448 1.055 1.056 1.055h6.853c.598 0 1.056-.448 1.056-1.056v-6.853c0-.598-.448-1.056-1.056-1.056h-6.853c-.597 0-1.056.448-1.056 1.056v6.853zm7.909-7.63c.449 0 .778.328.778.776v6.853a.754.754 0 0 1-.778.777h-6.853a.754.754 0 0 1-.777-.777v-6.853c0-.448.329-.777.777-.777h6.853zm-6.125 4.163c0-1.594.219-2.57.866-2.57.19 0 .388.08.538.319.18.299.349.996.349 2.251s-.14 1.952-.31 2.251c-.159.279-.338.379-.567.379-.747 0-.876-1.176-.876-2.63zm-.598 0c0 1.185.19 1.982.488 2.39.14.19.468.528.986.528.379 0 .707-.189.966-.527.32-.439.508-1.186.508-2.391 0-1.156-.189-1.972-.548-2.4a1.161 1.161 0 0 0-.926-.449c-1.285 0-1.474 1.654-1.474 2.849zm4.084-1.903c.239-.08.498-.17.627-.17.14 0 .18.12.18.43v3.566c0 .537-.07.587-.847.587v.28h2.162v-.28c-.718 0-.768-.05-.768-.587v-4.732l-.079-.04c-.339.249-.847.498-1.365.687l.09.26zm4.693 5.37c0 .597.448 1.055 1.056 1.055h6.853c.598 0 1.056-.448 1.056-1.056v-6.853c0-.598-.448-1.056-1.056-1.056h-6.853c-.598 0-1.056.448-1.056 1.056v6.853zm7.909-7.63c.448 0 .777.328.777.776v6.853a.754.754 0 0 1-.777.777h-6.853a.753.753 0 0 1-.777-.777v-6.853c0-.448.328-.777.777-.777h6.853zm-3.327 4.163c0 1.185.189 1.982.498 2.39.14.19.448.528.976.528.379 0 .717-.189.977-.527.318-.439.498-1.186.498-2.391 0-1.365-.249-2.85-1.475-2.85-.398 0-.707.18-.926.45-.299.348-.548 1.045-.548 2.4zm.598 0c0-1.255.169-1.952.348-2.251.12-.18.299-.319.528-.319.19 0 .389.08.538.319.179.299.339.996.339 2.251s-.14 1.952-.309 2.251c-.149.279-.339.379-.568.379-.199 0-.398-.1-.568-.379-.139-.259-.308-.896-.308-2.251zm-3.686-1.903c.239-.08.498-.17.628-.17.139 0 .179.12.179.43v3.566c0 .537-.07.587-.847.587v.28h2.162v-.28c-.717 0-.767-.05-.767-.587v-4.732l-.08-.04c-.338.249-.846.498-1.365.687l.09.26zm8.469 5.37c0 .597.448 1.055 1.056 1.055h6.853c.597 0 1.056-.448 1.056-1.056v-6.853c0-.598-.449-1.056-1.056-1.056h-6.853c-.598 0-1.056.448-1.056 1.056v6.853zm7.909-7.63c.448 0 .777.328.777.776v6.853a.754.754 0 0 1-.777.777h-6.853a.754.754 0 0 1-.778-.777v-6.853c0-.448.329-.777.778-.777h6.853zm-1.544 4.163c0-1.395 0-2.57.548-2.57s.558 1.205.558 2.57c0 1.444 0 2.63-.558 2.63-.548 0-.548-1.216-.548-2.63zm-.578 0c0 1.235.09 2.918 1.126 2.918 1.105 0 1.125-2.002 1.125-2.918 0-1.156-.119-1.972-.388-2.4-.16-.27-.379-.449-.737-.449-.349 0-.568.18-.737.448-.319.498-.389 1.474-.389 2.401zm-2.819 0c0 1.185.119 1.982.358 2.39.26.449.539.528.768.528 1.075 0 1.125-1.812 1.125-2.918 0-1.156-.119-1.972-.388-2.4-.16-.27-.379-.449-.737-.449-1.046 0-1.126 1.753-1.126 2.849zm.578 0c0-1.365 0-2.57.548-2.57.547 0 .557 1.205.557 2.57 0 1.255-.04 1.952-.149 2.251-.1.279-.219.379-.408.379-.548 0-.548-1.216-.548-2.63zm-2.63-1.962a1 1 0 0 1 .418-.11c.14 0 .18.12.18.428v3.567c0 .537-.06.587-.658.587v.28h1.773v-.28c-.528 0-.578-.05-.578-.587v-4.732l-.089-.04c-.319.239-.767.488-1.136.617l.09.27zM4.98-9.224A4.608 4.608 0 0 0 .369-4.612 4.609 4.609 0 0 0 4.981 0a4.608 4.608 0 0 0 4.611-4.612 4.608 4.608 0 0 0-4.611-4.612zm1.704 7.55H3.487v-.657c1.005 0 1.055-.08 1.055-.688v-2.799c0-.378-.02-.527-.199-.527-.13 0-.418.08-.707.179l-.21-.658c.748-.209 1.585-.547 2.102-.826l.15.07v4.561c0 .608.06.688 1.006.688v.657zm8.26-7.55a4.608 4.608 0 0 0-4.613 4.612A4.609 4.609 0 0 0 14.943 0a4.608 4.608 0 0 0 4.612-4.612 4.608 4.608 0 0 0-4.612-4.612zm-1.654 7.55c-.379 0-.718-.169-.947-.577-.278-.499-.438-1.395-.438-2.401 0-1.076.19-1.993.498-2.45.21-.3.548-.459.887-.459.338 0 .677.16.886.458.31.458.498 1.375.498 2.451 0 1.006-.16 1.902-.438 2.4-.229.409-.558.578-.946.578zm3.855-5.747v4.671c0 .419.05.439.528.439v.538H15.75v-.538c.518 0 .568-.03.568-.439v-3.406c0-.23-.01-.31-.07-.31-.07 0-.229.1-.418.22l-.16-.558a5.33 5.33 0 0 0 1.236-.757l.239.14zm-3.527 4.81c.11-.348.18-.995.18-2.031 0-1.126-.09-1.773-.21-2.082-.1-.259-.228-.299-.298-.299-.07 0-.2.04-.3.299-.119.309-.208.956-.208 2.082 0 1.016.06 2.42.508 2.42.15 0 .249-.13.328-.388zm11.288-6.613a4.608 4.608 0 0 0-4.612 4.612c0 2.55 2.062 4.612 4.612 4.612s4.612-2.062 4.612-4.612a4.608 4.608 0 0 0-4.612-4.612zm1.434 7.55c-1.315 0-1.355-1.932-1.355-2.948 0-1.116.07-2.939 1.355-2.939 1.166 0 1.375 1.435 1.375 2.939 0 1.275-.14 2.948-1.375 2.948zM23.67-7.42v4.661c0 .419.04.449.529.449v.538h-1.923v-.538c.518 0 .558-.04.558-.449v-3.396c0-.23-.01-.31-.07-.31-.06 0-.22.1-.418.21l-.15-.548c.418-.179.907-.488 1.225-.757l.25.14zm2.68 5.21c.478 0 .508-1.545.508-2.421 0-1.225-.09-2.401-.508-2.401-.418 0-.508 1.176-.508 2.4 0 .877.03 2.421.508 2.421zm8.518-7.013a4.608 4.608 0 0 0-4.612 4.612A4.609 4.609 0 0 0 34.868 0a4.608 4.608 0 0 0 4.612-4.612 4.608 4.608 0 0 0-4.612-4.612zm-1.454 4.602c0-1.385.09-2.939 1.166-2.939.995 0 1.175 1.265 1.175 2.939 0 1.295-.08 2.948-1.175 2.948-1.096 0-1.166-1.633-1.166-2.948zm2.779 0c0-1.385.09-2.939 1.166-2.939.328 0 .627.14.856.578.23.448.329 1.275.329 2.36 0 1.067-.1 1.893-.329 2.352-.219.438-.528.597-.856.597-1.116 0-1.166-1.783-1.166-2.948zm-3.407-2.79v4.662c0 .419.06.449.399.449v.528H31.55v-.528c.369 0 .429-.04.429-.449v-3.406c0-.22-.01-.3-.07-.3s-.24.09-.329.16l-.16-.548c.33-.139.818-.448 1.136-.717l.23.15zm1.803 5.2c.31 0 .329-1.105.329-2.42 0-1.345-.03-2.401-.329-2.401-.298 0-.338 1.056-.338 2.4 0 1.326.03 2.421.338 2.421zm2.57-.259c.04.16.1.26.21.26.308 0 .328-1.106.328-2.421 0-1.345-.02-2.401-.328-2.401-.31 0-.33 1.046-.33 2.4 0 1.316.05 1.933.12 2.162zM43.102-.13h8.965v-8.965h-8.965V-.13zm3.028-1.803c.776 0 .896-.13.896-.458v-4.144c0-.15 0-.269-.05-.269s-.458.13-.707.25l-.19-.658c.598-.21 1.246-.518 1.754-.897l.339.22v5.498c0 .329.12.458.866.458v.678H46.13v-.678zM53.072-.13h8.965v-8.965h-8.965V-.13zm1.116-4.482c0-1.036.03-3.288 1.494-3.288 1.425 0 1.494 2.043 1.494 3.288 0 1.245-.07 3.287-1.494 3.287-1.474 0-1.494-2.271-1.494-3.287zm5.777-3.128v5.2c0 .468.06.498.598.498v.607h-2.152v-.607c.578 0 .628-.04.628-.498v-3.795c0-.25-.01-.34-.08-.34-.06 0-.248.1-.458.24l-.17-.618a6.793 6.793 0 0 0 1.375-.847l.26.16zm-4.8 3.128c0 1.056.039 2.68.517 2.68.478 0 .518-1.624.518-2.68 0-1.425-.11-2.112-.229-2.391-.08-.2-.17-.289-.289-.289-.488 0-.518 1.644-.518 2.68zm7.87 4.482H72v-8.965h-8.965V-.13zm3.138-7.61v5.2c0 .468.06.498.607.498v.607H64.63v-.607c.578 0 .627-.04.627-.498v-3.795c0-.26-.02-.34-.08-.34s-.249.1-.468.24l-.159-.618c.458-.209.996-.548 1.365-.847l.259.16zm1.594 3.128c0-1.226.07-3.288 1.494-3.288 1.374 0 1.494 1.913 1.494 3.288 0 1.374-.12 3.287-1.494 3.287-1.435 0-1.494-2.082-1.494-3.287zm.966 0c0 1.424.11 2.112.229 2.39.09.21.17.29.299.29.478 0 .518-1.634.518-2.68 0-1.425-.11-2.112-.23-2.391-.089-.209-.169-.289-.288-.289-.13 0-.2.08-.3.289-.089.22-.228.787-.228 2.39zM72.998-.13h8.965v-8.965h-8.965V-.13zm2.769-4.482c0-1.554.07-3.288 1.245-3.288 1.146 0 1.235 1.604 1.235 3.288 0 1.683-.09 3.287-1.235 3.287-1.176 0-1.245-1.743-1.245-3.287zm-.598-3.128v5.2c0 .468.06.498.458.498v.607h-1.843v-.607c.439 0 .489-.04.489-.498v-3.785c0-.26-.01-.34-.07-.34-.07 0-.24.09-.319.16l-.18-.618c.31-.129.867-.478 1.216-.777l.25.16zm3.536 3.128c0-1.504.06-3.288 1.245-3.288 1.196 0 1.236 1.784 1.236 3.288 0 1.504-.04 3.287-1.236 3.287s-1.245-1.793-1.245-3.287zm-2.002 0c0 1.424.02 2.102.1 2.39.04.21.1.29.209.29.1 0 .16-.08.199-.29.08-.288.1-.966.1-2.39 0-1.425-.02-2.102-.1-2.391-.04-.209-.1-.289-.199-.289-.11 0-.17.08-.21.289-.08.289-.099.976-.099 2.39zm2.949 0c0 1.424.01 2.102.09 2.39.049.21.099.29.208.29.1 0 .15-.08.21-.29.07-.288.09-.966.09-2.39 0-1.425-.02-2.102-.09-2.391-.06-.209-.11-.289-.21-.289-.109 0-.159.08-.209.289-.08.289-.09.976-.09 2.39zM94.69-8.069c0-.568-.458-1.026-1.026-1.026H86.75c-.568 0-1.026.458-1.026 1.026v6.913c0 .568.458 1.026 1.026 1.026h6.913c.568 0 1.026-.458 1.026-1.026v-6.913zm-5.877 6.027c.737 0 .846-.12.846-.438v-3.975c0-.15 0-.26-.04-.26-.05 0-.438.12-.677.24l-.189-.638c.578-.199 1.205-.488 1.693-.846l.33.199v5.28c0 .318.118.438.826.438v.647h-2.79v-.647zm15.839-6.027c0-.568-.458-1.026-1.026-1.026h-6.913c-.567 0-1.026.458-1.026 1.026v6.913c0 .568.459 1.026 1.026 1.026h6.913c.568 0 1.026-.458 1.026-1.026v-6.913zm-7.849 3.457c0-1.226.07-3.288 1.494-3.288 1.425 0 1.495 2.043 1.495 3.288 0 1.245-.07 3.287-1.495 3.287-1.434 0-1.494-2.082-1.494-3.287zm5.778-3.128v5.2c0 .468.059.498.597.498v.607h-2.152v-.607c.578 0 .628-.04.628-.498v-3.795c0-.25-.01-.34-.08-.34-.059 0-.248.1-.458.24l-.169-.618a7.064 7.064 0 0 0 1.374-.847l.26.16zm-4.802 3.128c0 1.444.08 2.68.518 2.68.12 0 .21-.09.29-.29.118-.278.228-.966.228-2.39 0-1.425-.11-2.112-.229-2.391-.08-.2-.17-.289-.289-.289-.438 0-.518 1.245-.518 2.68zm16.836-3.457c0-.568-.458-1.026-1.026-1.026h-6.913c-.568 0-1.026.458-1.026 1.026v6.913c0 .568.458 1.026 1.026 1.026h6.913c.568 0 1.026-.458 1.026-1.026v-6.913zm-5.827.329v5.2c0 .468.06.498.607.498v.607h-2.151v-.607c.578 0 .627-.04.627-.498v-3.795c0-.26-.02-.34-.079-.34-.06 0-.249.1-.469.24l-.159-.618c.458-.209.996-.548 1.365-.847l.259.16zm1.594 3.128c0-1.226.069-3.288 1.494-3.288 1.374 0 1.494 1.913 1.494 3.288 0 1.374-.12 3.287-1.494 3.287-1.435 0-1.494-2.082-1.494-3.287zm.966 0c0 1.424.109 2.112.229 2.39.09.21.169.29.299.29.478 0 .518-1.634.518-2.68 0-1.425-.11-2.112-.229-2.391-.09-.209-.17-.289-.289-.289-.13 0-.199.08-.299.289-.09.22-.229.787-.229 2.39zm13.23-3.457c0-.568-.459-1.026-1.026-1.026h-6.913c-.568 0-1.026.458-1.026 1.026v6.913c0 .568.458 1.026 1.026 1.026h6.913c.567 0 1.026-.458 1.026-1.026v-6.913zm-6.196 3.457c0-1.554.069-3.288 1.245-3.288 1.146 0 1.235 1.604 1.235 3.288 0 1.683-.089 3.287-1.235 3.287-1.176 0-1.245-1.743-1.245-3.287zm-.598-3.128v5.2c0 .468.06.498.458.498v.607h-1.843v-.607c.439 0 .489-.04.489-.498v-3.785c0-.26-.01-.34-.07-.34-.07 0-.239.09-.319.16l-.179-.618c.309-.129.866-.478 1.215-.777l.249.16zm3.546 3.128c0-1.484.03-3.288 1.235-3.288 1.146 0 1.236 1.604 1.236 3.288 0 1.683-.09 3.287-1.236 3.287-1.205 0-1.235-1.813-1.235-3.287zm-2.012 0c0 1.424.03 2.102.09 2.39.06.21.109.3.219.3.1 0 .149-.09.209-.3.06-.288.09-.966.09-2.39 0-1.425-.03-2.102-.09-2.391-.06-.209-.109-.289-.209-.289-.11 0-.159.08-.219.289-.06.299-.09 1.016-.09 2.39zm2.939 0c0 1.424.03 2.102.099 2.39.05.21.1.3.209.3.11 0 .15-.09.21-.3.069-.288.089-.966.089-2.39 0-1.425-.02-2.102-.089-2.391-.06-.209-.1-.289-.21-.289-.109 0-.159.08-.209.289-.069.299-.099.996-.099 2.39z"/></svg>